<?xml version="1.0" encoding="UTF-8" standalone="no"?>
<!DOCTYPE svg PUBLIC "-//W3C//DTD SVG 1.1//EN"
 "http://www.w3.org/Graphics/SVG/1.1/DTD/svg11.dtd">
<!-- Generated by graphviz version 2.38.0 (20140413.2041)
 -->
<!-- Title: PROV Pages: 1 -->
<svg width="791pt" height="309pt"
 viewBox="0.00 0.00 791.00 309.00" xmlns="http://www.w3.org/2000/svg" xmlns:xlink="http://www.w3.org/1999/xlink">
<g id="graph0" class="graph" transform="scale(1 1) rotate(0) translate(4 305)">
<title>PROV</title>
<polygon fill="white" stroke="none" points="-4,4 -4,-305 787,-305 787,4 -4,4"/>
<!-- http://example.org/backward4 -->
<g id="node1" class="node"><title>http://example.org/backward4</title>
<g id="a_node1"><a xlink:href="http://example.org/backward4" xlink:title="backward4">
<polygon fill="#9fb1fc" stroke="#0000ff" points="645,-141.5 567,-141.5 567,-105.5 645,-105.5 645,-141.5"/>
<text text-anchor="middle" x="606" y="-119.8" font-family="Times New Roman,serif" font-size="14.00">backward4</text>
</a>
</g>
</g>
<!-- http://example.org/s3 -->
<g id="node12" class="node"><title>http://example.org/s3</title>
<g id="a_node12"><a xlink:href="http://example.org/s3" xlink:title="s3">
<ellipse fill="#fffc87" stroke="#808080" cx="528" cy="-77.5" rx="27" ry="18"/>
<text text-anchor="middle" x="528" y="-73.8" font-family="Times New Roman,serif" font-size="14.00">s3</text>
</a>
</g>
</g>
<!-- http://example.org/backward4&#45;&gt;http://example.org/s3 -->
<g id="edge10" class="edge"><title>http://example.org/backward4&#45;&gt;http://example.org/s3</title>
<path fill="none" stroke="black" d="M574.963,-105.32C569.19,-101.826 563.161,-98.1766 557.441,-94.7144"/>
<polygon fill="black" stroke="black" points="559.156,-91.6609 548.788,-89.4771 555.531,-97.6494 559.156,-91.6609"/>
<text text-anchor="middle" x="561.82" y="-110.649" font-family="Times New Roman,serif" font-size="8.00">use</text>
</g>
<!-- &#45;attrs0 -->
<g id="node2" class="node"><title>&#45;attrs0</title>
<polygon fill="none" stroke="gray" points="704,-149.5 653,-149.5 653,-113.5 710,-113.5 710,-143.5 704,-149.5"/>
<polyline fill="none" stroke="gray" points="704,-149.5 704,-143.5 "/>
<polyline fill="none" stroke="gray" points="710,-143.5 704,-143.5 "/>
<text text-anchor="start" x="663.5" y="-135.5" font-family="Times New Roman,serif" font-size="10.00">found:</text>
<text text-anchor="start" x="695.5" y="-135.5" font-family="Times New Roman,serif" font-size="10.00">0</text>
<text text-anchor="start" x="663.5" y="-122.5" font-family="Times New Roman,serif" font-size="10.00">related:</text>
<text text-anchor="start" x="695.5" y="-122.5" font-family="Times New Roman,serif" font-size="10.00">0</text>
</g>
<!-- &#45;attrs0&#45;&gt;http://example.org/backward4 -->
<g id="edge1" class="edge"><title>&#45;attrs0&#45;&gt;http://example.org/backward4</title>
<path fill="none" stroke="gray" stroke-dasharray="5,2" d="M652.713,-128.476C650.192,-128.201 647.612,-127.92 645.023,-127.639"/>
</g>
<!-- http://example.org/backward3 -->
<g id="node3" class="node"><title>http://example.org/backward3</title>
<g id="a_node3"><a xlink:href="http://example.org/backward3" xlink:title="backward3">
<polygon fill="#9fb1fc" stroke="#0000ff" points="489,-141.5 411,-141.5 411,-105.5 489,-105.5 489,-141.5"/>
<text text-anchor="middle" x="450" y="-119.8" font-family="Times New Roman,serif" font-size="14.00">backward3</text>
</a>
</g>
</g>
<!-- http://example.org/s2 -->
<g id="node14" class="node"><title>http://example.org/s2</title>
<g id="a_node14"><a xlink:href="http://example.org/s2" xlink:title="s2">
<ellipse fill="#fffc87" stroke="#808080" cx="374.5" cy="-123.5" rx="27" ry="18"/>
<text text-anchor="middle" x="374.5" y="-119.8" font-family="Times New Roman,serif" font-size="14.00">s2</text>
</a>
</g>
</g>
<!-- http://example.org/backward3&#45;&gt;http://example.org/s2 -->
<g id="edge13" class="edge"><title>http://example.org/backward3&#45;&gt;http://example.org/s2</title>
<path fill="none" stroke="black" d="M410.958,-123.5C410.862,-123.5 410.766,-123.5 410.669,-123.5"/>
<polygon fill="black" stroke="black" points="411.834,-120 401.834,-123.5 411.834,-127 411.834,-120"/>
<text text-anchor="middle" x="403.458" y="-134.59" font-family="Times New Roman,serif" font-size="8.00">use</text>
</g>
<!-- &#45;attrs1 -->
<g id="node4" class="node"><title>&#45;attrs1</title>
<polygon fill="none" stroke="gray" points="553,-149.5 497,-149.5 497,-113.5 559,-113.5 559,-143.5 553,-149.5"/>
<polyline fill="none" stroke="gray" points="553,-149.5 553,-143.5 "/>
<polyline fill="none" stroke="gray" points="559,-143.5 553,-143.5 "/>
<text text-anchor="start" x="507" y="-135.5" font-family="Times New Roman,serif" font-size="10.00">found:</text>
<text text-anchor="start" x="539" y="-135.5" font-family="Times New Roman,serif" font-size="10.00">26</text>
<text text-anchor="start" x="507" y="-122.5" font-family="Times New Roman,serif" font-size="10.00">related:</text>
<text text-anchor="start" x="539" y="-122.5" font-family="Times New Roman,serif" font-size="10.00">1</text>
</g>
<!-- &#45;attrs1&#45;&gt;http://example.org/backward3 -->
<g id="edge2" class="edge"><title>&#45;attrs1&#45;&gt;http://example.org/backward3</title>
<path fill="none" stroke="gray" stroke-dasharray="5,2" d="M496.963,-128.338C494.39,-128.067 491.767,-127.791 489.143,-127.515"/>
</g>
<!-- http://example.org/forward2 -->
<g id="node5" class="node"><title>http://example.org/forward2</title>
<g id="a_node5"><a xlink:href="http://example.org/forward2" xlink:title="forward2">
<polygon fill="#9fb1fc" stroke="#0000ff" points="338,-187.5 270,-187.5 270,-151.5 338,-151.5 338,-187.5"/>
<text text-anchor="middle" x="304" y="-165.8" font-family="Times New Roman,serif" font-size="14.00">forward2</text>
</a>
</g>
</g>
<!-- http://example.org/s1 -->
<g id="node16" class="node"><title>http://example.org/s1</title>
<g id="a_node16"><a xlink:href="http://example.org/s1" xlink:title="s1">
<ellipse fill="#fffc87" stroke="#808080" cx="231" cy="-169.5" rx="27" ry="18"/>
<text text-anchor="middle" x="231" y="-165.8" font-family="Times New Roman,serif" font-size="14.00">s1</text>
</a>
</g>
</g>
<!-- http://example.org/forward2&#45;&gt;http://example.org/s1 -->
<g id="edge16" class="edge"><title>http://example.org/forward2&#45;&gt;http://example.org/s1</title>
<path fill="none" stroke="black" d="M269.994,-169.5C269.505,-169.5 269.016,-169.5 268.526,-169.5"/>
<polygon fill="black" stroke="black" points="268.331,-166 258.331,-169.5 268.331,-173 268.331,-166"/>
<text text-anchor="middle" x="262.494" y="-180.59" font-family="Times New Roman,serif" font-size="8.00">use</text>
</g>
<!-- &#45;attrs2 -->
<g id="node6" class="node"><title>&#45;attrs2</title>
<polygon fill="none" stroke="gray" points="397,-195.5 346,-195.5 346,-159.5 403,-159.5 403,-189.5 397,-195.5"/>
<polyline fill="none" stroke="gray" points="397,-195.5 397,-189.5 "/>
<polyline fill="none" stroke="gray" points="403,-189.5 397,-189.5 "/>
<text text-anchor="start" x="356.5" y="-181.5" font-family="Times New Roman,serif" font-size="10.00">found:</text>
<text text-anchor="start" x="388.5" y="-181.5" font-family="Times New Roman,serif" font-size="10.00">0</text>
<text text-anchor="start" x="356.5" y="-168.5" font-family="Times New Roman,serif" font-size="10.00">related:</text>
<text text-anchor="start" x="388.5" y="-168.5" font-family="Times New Roman,serif" font-size="10.00">0</text>
</g>
<!-- &#45;attrs2&#45;&gt;http://example.org/forward2 -->
<g id="edge3" class="edge"><title>&#45;attrs2&#45;&gt;http://example.org/forward2</title>
<path fill="none" stroke="gray" stroke-dasharray="5,2" d="M345.638,-174.246C343.268,-173.969 340.855,-173.687 338.447,-173.406"/>
</g>
<!-- http://example.org/forward1 -->
<g id="node7" class="node"><title>http://example.org/forward1</title>
<g id="a_node7"><a xlink:href="http://example.org/forward1" xlink:title="forward1">
<polygon fill="#9fb1fc" stroke="#0000ff" points="192,-233.5 124,-233.5 124,-197.5 192,-197.5 192,-233.5"/>
<text text-anchor="middle" x="158" y="-211.8" font-family="Times New Roman,serif" font-size="14.00">forward1</text>
</a>
</g>
</g>
<!-- http://example.org/s0 -->
<g id="node18" class="node"><title>http://example.org/s0</title>
<g id="a_node18"><a xlink:href="http://example.org/s0" xlink:title="s0">
<ellipse fill="#fffc87" stroke="#808080" cx="89" cy="-215.5" rx="27" ry="18"/>
<text text-anchor="middle" x="89" y="-211.8" font-family="Times New Roman,serif" font-size="14.00">s0</text>
</a>
</g>
</g>
<!-- http://example.org/forward1&#45;&gt;http://example.org/s0 -->
<g id="edge19" class="edge"><title>http://example.org/forward1&#45;&gt;http://example.org/s0</title>
<path fill="none" stroke="black" d="M123.893,-215.5C123.728,-215.5 123.563,-215.5 123.398,-215.5"/>
<polygon fill="black" stroke="black" points="126.036,-212 116.036,-215.5 126.036,-219 126.036,-212"/>
<text text-anchor="middle" x="116.393" y="-226.59" font-family="Times New Roman,serif" font-size="8.00">use</text>
</g>
<!-- &#45;attrs3 -->
<g id="node8" class="node"><title>&#45;attrs3</title>
<polygon fill="none" stroke="gray" points="256,-241.5 200,-241.5 200,-205.5 262,-205.5 262,-235.5 256,-241.5"/>
<polyline fill="none" stroke="gray" points="256,-241.5 256,-235.5 "/>
<polyline fill="none" stroke="gray" points="262,-235.5 256,-235.5 "/>
<text text-anchor="start" x="210" y="-227.5" font-family="Times New Roman,serif" font-size="10.00">found:</text>
<text text-anchor="start" x="242" y="-227.5" font-family="Times New Roman,serif" font-size="10.00">69</text>
<text text-anchor="start" x="210" y="-214.5" font-family="Times New Roman,serif" font-size="10.00">related:</text>
<text text-anchor="start" x="242" y="-214.5" font-family="Times New Roman,serif" font-size="10.00">1</text>
</g>
<!-- &#45;attrs3&#45;&gt;http://example.org/forward1 -->
<g id="edge4" class="edge"><title>&#45;attrs3&#45;&gt;http://example.org/forward1</title>
<path fill="none" stroke="gray" stroke-dasharray="5,2" d="M199.89,-220.107C197.32,-219.818 194.711,-219.524 192.119,-219.232"/>
</g>
<!-- http://example.org/start -->
<g id="node9" class="node"><title>http://example.org/start</title>
<g id="a_node9"><a xlink:href="http://example.org/start" xlink:title="start">
<polygon fill="#9fb1fc" stroke="#0000ff" points="54,-233.5 0,-233.5 0,-197.5 54,-197.5 54,-233.5"/>
<text text-anchor="middle" x="27" y="-211.8" font-family="Times New Roman,serif" font-size="14.00">start</text>
</a>
</g>
</g>
<!-- http://example.org/s4 -->
<g id="node10" class="node"><title>http://example.org/s4</title>
<g id="a_node10"><a xlink:href="http://example.org/s4" xlink:title="s4">
<ellipse fill="#fffc87" stroke="#808080" cx="681.5" cy="-77.5" rx="27" ry="18"/>
<text text-anchor="middle" x="681.5" y="-73.8" font-family="Times New Roman,serif" font-size="14.00">s4</text>
</a>
</g>
</g>
<!-- http://example.org/s4&#45;&gt;http://example.org/backward4 -->
<g id="edge11" class="edge"><title>http://example.org/s4&#45;&gt;http://example.org/backward4</title>
<path fill="none" stroke="black" d="M661.189,-89.586C655.988,-92.841 650.18,-96.4757 644.352,-100.123"/>
<polygon fill="black" stroke="black" points="642.488,-97.161 635.868,-105.433 646.201,-103.095 642.488,-97.161"/>
<text text-anchor="middle" x="661.723" y="-102.676" font-family="Times New Roman,serif" font-size="8.00">gen</text>
</g>
<!-- http://example.org/s4&#45;&gt;http://example.org/s3 -->
<g id="edge12" class="edge"><title>http://example.org/s4&#45;&gt;http://example.org/s3</title>
<path fill="none" stroke="black" d="M654.456,-77.5C629.85,-77.5 592.716,-77.5 565.228,-77.5"/>
<polygon fill="black" stroke="black" points="565.211,-74.0001 555.211,-77.5 565.211,-81.0001 565.211,-74.0001"/>
<text text-anchor="middle" x="646.956" y="-88.5904" font-family="Times New Roman,serif" font-size="8.00">der</text>
</g>
<!-- &#45;attrs4 -->
<g id="node11" class="node"><title>&#45;attrs4</title>
<polygon fill="none" stroke="gray" points="777,-102 718,-102 718,-53 783,-53 783,-96 777,-102"/>
<polyline fill="none" stroke="gray" points="777,-102 777,-96 "/>
<polyline fill="none" stroke="gray" points="783,-96 777,-96 "/>
<text text-anchor="start" x="728.5" y="-87.5" font-family="Times New Roman,serif" font-size="10.00">type:</text>
<text text-anchor="start" x="760.5" y="-87.5" font-family="Times New Roman,serif" font-size="10.00">Set</text>
<text text-anchor="start" x="728.5" y="-74.5" font-family="Times New Roman,serif" font-size="10.00">visited:</text>
<text text-anchor="start" x="760.5" y="-74.5" font-family="Times New Roman,serif" font-size="10.00">99</text>
<text text-anchor="start" x="728.5" y="-61.5" font-family="Times New Roman,serif" font-size="10.00">related:</text>
<text text-anchor="start" x="760.5" y="-61.5" font-family="Times New Roman,serif" font-size="10.00">4</text>
</g>
<!-- &#45;attrs4&#45;&gt;http://example.org/s4 -->
<g id="edge5" class="edge"><title>&#45;attrs4&#45;&gt;http://example.org/s4</title>
<path fill="none" stroke="gray" stroke-dasharray="5,2" d="M717.962,-77.5C714.839,-77.5 711.694,-77.5 708.635,-77.5"/>
</g>
<!-- http://example.org/s3&#45;&gt;http://example.org/backward3 -->
<g id="edge14" class="edge"><title>http://example.org/s3&#45;&gt;http://example.org/backward3</title>
<path fill="none" stroke="black" d="M507.428,-89.3461C501.991,-92.637 495.89,-96.3299 489.762,-100.039"/>
<polygon fill="black" stroke="black" points="487.582,-97.2669 480.84,-105.439 491.207,-103.255 487.582,-97.2669"/>
<text text-anchor="middle" x="507.738" y="-102.443" font-family="Times New Roman,serif" font-size="8.00">gen</text>
</g>
<!-- http://example.org/s3&#45;&gt;http://example.org/s2 -->
<g id="edge15" class="edge"><title>http://example.org/s3&#45;&gt;http://example.org/s2</title>
<path fill="none" stroke="black" d="M500.648,-78.2013C476.452,-79.6709 440.056,-83.9992 411,-96.5 406.999,-98.2213 403.042,-100.49 399.304,-102.982"/>
<polygon fill="black" stroke="black" points="397.037,-100.304 391.057,-109.05 401.186,-105.942 397.037,-100.304"/>
<text text-anchor="middle" x="494.072" y="-89.7833" font-family="Times New Roman,serif" font-size="8.00">der</text>
</g>
<!-- &#45;attrs5 -->
<g id="node13" class="node"><title>&#45;attrs5</title>
<polygon fill="none" stroke="gray" points="632.5,-49 573.5,-49 573.5,-0 638.5,-0 638.5,-43 632.5,-49"/>
<polyline fill="none" stroke="gray" points="632.5,-49 632.5,-43 "/>
<polyline fill="none" stroke="gray" points="638.5,-43 632.5,-43 "/>
<text text-anchor="start" x="584" y="-34.5" font-family="Times New Roman,serif" font-size="10.00">type:</text>
<text text-anchor="start" x="616" y="-34.5" font-family="Times New Roman,serif" font-size="10.00">Set</text>
<text text-anchor="start" x="584" y="-21.5" font-family="Times New Roman,serif" font-size="10.00">visited:</text>
<text text-anchor="start" x="616" y="-21.5" font-family="Times New Roman,serif" font-size="10.00">99</text>
<text text-anchor="start" x="584" y="-8.5" font-family="Times New Roman,serif" font-size="10.00">related:</text>
<text text-anchor="start" x="616" y="-8.5" font-family="Times New Roman,serif" font-size="10.00">4</text>
</g>
<!-- &#45;attrs5&#45;&gt;http://example.org/s3 -->
<g id="edge6" class="edge"><title>&#45;attrs5&#45;&gt;http://example.org/s3</title>
<path fill="none" stroke="gray" stroke-dasharray="5,2" d="M573.21,-46.6697C564.424,-52.7967 555.182,-59.2412 547.434,-64.6448"/>
</g>
<!-- http://example.org/s2&#45;&gt;http://example.org/forward2 -->
<g id="edge17" class="edge"><title>http://example.org/s2&#45;&gt;http://example.org/forward2</title>
<path fill="none" stroke="black" d="M354.782,-136.07C350.265,-139.103 345.291,-142.443 340.287,-145.804"/>
<polygon fill="black" stroke="black" points="338.264,-142.946 331.913,-151.427 342.166,-148.758 338.264,-142.946"/>
<text text-anchor="middle" x="355.798" y="-149.135" font-family="Times New Roman,serif" font-size="8.00">gen</text>
</g>
<!-- http://example.org/s2&#45;&gt;http://example.org/s1 -->
<g id="edge18" class="edge"><title>http://example.org/s2&#45;&gt;http://example.org/s1</title>
<path fill="none" stroke="black" d="M347.513,-125.132C326.023,-127.21 295.076,-131.908 270,-142.5 265.485,-144.407 260.979,-146.923 256.732,-149.653"/>
<polygon fill="black" stroke="black" points="254.651,-146.837 248.454,-155.43 258.657,-152.577 254.651,-146.837"/>
<text text-anchor="middle" x="341.411" y="-136.935" font-family="Times New Roman,serif" font-size="8.00">der</text>
</g>
<!-- &#45;attrs6 -->
<g id="node15" class="node"><title>&#45;attrs6</title>
<polygon fill="none" stroke="gray" points="476.5,-209 417.5,-209 417.5,-160 482.5,-160 482.5,-203 476.5,-209"/>
<polyline fill="none" stroke="gray" points="476.5,-209 476.5,-203 "/>
<polyline fill="none" stroke="gray" points="482.5,-203 476.5,-203 "/>
<text text-anchor="start" x="428" y="-194.5" font-family="Times New Roman,serif" font-size="10.00">type:</text>
<text text-anchor="start" x="460" y="-194.5" font-family="Times New Roman,serif" font-size="10.00">Set</text>
<text text-anchor="start" x="428" y="-181.5" font-family="Times New Roman,serif" font-size="10.00">visited:</text>
<text text-anchor="start" x="460" y="-181.5" font-family="Times New Roman,serif" font-size="10.00">73</text>
<text text-anchor="start" x="428" y="-168.5" font-family="Times New Roman,serif" font-size="10.00">related:</text>
<text text-anchor="start" x="460" y="-168.5" font-family="Times New Roman,serif" font-size="10.00">3</text>
</g>
<!-- &#45;attrs6&#45;&gt;http://example.org/s2 -->
<g id="edge7" class="edge"><title>&#45;attrs6&#45;&gt;http://example.org/s2</title>
<path fill="none" stroke="gray" stroke-dasharray="5,2" d="M419.105,-159.689C409.884,-152.037 400.067,-143.889 392.086,-137.266"/>
</g>
<!-- http://example.org/s1&#45;&gt;http://example.org/forward1 -->
<g id="edge20" class="edge"><title>http://example.org/s1&#45;&gt;http://example.org/forward1</title>
<path fill="none" stroke="black" d="M210.973,-181.827C206.121,-184.971 200.741,-188.456 195.336,-191.958"/>
<polygon fill="black" stroke="black" points="193.382,-189.054 186.892,-197.429 197.188,-194.929 193.382,-189.054"/>
<text text-anchor="middle" x="211.742" y="-194.907" font-family="Times New Roman,serif" font-size="8.00">gen</text>
</g>
<!-- http://example.org/s1&#45;&gt;http://example.org/s0 -->
<g id="edge21" class="edge"><title>http://example.org/s1&#45;&gt;http://example.org/s0</title>
<path fill="none" stroke="black" d="M203.675,-170.637C181.557,-172.417 149.558,-176.956 124,-188.5 120.318,-190.163 116.688,-192.313 113.249,-194.673"/>
<polygon fill="black" stroke="black" points="111.014,-191.976 105.174,-200.816 115.252,-197.547 111.014,-191.976"/>
<text text-anchor="middle" x="197.367" y="-182.346" font-family="Times New Roman,serif" font-size="8.00">der</text>
</g>
<!-- &#45;attrs7 -->
<g id="node17" class="node"><title>&#45;attrs7</title>
<polygon fill="none" stroke="gray" points="330.5,-255 271.5,-255 271.5,-206 336.5,-206 336.5,-249 330.5,-255"/>
<polyline fill="none" stroke="gray" points="330.5,-255 330.5,-249 "/>
<polyline fill="none" stroke="gray" points="336.5,-249 330.5,-249 "/>
<text text-anchor="start" x="282" y="-240.5" font-family="Times New Roman,serif" font-size="10.00">type:</text>
<text text-anchor="start" x="314" y="-240.5" font-family="Times New Roman,serif" font-size="10.00">Set</text>
<text text-anchor="start" x="282" y="-227.5" font-family="Times New Roman,serif" font-size="10.00">visited:</text>
<text text-anchor="start" x="314" y="-227.5" font-family="Times New Roman,serif" font-size="10.00">73</text>
<text text-anchor="start" x="282" y="-214.5" font-family="Times New Roman,serif" font-size="10.00">related:</text>
<text text-anchor="start" x="314" y="-214.5" font-family="Times New Roman,serif" font-size="10.00">3</text>
</g>
<!-- &#45;attrs7&#45;&gt;http://example.org/s1 -->
<g id="edge8" class="edge"><title>&#45;attrs7&#45;&gt;http://example.org/s1</title>
<path fill="none" stroke="gray" stroke-dasharray="5,2" d="M274.122,-205.689C265.368,-198.168 256.058,-190.17 248.423,-183.61"/>
</g>
<!-- http://example.org/s0&#45;&gt;http://example.org/start -->
<g id="edge22" class="edge"><title>http://example.org/s0&#45;&gt;http://example.org/start</title>
<path fill="none" stroke="black" d="M61.8577,-215.5C61.6998,-215.5 61.5417,-215.5 61.3836,-215.5"/>
<polygon fill="black" stroke="black" points="64.2405,-212 54.2405,-215.5 64.2404,-219 64.2405,-212"/>
<text text-anchor="middle" x="54.3577" y="-226.59" font-family="Times New Roman,serif" font-size="8.00">gen</text>
</g>
<!-- &#45;attrs8 -->
<g id="node19" class="node"><title>&#45;attrs8</title>
<polygon fill="none" stroke="gray" points="184.5,-301 125.5,-301 125.5,-252 190.5,-252 190.5,-295 184.5,-301"/>
<polyline fill="none" stroke="gray" points="184.5,-301 184.5,-295 "/>
<polyline fill="none" stroke="gray" points="190.5,-295 184.5,-295 "/>
<text text-anchor="start" x="136" y="-286.5" font-family="Times New Roman,serif" font-size="10.00">type:</text>
<text text-anchor="start" x="168" y="-286.5" font-family="Times New Roman,serif" font-size="10.00">Set</text>
<text text-anchor="start" x="136" y="-273.5" font-family="Times New Roman,serif" font-size="10.00">visited:</text>
<text text-anchor="start" x="168" y="-273.5" font-family="Times New Roman,serif" font-size="10.00">4</text>
<text text-anchor="start" x="136" y="-260.5" font-family="Times New Roman,serif" font-size="10.00">related:</text>
<text text-anchor="start" x="168" y="-260.5" font-family="Times New Roman,serif" font-size="10.00">2</text>
</g>
<!-- &#45;attrs8&#45;&gt;http://example.org/s0 -->
<g id="edge9" class="edge"><title>&#45;attrs8&#45;&gt;http://example.org/s0</title>
<path fill="none" stroke="gray" stroke-dasharray="5,2" d="M129.749,-251.689C121.633,-244.3 113.011,-236.45 105.878,-229.956"/>
</g>
</g>
</svg>
