<?xml version="1.0" encoding="UTF-8" standalone="no"?>
<!DOCTYPE svg PUBLIC "-//W3C//DTD SVG 1.1//EN"
 "http://www.w3.org/Graphics/SVG/1.1/DTD/svg11.dtd">
<!-- Generated by graphviz version 2.38.0 (20140413.2041)
 -->
<!-- Title: PROV Pages: 1 -->
<svg width="577pt" height="194pt"
 viewBox="0.00 0.00 577.00 194.00" xmlns="http://www.w3.org/2000/svg" xmlns:xlink="http://www.w3.org/1999/xlink">
<g id="graph0" class="graph" transform="scale(1 1) rotate(0) translate(4 190)">
<title>PROV</title>
<polygon fill="white" stroke="none" points="-4,4 -4,-190 573,-190 573,4 -4,4"/>
<!-- http://example.org/start -->
<g id="node1" class="node"><title>http://example.org/start</title>
<g id="a_node1"><a xlink:href="http://example.org/start" xlink:title="start">
<polygon fill="#9fb1fc" stroke="#0000ff" points="54,-105 0,-105 0,-69 54,-69 54,-105"/>
<text text-anchor="middle" x="27" y="-83.3" font-family="Times New Roman,serif" font-size="14.00">start</text>
</a>
</g>
</g>
<!-- http://example.org/backward1 -->
<g id="node2" class="node"><title>http://example.org/backward1</title>
<g id="a_node2"><a xlink:href="http://example.org/backward1" xlink:title="backward1">
<polygon fill="#9fb1fc" stroke="#0000ff" points="202,-151 124,-151 124,-115 202,-115 202,-151"/>
<text text-anchor="middle" x="163" y="-129.3" font-family="Times New Roman,serif" font-size="14.00">backward1</text>
</a>
</g>
</g>
<!-- http://example.org/s0 -->
<g id="node10" class="node"><title>http://example.org/s0</title>
<g id="a_node10"><a xlink:href="http://example.org/s0" xlink:title="s0">
<ellipse fill="#fffc87" stroke="#808080" cx="89" cy="-87" rx="27" ry="18"/>
<text text-anchor="middle" x="89" y="-83.3" font-family="Times New Roman,serif" font-size="14.00">s0</text>
</a>
</g>
</g>
<!-- http://example.org/backward1&#45;&gt;http://example.org/s0 -->
<g id="edge9" class="edge"><title>http://example.org/backward1&#45;&gt;http://example.org/s0</title>
<path fill="none" stroke="black" d="M133.544,-114.82C128.306,-111.473 122.845,-107.984 117.632,-104.654"/>
<polygon fill="black" stroke="black" points="119.488,-101.686 109.176,-99.2516 115.719,-107.585 119.488,-101.686"/>
<text text-anchor="middle" x="120.23" y="-119.829" font-family="Times New Roman,serif" font-size="8.00">use</text>
</g>
<!-- &#45;attrs0 -->
<g id="node3" class="node"><title>&#45;attrs0</title>
<polygon fill="none" stroke="gray" points="266,-159 210,-159 210,-123 272,-123 272,-153 266,-159"/>
<polyline fill="none" stroke="gray" points="266,-159 266,-153 "/>
<polyline fill="none" stroke="gray" points="272,-153 266,-153 "/>
<text text-anchor="start" x="220" y="-145" font-family="Times New Roman,serif" font-size="10.00">found:</text>
<text text-anchor="start" x="252" y="-145" font-family="Times New Roman,serif" font-size="10.00">21</text>
<text text-anchor="start" x="220" y="-132" font-family="Times New Roman,serif" font-size="10.00">related:</text>
<text text-anchor="start" x="252" y="-132" font-family="Times New Roman,serif" font-size="10.00">1</text>
</g>
<!-- &#45;attrs0&#45;&gt;http://example.org/backward1 -->
<g id="edge1" class="edge"><title>&#45;attrs0&#45;&gt;http://example.org/backward1</title>
<path fill="none" stroke="gray" stroke-dasharray="5,2" d="M209.963,-137.838C207.39,-137.567 204.767,-137.291 202.143,-137.015"/>
</g>
<!-- http://example.org/backward2 -->
<g id="node4" class="node"><title>http://example.org/backward2</title>
<g id="a_node4"><a xlink:href="http://example.org/backward2" xlink:title="backward2">
<polygon fill="#9fb1fc" stroke="#0000ff" points="358,-186 280,-186 280,-150 358,-150 358,-186"/>
<text text-anchor="middle" x="319" y="-164.3" font-family="Times New Roman,serif" font-size="14.00">backward2</text>
</a>
</g>
</g>
<!-- http://example.org/s1 -->
<g id="node12" class="node"><title>http://example.org/s1</title>
<g id="a_node12"><a xlink:href="http://example.org/s1" xlink:title="s1">
<ellipse fill="#fffc87" stroke="#808080" cx="241" cy="-87" rx="27" ry="18"/>
<text text-anchor="middle" x="241" y="-83.3" font-family="Times New Roman,serif" font-size="14.00">s1</text>
</a>
</g>
</g>
<!-- http://example.org/backward2&#45;&gt;http://example.org/s1 -->
<g id="edge12" class="edge"><title>http://example.org/backward2&#45;&gt;http://example.org/s1</title>
<path fill="none" stroke="black" d="M291.599,-149.727C287.308,-145.894 283.222,-141.604 280,-137 273.794,-128.133 277.989,-123.015 272,-114 270.541,-111.804 268.863,-109.67 267.062,-107.628"/>
<polygon fill="black" stroke="black" points="269.25,-104.866 259.707,-100.266 264.298,-109.814 269.25,-104.866"/>
<text text-anchor="middle" x="277.313" y="-152.398" font-family="Times New Roman,serif" font-size="8.00">use</text>
</g>
<!-- &#45;attrs1 -->
<g id="node5" class="node"><title>&#45;attrs1</title>
<polygon fill="none" stroke="gray" points="419.5,-186 368.5,-186 368.5,-150 425.5,-150 425.5,-180 419.5,-186"/>
<polyline fill="none" stroke="gray" points="419.5,-186 419.5,-180 "/>
<polyline fill="none" stroke="gray" points="425.5,-180 419.5,-180 "/>
<text text-anchor="start" x="379" y="-172" font-family="Times New Roman,serif" font-size="10.00">found:</text>
<text text-anchor="start" x="411" y="-172" font-family="Times New Roman,serif" font-size="10.00">0</text>
<text text-anchor="start" x="379" y="-159" font-family="Times New Roman,serif" font-size="10.00">related:</text>
<text text-anchor="start" x="411" y="-159" font-family="Times New Roman,serif" font-size="10.00">0</text>
</g>
<!-- &#45;attrs1&#45;&gt;http://example.org/backward2 -->
<g id="edge2" class="edge"><title>&#45;attrs1&#45;&gt;http://example.org/backward2</title>
<path fill="none" stroke="gray" stroke-dasharray="5,2" d="M368.132,-168C364.912,-168 361.588,-168 358.261,-168"/>
</g>
<!-- http://example.org/forward1 -->
<g id="node6" class="node"><title>http://example.org/forward1</title>
<g id="a_node6"><a xlink:href="http://example.org/forward1" xlink:title="forward1">
<polygon fill="#9fb1fc" stroke="#0000ff" points="353,-128 285,-128 285,-92 353,-92 353,-128"/>
<text text-anchor="middle" x="319" y="-106.3" font-family="Times New Roman,serif" font-size="14.00">forward1</text>
</a>
</g>
</g>
<!-- http://example.org/forward1&#45;&gt;http://example.org/s1 -->
<g id="edge13" class="edge"><title>http://example.org/forward1&#45;&gt;http://example.org/s1</title>
<path fill="none" stroke="black" d="M284.886,-99.9788C281.786,-99.0406 278.642,-98.0891 275.538,-97.1497"/>
<polygon fill="black" stroke="black" points="276.45,-93.7688 265.864,-94.2221 274.422,-100.469 276.45,-93.7688"/>
<text text-anchor="middle" x="273.945" y="-108.34" font-family="Times New Roman,serif" font-size="8.00">use</text>
</g>
<!-- &#45;attrs2 -->
<g id="node7" class="node"><title>&#45;attrs2</title>
<polygon fill="none" stroke="gray" points="422,-132 366,-132 366,-96 428,-96 428,-126 422,-132"/>
<polyline fill="none" stroke="gray" points="422,-132 422,-126 "/>
<polyline fill="none" stroke="gray" points="428,-126 422,-126 "/>
<text text-anchor="start" x="376" y="-118" font-family="Times New Roman,serif" font-size="10.00">found:</text>
<text text-anchor="start" x="408" y="-118" font-family="Times New Roman,serif" font-size="10.00">41</text>
<text text-anchor="start" x="376" y="-105" font-family="Times New Roman,serif" font-size="10.00">related:</text>
<text text-anchor="start" x="408" y="-105" font-family="Times New Roman,serif" font-size="10.00">9</text>
</g>
<!-- &#45;attrs2&#45;&gt;http://example.org/forward1 -->
<g id="edge3" class="edge"><title>&#45;attrs2&#45;&gt;http://example.org/forward1</title>
<path fill="none" stroke="gray" stroke-dasharray="5,2" d="M365.963,-112.419C361.731,-112.196 357.361,-111.966 353.076,-111.741"/>
</g>
<!-- http://example.org/forward2 -->
<g id="node8" class="node"><title>http://example.org/forward2</title>
<g id="a_node8"><a xlink:href="http://example.org/forward2" xlink:title="forward2">
<polygon fill="#9fb1fc" stroke="#0000ff" points="504,-105 436,-105 436,-69 504,-69 504,-105"/>
<text text-anchor="middle" x="470" y="-83.3" font-family="Times New Roman,serif" font-size="14.00">forward2</text>
</a>
</g>
</g>
<!-- http://example.org/s2 -->
<g id="node14" class="node"><title>http://example.org/s2</title>
<g id="a_node14"><a xlink:href="http://example.org/s2" xlink:title="s2">
<ellipse fill="#fffc87" stroke="#808080" cx="397" cy="-60" rx="27" ry="18"/>
<text text-anchor="middle" x="397" y="-56.3" font-family="Times New Roman,serif" font-size="14.00">s2</text>
</a>
</g>
</g>
<!-- http://example.org/forward2&#45;&gt;http://example.org/s2 -->
<g id="edge16" class="edge"><title>http://example.org/forward2&#45;&gt;http://example.org/s2</title>
<path fill="none" stroke="black" d="M435.994,-74.4485C434.252,-73.7858 432.501,-73.12 430.759,-72.4575"/>
<polygon fill="black" stroke="black" points="431.588,-69.0282 420.997,-68.7451 429.099,-75.5711 431.588,-69.0282"/>
<text text-anchor="middle" x="424.367" y="-82.0247" font-family="Times New Roman,serif" font-size="8.00">use</text>
</g>
<!-- &#45;attrs3 -->
<g id="node9" class="node"><title>&#45;attrs3</title>
<polygon fill="none" stroke="gray" points="563,-105 512,-105 512,-69 569,-69 569,-99 563,-105"/>
<polyline fill="none" stroke="gray" points="563,-105 563,-99 "/>
<polyline fill="none" stroke="gray" points="569,-99 563,-99 "/>
<text text-anchor="start" x="522.5" y="-91" font-family="Times New Roman,serif" font-size="10.00">found:</text>
<text text-anchor="start" x="554.5" y="-91" font-family="Times New Roman,serif" font-size="10.00">0</text>
<text text-anchor="start" x="522.5" y="-78" font-family="Times New Roman,serif" font-size="10.00">related:</text>
<text text-anchor="start" x="554.5" y="-78" font-family="Times New Roman,serif" font-size="10.00">0</text>
</g>
<!-- &#45;attrs3&#45;&gt;http://example.org/forward2 -->
<g id="edge4" class="edge"><title>&#45;attrs3&#45;&gt;http://example.org/forward2</title>
<path fill="none" stroke="gray" stroke-dasharray="5,2" d="M511.638,-87C509.268,-87 506.855,-87 504.447,-87"/>
</g>
<!-- http://example.org/s0&#45;&gt;http://example.org/start -->
<g id="edge8" class="edge"><title>http://example.org/s0&#45;&gt;http://example.org/start</title>
<path fill="none" stroke="black" d="M61.8577,-87C61.6998,-87 61.5417,-87 61.3836,-87"/>
<polygon fill="black" stroke="black" points="64.2405,-83.5001 54.2405,-87 64.2404,-90.5001 64.2405,-83.5001"/>
<text text-anchor="middle" x="54.3577" y="-98.0904" font-family="Times New Roman,serif" font-size="8.00">gen</text>
</g>
<!-- &#45;attrs4 -->
<g id="node11" class="node"><title>&#45;attrs4</title>
<polygon fill="none" stroke="gray" points="188.5,-59 131.5,-59 131.5,-23 194.5,-23 194.5,-53 188.5,-59"/>
<polyline fill="none" stroke="gray" points="188.5,-59 188.5,-53 "/>
<polyline fill="none" stroke="gray" points="194.5,-53 188.5,-53 "/>
<text text-anchor="start" x="142" y="-45" font-family="Times New Roman,serif" font-size="10.00">type:</text>
<text text-anchor="start" x="172" y="-45" font-family="Times New Roman,serif" font-size="10.00">Set</text>
<text text-anchor="start" x="142" y="-32" font-family="Times New Roman,serif" font-size="10.00">length:</text>
<text text-anchor="start" x="172" y="-32" font-family="Times New Roman,serif" font-size="10.00">3</text>
</g>
<!-- &#45;attrs4&#45;&gt;http://example.org/s0 -->
<g id="edge5" class="edge"><title>&#45;attrs4&#45;&gt;http://example.org/s0</title>
<path fill="none" stroke="gray" stroke-dasharray="5,2" d="M133.544,-59.1804C125.368,-64.4039 116.648,-69.9746 109.176,-74.7484"/>
</g>
<!-- http://example.org/s1&#45;&gt;http://example.org/backward1 -->
<g id="edge10" class="edge"><title>http://example.org/s1&#45;&gt;http://example.org/backward1</title>
<path fill="none" stroke="black" d="M220.428,-98.8461C214.991,-102.137 208.89,-105.83 202.762,-109.539"/>
<polygon fill="black" stroke="black" points="200.582,-106.767 193.84,-114.939 204.207,-112.755 200.582,-106.767"/>
<text text-anchor="middle" x="220.738" y="-111.943" font-family="Times New Roman,serif" font-size="8.00">gen</text>
</g>
<!-- http://example.org/s1&#45;&gt;http://example.org/s0 -->
<g id="edge11" class="edge"><title>http://example.org/s1&#45;&gt;http://example.org/s0</title>
<path fill="none" stroke="black" d="M213.872,-87C189.641,-87 153.355,-87 126.311,-87"/>
<polygon fill="black" stroke="black" points="126.08,-83.5001 116.08,-87 126.08,-90.5001 126.08,-83.5001"/>
<text text-anchor="middle" x="206.372" y="-98.0904" font-family="Times New Roman,serif" font-size="8.00">der</text>
</g>
<!-- &#45;attrs5 -->
<g id="node13" class="node"><title>&#45;attrs5</title>
<polygon fill="none" stroke="gray" points="344.5,-36 287.5,-36 287.5,-0 350.5,-0 350.5,-30 344.5,-36"/>
<polyline fill="none" stroke="gray" points="344.5,-36 344.5,-30 "/>
<polyline fill="none" stroke="gray" points="350.5,-30 344.5,-30 "/>
<text text-anchor="start" x="298" y="-22" font-family="Times New Roman,serif" font-size="10.00">type:</text>
<text text-anchor="start" x="328" y="-22" font-family="Times New Roman,serif" font-size="10.00">Set</text>
<text text-anchor="start" x="298" y="-9" font-family="Times New Roman,serif" font-size="10.00">length:</text>
<text text-anchor="start" x="328" y="-9" font-family="Times New Roman,serif" font-size="10.00">4</text>
</g>
<!-- &#45;attrs5&#45;&gt;http://example.org/s1 -->
<g id="edge6" class="edge"><title>&#45;attrs5&#45;&gt;http://example.org/s1</title>
<path fill="none" stroke="gray" stroke-dasharray="5,2" d="M296.065,-36.0101C290.743,-40.506 285.114,-45.368 280,-50 272.22,-57.0468 263.833,-65.1548 256.923,-71.9814"/>
</g>
<!-- http://example.org/s2&#45;&gt;http://example.org/forward1 -->
<g id="edge14" class="edge"><title>http://example.org/s2&#45;&gt;http://example.org/forward1</title>
<path fill="none" stroke="black" d="M377.213,-72.3596C370.768,-76.5998 363.323,-81.4984 355.978,-86.3305"/>
<polygon fill="black" stroke="black" points="353.898,-83.5088 347.468,-91.929 357.746,-89.3567 353.898,-83.5088"/>
<text text-anchor="middle" x="378.088" y="-85.4341" font-family="Times New Roman,serif" font-size="8.00">gen</text>
</g>
<!-- http://example.org/s2&#45;&gt;http://example.org/s1 -->
<g id="edge15" class="edge"><title>http://example.org/s2&#45;&gt;http://example.org/s1</title>
<path fill="none" stroke="black" d="M370.57,-64.4585C345.081,-68.9273 305.639,-75.8425 277.161,-80.8353"/>
<polygon fill="black" stroke="black" points="276.457,-77.4053 267.212,-82.5798 277.666,-84.3002 276.457,-77.4053"/>
<text text-anchor="middle" x="365.426" y="-76.6489" font-family="Times New Roman,serif" font-size="8.00">der</text>
</g>
<!-- &#45;attrs6 -->
<g id="node15" class="node"><title>&#45;attrs6</title>
<polygon fill="none" stroke="gray" points="495.5,-51 438.5,-51 438.5,-15 501.5,-15 501.5,-45 495.5,-51"/>
<polyline fill="none" stroke="gray" points="495.5,-51 495.5,-45 "/>
<polyline fill="none" stroke="gray" points="501.5,-45 495.5,-45 "/>
<text text-anchor="start" x="449" y="-37" font-family="Times New Roman,serif" font-size="10.00">type:</text>
<text text-anchor="start" x="479" y="-37" font-family="Times New Roman,serif" font-size="10.00">Set</text>
<text text-anchor="start" x="449" y="-24" font-family="Times New Roman,serif" font-size="10.00">length:</text>
<text text-anchor="start" x="479" y="-24" font-family="Times New Roman,serif" font-size="10.00">13</text>
</g>
<!-- &#45;attrs6&#45;&gt;http://example.org/s2 -->
<g id="edge7" class="edge"><title>&#45;attrs6&#45;&gt;http://example.org/s2</title>
<path fill="none" stroke="gray" stroke-dasharray="5,2" d="M438.478,-44.6071C432.614,-46.8368 426.566,-49.1368 420.99,-51.2572"/>
</g>
</g>
</svg>
