<?xml version="1.0" encoding="UTF-8" standalone="no"?>
<!DOCTYPE svg PUBLIC "-//W3C//DTD SVG 1.1//EN"
 "http://www.w3.org/Graphics/SVG/1.1/DTD/svg11.dtd">
<!-- Generated by graphviz version 2.38.0 (20140413.2041)
 -->
<!-- Title: PROV Pages: 1 -->
<svg width="577pt" height="152pt"
 viewBox="0.00 0.00 577.00 152.00" xmlns="http://www.w3.org/2000/svg" xmlns:xlink="http://www.w3.org/1999/xlink">
<g id="graph0" class="graph" transform="scale(1 1) rotate(0) translate(4 148)">
<title>PROV</title>
<polygon fill="white" stroke="none" points="-4,4 -4,-148 573,-148 573,4 -4,4"/>
<!-- http://example.org/start -->
<g id="node1" class="node"><title>http://example.org/start</title>
<g id="a_node1"><a xlink:href="http://example.org/start" xlink:title="start">
<polygon fill="#9fb1fc" stroke="#0000ff" points="54,-90 0,-90 0,-54 54,-54 54,-90"/>
<text text-anchor="middle" x="27" y="-68.3" font-family="Times New Roman,serif" font-size="14.00">start</text>
</a>
</g>
</g>
<!-- http://example.org/backward1 -->
<g id="node2" class="node"><title>http://example.org/backward1</title>
<g id="a_node2"><a xlink:href="http://example.org/backward1" xlink:title="backward1">
<polygon fill="#9fb1fc" stroke="#0000ff" points="202,-136 124,-136 124,-100 202,-100 202,-136"/>
<text text-anchor="middle" x="163" y="-114.3" font-family="Times New Roman,serif" font-size="14.00">backward1</text>
</a>
</g>
</g>
<!-- http://example.org/s0 -->
<g id="node10" class="node"><title>http://example.org/s0</title>
<g id="a_node10"><a xlink:href="http://example.org/s0" xlink:title="s0">
<ellipse fill="#fffc87" stroke="#808080" cx="89" cy="-72" rx="27" ry="18"/>
<text text-anchor="middle" x="89" y="-68.3" font-family="Times New Roman,serif" font-size="14.00">s0</text>
</a>
</g>
</g>
<!-- http://example.org/backward1&#45;&gt;http://example.org/s0 -->
<g id="edge9" class="edge"><title>http://example.org/backward1&#45;&gt;http://example.org/s0</title>
<path fill="none" stroke="black" d="M133.544,-99.8196C128.306,-96.4733 122.845,-92.9845 117.632,-89.654"/>
<polygon fill="black" stroke="black" points="119.488,-86.6861 109.176,-84.2516 115.719,-92.585 119.488,-86.6861"/>
<text text-anchor="middle" x="120.23" y="-104.829" font-family="Times New Roman,serif" font-size="8.00">use</text>
</g>
<!-- &#45;attrs0 -->
<g id="node3" class="node"><title>&#45;attrs0</title>
<polygon fill="none" stroke="gray" points="266,-144 210,-144 210,-108 272,-108 272,-138 266,-144"/>
<polyline fill="none" stroke="gray" points="266,-144 266,-138 "/>
<polyline fill="none" stroke="gray" points="272,-138 266,-138 "/>
<text text-anchor="start" x="220" y="-130" font-family="Times New Roman,serif" font-size="10.00">found:</text>
<text text-anchor="start" x="252" y="-130" font-family="Times New Roman,serif" font-size="10.00">21</text>
<text text-anchor="start" x="220" y="-117" font-family="Times New Roman,serif" font-size="10.00">related:</text>
<text text-anchor="start" x="252" y="-117" font-family="Times New Roman,serif" font-size="10.00">1</text>
</g>
<!-- &#45;attrs0&#45;&gt;http://example.org/backward1 -->
<g id="edge1" class="edge"><title>&#45;attrs0&#45;&gt;http://example.org/backward1</title>
<path fill="none" stroke="gray" stroke-dasharray="5,2" d="M209.963,-122.838C207.39,-122.567 204.767,-122.291 202.143,-122.015"/>
</g>
<!-- http://example.org/forward1 -->
<g id="node4" class="node"><title>http://example.org/forward1</title>
<g id="a_node4"><a xlink:href="http://example.org/forward1" xlink:title="forward1">
<polygon fill="#9fb1fc" stroke="#0000ff" points="348,-136 280,-136 280,-100 348,-100 348,-136"/>
<text text-anchor="middle" x="314" y="-114.3" font-family="Times New Roman,serif" font-size="14.00">forward1</text>
</a>
</g>
</g>
<!-- http://example.org/s1 -->
<g id="node12" class="node"><title>http://example.org/s1</title>
<g id="a_node12"><a xlink:href="http://example.org/s1" xlink:title="s1">
<ellipse fill="#fffc87" stroke="#808080" cx="241" cy="-72" rx="27" ry="18"/>
<text text-anchor="middle" x="241" y="-68.3" font-family="Times New Roman,serif" font-size="14.00">s1</text>
</a>
</g>
</g>
<!-- http://example.org/forward1&#45;&gt;http://example.org/s1 -->
<g id="edge12" class="edge"><title>http://example.org/forward1&#45;&gt;http://example.org/s1</title>
<path fill="none" stroke="black" d="M284.939,-99.8196C279.9,-96.5549 274.652,-93.1546 269.625,-89.898"/>
<polygon fill="black" stroke="black" points="271.206,-86.7517 260.91,-84.2516 267.4,-92.6265 271.206,-86.7517"/>
<text text-anchor="middle" x="271.581" y="-104.744" font-family="Times New Roman,serif" font-size="8.00">use</text>
</g>
<!-- &#45;attrs1 -->
<g id="node5" class="node"><title>&#45;attrs1</title>
<polygon fill="none" stroke="gray" points="412,-144 356,-144 356,-108 418,-108 418,-138 412,-144"/>
<polyline fill="none" stroke="gray" points="412,-144 412,-138 "/>
<polyline fill="none" stroke="gray" points="418,-138 412,-138 "/>
<text text-anchor="start" x="366" y="-130" font-family="Times New Roman,serif" font-size="10.00">found:</text>
<text text-anchor="start" x="398" y="-130" font-family="Times New Roman,serif" font-size="10.00">41</text>
<text text-anchor="start" x="366" y="-117" font-family="Times New Roman,serif" font-size="10.00">related:</text>
<text text-anchor="start" x="398" y="-117" font-family="Times New Roman,serif" font-size="10.00">9</text>
</g>
<!-- &#45;attrs1&#45;&gt;http://example.org/forward1 -->
<g id="edge2" class="edge"><title>&#45;attrs1&#45;&gt;http://example.org/forward1</title>
<path fill="none" stroke="gray" stroke-dasharray="5,2" d="M355.89,-122.607C353.32,-122.318 350.711,-122.024 348.119,-121.732"/>
</g>
<!-- http://example.org/backward2 -->
<g id="node6" class="node"><title>http://example.org/backward2</title>
<g id="a_node6"><a xlink:href="http://example.org/backward2" xlink:title="backward2">
<polygon fill="#9fb1fc" stroke="#0000ff" points="504,-144 426,-144 426,-108 504,-108 504,-144"/>
<text text-anchor="middle" x="465" y="-122.3" font-family="Times New Roman,serif" font-size="14.00">backward2</text>
</a>
</g>
</g>
<!-- http://example.org/s2 -->
<g id="node14" class="node"><title>http://example.org/s2</title>
<g id="a_node14"><a xlink:href="http://example.org/s2" xlink:title="s2">
<ellipse fill="#fffc87" stroke="#808080" cx="387" cy="-72" rx="27" ry="18"/>
<text text-anchor="middle" x="387" y="-68.3" font-family="Times New Roman,serif" font-size="14.00">s2</text>
</a>
</g>
</g>
<!-- http://example.org/backward2&#45;&gt;http://example.org/s2 -->
<g id="edge15" class="edge"><title>http://example.org/backward2&#45;&gt;http://example.org/s2</title>
<path fill="none" stroke="black" d="M438.27,-107.718C430.718,-102.352 422.441,-96.4714 414.823,-91.0583"/>
<polygon fill="black" stroke="black" points="416.443,-87.9163 406.264,-84.9773 412.389,-93.6225 416.443,-87.9163"/>
<text text-anchor="middle" x="424.632" y="-112.064" font-family="Times New Roman,serif" font-size="8.00">use</text>
</g>
<!-- &#45;attrs2 -->
<g id="node7" class="node"><title>&#45;attrs2</title>
<polygon fill="none" stroke="gray" points="563,-144 512,-144 512,-108 569,-108 569,-138 563,-144"/>
<polyline fill="none" stroke="gray" points="563,-144 563,-138 "/>
<polyline fill="none" stroke="gray" points="569,-138 563,-138 "/>
<text text-anchor="start" x="522.5" y="-130" font-family="Times New Roman,serif" font-size="10.00">found:</text>
<text text-anchor="start" x="554.5" y="-130" font-family="Times New Roman,serif" font-size="10.00">0</text>
<text text-anchor="start" x="522.5" y="-117" font-family="Times New Roman,serif" font-size="10.00">related:</text>
<text text-anchor="start" x="554.5" y="-117" font-family="Times New Roman,serif" font-size="10.00">0</text>
</g>
<!-- &#45;attrs2&#45;&gt;http://example.org/backward2 -->
<g id="edge3" class="edge"><title>&#45;attrs2&#45;&gt;http://example.org/backward2</title>
<path fill="none" stroke="gray" stroke-dasharray="5,2" d="M511.713,-126C509.192,-126 506.612,-126 504.023,-126"/>
</g>
<!-- http://example.org/forward2 -->
<g id="node8" class="node"><title>http://example.org/forward2</title>
<g id="a_node8"><a xlink:href="http://example.org/forward2" xlink:title="forward2">
<polygon fill="#9fb1fc" stroke="#0000ff" points="499,-90 431,-90 431,-54 499,-54 499,-90"/>
<text text-anchor="middle" x="465" y="-68.3" font-family="Times New Roman,serif" font-size="14.00">forward2</text>
</a>
</g>
</g>
<!-- http://example.org/forward2&#45;&gt;http://example.org/s2 -->
<g id="edge16" class="edge"><title>http://example.org/forward2&#45;&gt;http://example.org/s2</title>
<path fill="none" stroke="black" d="M430.886,-72C428.699,-72 426.489,-72 424.287,-72"/>
<polygon fill="black" stroke="black" points="424.152,-68.5001 414.152,-72 424.152,-75.5001 424.152,-68.5001"/>
<text text-anchor="middle" x="423.386" y="-83.0904" font-family="Times New Roman,serif" font-size="8.00">use</text>
</g>
<!-- &#45;attrs3 -->
<g id="node9" class="node"><title>&#45;attrs3</title>
<polygon fill="none" stroke="gray" points="563,-90 512,-90 512,-54 569,-54 569,-84 563,-90"/>
<polyline fill="none" stroke="gray" points="563,-90 563,-84 "/>
<polyline fill="none" stroke="gray" points="569,-84 563,-84 "/>
<text text-anchor="start" x="522.5" y="-76" font-family="Times New Roman,serif" font-size="10.00">found:</text>
<text text-anchor="start" x="554.5" y="-76" font-family="Times New Roman,serif" font-size="10.00">0</text>
<text text-anchor="start" x="522.5" y="-63" font-family="Times New Roman,serif" font-size="10.00">related:</text>
<text text-anchor="start" x="554.5" y="-63" font-family="Times New Roman,serif" font-size="10.00">0</text>
</g>
<!-- &#45;attrs3&#45;&gt;http://example.org/forward2 -->
<g id="edge4" class="edge"><title>&#45;attrs3&#45;&gt;http://example.org/forward2</title>
<path fill="none" stroke="gray" stroke-dasharray="5,2" d="M511.713,-72C507.648,-72 503.427,-72 499.266,-72"/>
</g>
<!-- http://example.org/s0&#45;&gt;http://example.org/start -->
<g id="edge8" class="edge"><title>http://example.org/s0&#45;&gt;http://example.org/start</title>
<path fill="none" stroke="black" d="M61.8577,-72C61.6998,-72 61.5417,-72 61.3836,-72"/>
<polygon fill="black" stroke="black" points="64.2405,-68.5001 54.2405,-72 64.2404,-75.5001 64.2405,-68.5001"/>
<text text-anchor="middle" x="54.3577" y="-83.0904" font-family="Times New Roman,serif" font-size="8.00">gen</text>
</g>
<!-- &#45;attrs4 -->
<g id="node11" class="node"><title>&#45;attrs4</title>
<polygon fill="none" stroke="gray" points="188.5,-44 131.5,-44 131.5,-8 194.5,-8 194.5,-38 188.5,-44"/>
<polyline fill="none" stroke="gray" points="188.5,-44 188.5,-38 "/>
<polyline fill="none" stroke="gray" points="194.5,-38 188.5,-38 "/>
<text text-anchor="start" x="142" y="-30" font-family="Times New Roman,serif" font-size="10.00">type:</text>
<text text-anchor="start" x="172" y="-30" font-family="Times New Roman,serif" font-size="10.00">Set</text>
<text text-anchor="start" x="142" y="-17" font-family="Times New Roman,serif" font-size="10.00">length:</text>
<text text-anchor="start" x="172" y="-17" font-family="Times New Roman,serif" font-size="10.00">2</text>
</g>
<!-- &#45;attrs4&#45;&gt;http://example.org/s0 -->
<g id="edge5" class="edge"><title>&#45;attrs4&#45;&gt;http://example.org/s0</title>
<path fill="none" stroke="gray" stroke-dasharray="5,2" d="M133.544,-44.1804C125.368,-49.4039 116.648,-54.9746 109.176,-59.7484"/>
</g>
<!-- http://example.org/s1&#45;&gt;http://example.org/backward1 -->
<g id="edge10" class="edge"><title>http://example.org/s1&#45;&gt;http://example.org/backward1</title>
<path fill="none" stroke="black" d="M220.428,-83.8461C214.991,-87.137 208.89,-90.8299 202.762,-94.5388"/>
<polygon fill="black" stroke="black" points="200.582,-91.7669 193.84,-99.9392 204.207,-97.7554 200.582,-91.7669"/>
<text text-anchor="middle" x="220.738" y="-96.9429" font-family="Times New Roman,serif" font-size="8.00">gen</text>
</g>
<!-- http://example.org/s1&#45;&gt;http://example.org/s0 -->
<g id="edge11" class="edge"><title>http://example.org/s1&#45;&gt;http://example.org/s0</title>
<path fill="none" stroke="black" d="M213.872,-72C189.641,-72 153.355,-72 126.311,-72"/>
<polygon fill="black" stroke="black" points="126.08,-68.5001 116.08,-72 126.08,-75.5001 126.08,-68.5001"/>
<text text-anchor="middle" x="206.372" y="-83.0904" font-family="Times New Roman,serif" font-size="8.00">der</text>
</g>
<!-- &#45;attrs5 -->
<g id="node13" class="node"><title>&#45;attrs5</title>
<polygon fill="none" stroke="gray" points="339.5,-44 282.5,-44 282.5,-8 345.5,-8 345.5,-38 339.5,-44"/>
<polyline fill="none" stroke="gray" points="339.5,-44 339.5,-38 "/>
<polyline fill="none" stroke="gray" points="345.5,-38 339.5,-38 "/>
<text text-anchor="start" x="293" y="-30" font-family="Times New Roman,serif" font-size="10.00">type:</text>
<text text-anchor="start" x="323" y="-30" font-family="Times New Roman,serif" font-size="10.00">Set</text>
<text text-anchor="start" x="293" y="-17" font-family="Times New Roman,serif" font-size="10.00">length:</text>
<text text-anchor="start" x="323" y="-17" font-family="Times New Roman,serif" font-size="10.00">3</text>
</g>
<!-- &#45;attrs5&#45;&gt;http://example.org/s1 -->
<g id="edge6" class="edge"><title>&#45;attrs5&#45;&gt;http://example.org/s1</title>
<path fill="none" stroke="gray" stroke-dasharray="5,2" d="M284.939,-44.1804C276.877,-49.4039 268.278,-54.9746 260.91,-59.7484"/>
</g>
<!-- http://example.org/s2&#45;&gt;http://example.org/forward1 -->
<g id="edge13" class="edge"><title>http://example.org/s2&#45;&gt;http://example.org/forward1</title>
<path fill="none" stroke="black" d="M366.973,-84.3272C362.121,-87.4708 356.741,-90.9562 351.336,-94.4584"/>
<polygon fill="black" stroke="black" points="349.382,-91.5541 342.892,-99.9289 353.188,-97.4289 349.382,-91.5541"/>
<text text-anchor="middle" x="367.742" y="-97.4074" font-family="Times New Roman,serif" font-size="8.00">gen</text>
</g>
<!-- http://example.org/s2&#45;&gt;http://example.org/s1 -->
<g id="edge14" class="edge"><title>http://example.org/s2&#45;&gt;http://example.org/s1</title>
<path fill="none" stroke="black" d="M359.923,-72C337.128,-72 303.793,-72 278.376,-72"/>
<polygon fill="black" stroke="black" points="278.37,-68.5001 268.37,-72 278.37,-75.5001 278.37,-68.5001"/>
<text text-anchor="middle" x="352.423" y="-83.0904" font-family="Times New Roman,serif" font-size="8.00">der</text>
</g>
<!-- &#45;attrs6 -->
<g id="node15" class="node"><title>&#45;attrs6</title>
<polygon fill="none" stroke="gray" points="490.5,-36 433.5,-36 433.5,-0 496.5,-0 496.5,-30 490.5,-36"/>
<polyline fill="none" stroke="gray" points="490.5,-36 490.5,-30 "/>
<polyline fill="none" stroke="gray" points="496.5,-30 490.5,-30 "/>
<text text-anchor="start" x="444" y="-22" font-family="Times New Roman,serif" font-size="10.00">type:</text>
<text text-anchor="start" x="474" y="-22" font-family="Times New Roman,serif" font-size="10.00">Set</text>
<text text-anchor="start" x="444" y="-9" font-family="Times New Roman,serif" font-size="10.00">length:</text>
<text text-anchor="start" x="474" y="-9" font-family="Times New Roman,serif" font-size="10.00">12</text>
</g>
<!-- &#45;attrs6&#45;&gt;http://example.org/s2 -->
<g id="edge7" class="edge"><title>&#45;attrs6&#45;&gt;http://example.org/s2</title>
<path fill="none" stroke="gray" stroke-dasharray="5,2" d="M438.27,-36.2819C427.763,-43.7477 415.853,-52.2096 406.264,-59.0227"/>
</g>
</g>
</svg>
