<?xml version="1.0" encoding="UTF-8" standalone="no"?>
<!DOCTYPE svg PUBLIC "-//W3C//DTD SVG 1.1//EN"
 "http://www.w3.org/Graphics/SVG/1.1/DTD/svg11.dtd">
<!-- Generated by graphviz version 2.38.0 (20140413.2041)
 -->
<!-- Title: PROV Pages: 1 -->
<svg width="642pt" height="324pt"
 viewBox="0.00 0.00 642.00 324.00" xmlns="http://www.w3.org/2000/svg" xmlns:xlink="http://www.w3.org/1999/xlink">
<g id="graph0" class="graph" transform="scale(1 1) rotate(0) translate(4 320)">
<title>PROV</title>
<polygon fill="white" stroke="none" points="-4,4 -4,-320 638,-320 638,4 -4,4"/>
<!-- http://example.org/union9 -->
<g id="node1" class="node"><title>http://example.org/union9</title>
<g id="a_node1"><a xlink:href="http://example.org/union9" xlink:title="union9">
<polygon fill="#9fb1fc" stroke="#0000ff" points="490.5,-210.5 436.5,-210.5 436.5,-174.5 490.5,-174.5 490.5,-210.5"/>
<text text-anchor="middle" x="463.5" y="-188.8" font-family="Times New Roman,serif" font-size="14.00">union9</text>
</a>
</g>
</g>
<!-- http://example.org/s6 -->
<g id="node14" class="node"><title>http://example.org/s6</title>
<g id="a_node14"><a xlink:href="http://example.org/s6" xlink:title="s6">
<ellipse fill="#fffc87" stroke="#808080" cx="394.5" cy="-131.5" rx="27" ry="18"/>
<text text-anchor="middle" x="394.5" y="-127.8" font-family="Times New Roman,serif" font-size="14.00">s6</text>
</a>
</g>
</g>
<!-- http://example.org/union9&#45;&gt;http://example.org/s6 -->
<g id="edge12" class="edge"><title>http://example.org/union9&#45;&gt;http://example.org/s6</title>
<path fill="none" stroke="black" d="M442.107,-174.492C438.398,-171.183 434.573,-167.748 431,-164.5 426.978,-160.844 422.726,-156.932 418.615,-153.126"/>
<polygon fill="black" stroke="black" points="420.691,-150.277 410.983,-146.032 415.925,-155.404 420.691,-150.277"/>
<text text-anchor="middle" x="427.861" y="-177.287" font-family="Times New Roman,serif" font-size="8.00">use</text>
</g>
<!-- http://example.org/s8 -->
<g id="node16" class="node"><title>http://example.org/s8</title>
<g id="a_node16"><a xlink:href="http://example.org/s8" xlink:title="s8">
<ellipse fill="#fffc87" stroke="#808080" cx="394.5" cy="-238.5" rx="27" ry="18"/>
<text text-anchor="middle" x="394.5" y="-234.8" font-family="Times New Roman,serif" font-size="14.00">s8</text>
</a>
</g>
</g>
<!-- http://example.org/union9&#45;&gt;http://example.org/s8 -->
<g id="edge15" class="edge"><title>http://example.org/union9&#45;&gt;http://example.org/s8</title>
<path fill="none" stroke="black" d="M436.404,-210.417C431.837,-213.553 427.076,-216.821 422.485,-219.973"/>
<polygon fill="black" stroke="black" points="420.223,-217.28 413.96,-225.826 424.185,-223.051 420.223,-217.28"/>
<text text-anchor="middle" x="437.574" y="-223.471" font-family="Times New Roman,serif" font-size="8.00">use</text>
</g>
<!-- &#45;attrs0 -->
<g id="node2" class="node"><title>&#45;attrs0</title>
<polygon fill="none" stroke="gray" points="555,-156.5 504,-156.5 504,-120.5 561,-120.5 561,-150.5 555,-156.5"/>
<polyline fill="none" stroke="gray" points="555,-156.5 555,-150.5 "/>
<polyline fill="none" stroke="gray" points="561,-150.5 555,-150.5 "/>
<text text-anchor="start" x="514.5" y="-142.5" font-family="Times New Roman,serif" font-size="10.00">found:</text>
<text text-anchor="start" x="546.5" y="-142.5" font-family="Times New Roman,serif" font-size="10.00">0</text>
<text text-anchor="start" x="514.5" y="-129.5" font-family="Times New Roman,serif" font-size="10.00">related:</text>
<text text-anchor="start" x="546.5" y="-129.5" font-family="Times New Roman,serif" font-size="10.00">0</text>
</g>
<!-- &#45;attrs0&#45;&gt;http://example.org/union9 -->
<g id="edge1" class="edge"><title>&#45;attrs0&#45;&gt;http://example.org/union9</title>
<path fill="none" stroke="gray" stroke-dasharray="5,2" d="M508.817,-156.782C501.832,-162.412 494.143,-168.608 487.16,-174.237"/>
</g>
<!-- http://example.org/forward6 -->
<g id="node3" class="node"><title>http://example.org/forward6</title>
<g id="a_node3"><a xlink:href="http://example.org/forward6" xlink:title="forward6">
<polygon fill="#9fb1fc" stroke="#0000ff" points="353,-103.5 285,-103.5 285,-67.5 353,-67.5 353,-103.5"/>
<text text-anchor="middle" x="319" y="-81.8" font-family="Times New Roman,serif" font-size="14.00">forward6</text>
</a>
</g>
</g>
<!-- http://example.org/s5 -->
<g id="node18" class="node"><title>http://example.org/s5</title>
<g id="a_node18"><a xlink:href="http://example.org/s5" xlink:title="s5">
<ellipse fill="#fffc87" stroke="#808080" cx="241" cy="-100.5" rx="27" ry="18"/>
<text text-anchor="middle" x="241" y="-96.8" font-family="Times New Roman,serif" font-size="14.00">s5</text>
</a>
</g>
</g>
<!-- http://example.org/forward6&#45;&gt;http://example.org/s5 -->
<g id="edge18" class="edge"><title>http://example.org/forward6&#45;&gt;http://example.org/s5</title>
<path fill="none" stroke="black" d="M284.886,-92.0356C282.296,-92.5468 279.675,-93.0641 277.073,-93.5777"/>
<polygon fill="black" stroke="black" points="276.364,-90.15 267.231,-95.5202 277.72,-97.0175 276.364,-90.15"/>
<text text-anchor="middle" x="280.044" y="-104.332" font-family="Times New Roman,serif" font-size="8.00">use</text>
</g>
<!-- &#45;attrs1 -->
<g id="node4" class="node"><title>&#45;attrs1</title>
<polygon fill="none" stroke="gray" points="417,-95.5 366,-95.5 366,-59.5 423,-59.5 423,-89.5 417,-95.5"/>
<polyline fill="none" stroke="gray" points="417,-95.5 417,-89.5 "/>
<polyline fill="none" stroke="gray" points="423,-89.5 417,-89.5 "/>
<text text-anchor="start" x="376.5" y="-81.5" font-family="Times New Roman,serif" font-size="10.00">found:</text>
<text text-anchor="start" x="408.5" y="-81.5" font-family="Times New Roman,serif" font-size="10.00">0</text>
<text text-anchor="start" x="376.5" y="-68.5" font-family="Times New Roman,serif" font-size="10.00">related:</text>
<text text-anchor="start" x="408.5" y="-68.5" font-family="Times New Roman,serif" font-size="10.00">0</text>
</g>
<!-- &#45;attrs1&#45;&gt;http://example.org/forward6 -->
<g id="edge2" class="edge"><title>&#45;attrs1&#45;&gt;http://example.org/forward6</title>
<path fill="none" stroke="gray" stroke-dasharray="5,2" d="M365.713,-80.5245C361.648,-80.9669 357.427,-81.4264 353.266,-81.8793"/>
</g>
<!-- http://example.org/backward8 -->
<g id="node5" class="node"><title>http://example.org/backward8</title>
<g id="a_node5"><a xlink:href="http://example.org/backward8" xlink:title="backward8">
<polygon fill="#9fb1fc" stroke="#0000ff" points="358,-302.5 280,-302.5 280,-266.5 358,-266.5 358,-302.5"/>
<text text-anchor="middle" x="319" y="-280.8" font-family="Times New Roman,serif" font-size="14.00">backward8</text>
</a>
</g>
</g>
<!-- http://example.org/s7 -->
<g id="node20" class="node"><title>http://example.org/s7</title>
<g id="a_node20"><a xlink:href="http://example.org/s7" xlink:title="s7">
<ellipse fill="#fffc87" stroke="#808080" cx="241" cy="-223.5" rx="27" ry="18"/>
<text text-anchor="middle" x="241" y="-219.8" font-family="Times New Roman,serif" font-size="14.00">s7</text>
</a>
</g>
</g>
<!-- http://example.org/backward8&#45;&gt;http://example.org/s7 -->
<g id="edge21" class="edge"><title>http://example.org/backward8&#45;&gt;http://example.org/s7</title>
<path fill="none" stroke="black" d="M295.197,-266.198C286.36,-259.105 276.209,-250.958 267.16,-243.694"/>
<polygon fill="black" stroke="black" points="269.217,-240.857 259.228,-237.328 264.836,-246.317 269.217,-240.857"/>
<text text-anchor="middle" x="281.217" y="-269.734" font-family="Times New Roman,serif" font-size="8.00">use</text>
</g>
<!-- &#45;attrs2 -->
<g id="node6" class="node"><title>&#45;attrs2</title>
<polygon fill="none" stroke="gray" points="417,-310.5 366,-310.5 366,-274.5 423,-274.5 423,-304.5 417,-310.5"/>
<polyline fill="none" stroke="gray" points="417,-310.5 417,-304.5 "/>
<polyline fill="none" stroke="gray" points="423,-304.5 417,-304.5 "/>
<text text-anchor="start" x="376.5" y="-296.5" font-family="Times New Roman,serif" font-size="10.00">found:</text>
<text text-anchor="start" x="408.5" y="-296.5" font-family="Times New Roman,serif" font-size="10.00">0</text>
<text text-anchor="start" x="376.5" y="-283.5" font-family="Times New Roman,serif" font-size="10.00">related:</text>
<text text-anchor="start" x="408.5" y="-283.5" font-family="Times New Roman,serif" font-size="10.00">0</text>
</g>
<!-- &#45;attrs2&#45;&gt;http://example.org/backward8 -->
<g id="edge3" class="edge"><title>&#45;attrs2&#45;&gt;http://example.org/backward8</title>
<path fill="none" stroke="gray" stroke-dasharray="5,2" d="M365.713,-289.476C363.192,-289.201 360.612,-288.92 358.023,-288.639"/>
</g>
<!-- http://example.org/forward5 -->
<g id="node7" class="node"><title>http://example.org/forward5</title>
<g id="a_node7"><a xlink:href="http://example.org/forward5" xlink:title="forward5">
<polygon fill="#9fb1fc" stroke="#0000ff" points="197,-168.5 129,-168.5 129,-132.5 197,-132.5 197,-168.5"/>
<text text-anchor="middle" x="163" y="-146.8" font-family="Times New Roman,serif" font-size="14.00">forward5</text>
</a>
</g>
</g>
<!-- http://example.org/s0 -->
<g id="node22" class="node"><title>http://example.org/s0</title>
<g id="a_node22"><a xlink:href="http://example.org/s0" xlink:title="s0">
<ellipse fill="#fffc87" stroke="#808080" cx="89" cy="-150.5" rx="27" ry="18"/>
<text text-anchor="middle" x="89" y="-146.8" font-family="Times New Roman,serif" font-size="14.00">s0</text>
</a>
</g>
</g>
<!-- http://example.org/forward5&#45;&gt;http://example.org/s0 -->
<g id="edge24" class="edge"><title>http://example.org/forward5&#45;&gt;http://example.org/s0</title>
<path fill="none" stroke="black" d="M128.95,-150.5C128.146,-150.5 127.34,-150.5 126.534,-150.5"/>
<polygon fill="black" stroke="black" points="126.162,-147 116.162,-150.5 126.162,-154 126.162,-147"/>
<text text-anchor="middle" x="121.45" y="-161.59" font-family="Times New Roman,serif" font-size="8.00">use</text>
</g>
<!-- &#45;attrs3 -->
<g id="node8" class="node"><title>&#45;attrs3</title>
<polygon fill="none" stroke="gray" points="266,-172.5 210,-172.5 210,-136.5 272,-136.5 272,-166.5 266,-172.5"/>
<polyline fill="none" stroke="gray" points="266,-172.5 266,-166.5 "/>
<polyline fill="none" stroke="gray" points="272,-166.5 266,-166.5 "/>
<text text-anchor="start" x="220" y="-158.5" font-family="Times New Roman,serif" font-size="10.00">found:</text>
<text text-anchor="start" x="252" y="-158.5" font-family="Times New Roman,serif" font-size="10.00">41</text>
<text text-anchor="start" x="220" y="-145.5" font-family="Times New Roman,serif" font-size="10.00">related:</text>
<text text-anchor="start" x="252" y="-145.5" font-family="Times New Roman,serif" font-size="10.00">9</text>
</g>
<!-- &#45;attrs3&#45;&gt;http://example.org/forward5 -->
<g id="edge4" class="edge"><title>&#45;attrs3&#45;&gt;http://example.org/forward5</title>
<path fill="none" stroke="gray" stroke-dasharray="5,2" d="M209.963,-152.919C205.731,-152.696 201.361,-152.466 197.076,-152.241"/>
</g>
<!-- http://example.org/backward7 -->
<g id="node9" class="node"><title>http://example.org/backward7</title>
<g id="a_node9"><a xlink:href="http://example.org/backward7" xlink:title="backward7">
<polygon fill="#9fb1fc" stroke="#0000ff" points="202,-260.5 124,-260.5 124,-224.5 202,-224.5 202,-260.5"/>
<text text-anchor="middle" x="163" y="-238.8" font-family="Times New Roman,serif" font-size="14.00">backward7</text>
</a>
</g>
</g>
<!-- http://example.org/backward7&#45;&gt;http://example.org/s0 -->
<g id="edge27" class="edge"><title>http://example.org/backward7&#45;&gt;http://example.org/s0</title>
<path fill="none" stroke="black" d="M137.874,-224.42C132.974,-220.154 128.078,-215.409 124,-210.5 115.597,-200.385 108.146,-187.906 102.377,-176.953"/>
<polygon fill="black" stroke="black" points="105.394,-175.163 97.7588,-167.818 99.1473,-178.321 105.394,-175.163"/>
<text text-anchor="middle" x="123.66" y="-227.312" font-family="Times New Roman,serif" font-size="8.00">use</text>
</g>
<!-- &#45;attrs4 -->
<g id="node10" class="node"><title>&#45;attrs4</title>
<polygon fill="none" stroke="gray" points="266,-295.5 210,-295.5 210,-259.5 272,-259.5 272,-289.5 266,-295.5"/>
<polyline fill="none" stroke="gray" points="266,-295.5 266,-289.5 "/>
<polyline fill="none" stroke="gray" points="272,-289.5 266,-289.5 "/>
<text text-anchor="start" x="220" y="-281.5" font-family="Times New Roman,serif" font-size="10.00">found:</text>
<text text-anchor="start" x="252" y="-281.5" font-family="Times New Roman,serif" font-size="10.00">21</text>
<text text-anchor="start" x="220" y="-268.5" font-family="Times New Roman,serif" font-size="10.00">related:</text>
<text text-anchor="start" x="252" y="-268.5" font-family="Times New Roman,serif" font-size="10.00">1</text>
</g>
<!-- &#45;attrs4&#45;&gt;http://example.org/backward7 -->
<g id="edge5" class="edge"><title>&#45;attrs4&#45;&gt;http://example.org/backward7</title>
<path fill="none" stroke="gray" stroke-dasharray="5,2" d="M209.963,-263.667C207.39,-262.482 204.767,-261.274 202.143,-260.066"/>
</g>
<!-- http://example.org/start -->
<g id="node11" class="node"><title>http://example.org/start</title>
<g id="a_node11"><a xlink:href="http://example.org/start" xlink:title="start">
<polygon fill="#9fb1fc" stroke="#0000ff" points="54,-168.5 0,-168.5 0,-132.5 54,-132.5 54,-168.5"/>
<text text-anchor="middle" x="27" y="-146.8" font-family="Times New Roman,serif" font-size="14.00">start</text>
</a>
</g>
</g>
<!-- http://example.org/s9 -->
<g id="node12" class="node"><title>http://example.org/s9</title>
<g id="a_node12"><a xlink:href="http://example.org/s9" xlink:title="s9">
<ellipse fill="#fffc87" stroke="#808080" cx="532.5" cy="-192.5" rx="27" ry="18"/>
<text text-anchor="middle" x="532.5" y="-188.8" font-family="Times New Roman,serif" font-size="14.00">s9</text>
</a>
</g>
</g>
<!-- http://example.org/s9&#45;&gt;http://example.org/union9 -->
<g id="edge13" class="edge"><title>http://example.org/s9&#45;&gt;http://example.org/union9</title>
<path fill="none" stroke="black" d="M507.311,-185.987C505.203,-185.877 503.041,-185.805 500.863,-185.772"/>
<polygon fill="black" stroke="black" points="500.649,-182.274 490.692,-185.895 500.733,-189.274 500.649,-182.274"/>
<text text-anchor="middle" x="499.169" y="-196.685" font-family="Times New Roman,serif" font-size="8.00">gen</text>
</g>
<!-- http://example.org/s9&#45;&gt;http://example.org/union9 -->
<g id="edge16" class="edge"><title>http://example.org/s9&#45;&gt;http://example.org/union9</title>
<path fill="none" stroke="black" d="M507.311,-199.013C505.203,-199.123 503.041,-199.195 500.863,-199.228"/>
<polygon fill="black" stroke="black" points="500.733,-195.726 490.692,-199.105 500.649,-202.726 500.733,-195.726"/>
<text text-anchor="middle" x="500.473" y="-210.463" font-family="Times New Roman,serif" font-size="8.00">gen</text>
</g>
<!-- http://example.org/s9&#45;&gt;http://example.org/s6 -->
<g id="edge14" class="edge"><title>http://example.org/s9&#45;&gt;http://example.org/s6</title>
<path fill="none" stroke="black" d="M514.29,-179.147C510.285,-175.188 506.474,-170.546 504,-165.5 497.302,-151.838 507.37,-107.611 496,-97.5 474.412,-78.3029 457.808,-86.7333 431,-97.5 429.997,-97.9029 424.224,-103.315 417.616,-109.707"/>
<polygon fill="black" stroke="black" points="415.02,-107.351 410.303,-116.838 419.907,-112.363 415.02,-107.351"/>
<text text-anchor="middle" x="499.779" y="-181.048" font-family="Times New Roman,serif" font-size="8.00">der</text>
</g>
<!-- http://example.org/s9&#45;&gt;http://example.org/s8 -->
<g id="edge17" class="edge"><title>http://example.org/s9&#45;&gt;http://example.org/s8</title>
<path fill="none" stroke="black" d="M515.9,-206.853C510.039,-211.545 503.075,-216.353 496,-219.5 475.784,-228.493 451.437,-233.233 431.771,-235.729"/>
<polygon fill="black" stroke="black" points="431.217,-232.269 421.673,-236.87 432.002,-239.225 431.217,-232.269"/>
<text text-anchor="middle" x="518.041" y="-219.8" font-family="Times New Roman,serif" font-size="8.00">der</text>
</g>
<!-- &#45;attrs5 -->
<g id="node13" class="node"><title>&#45;attrs5</title>
<polygon fill="none" stroke="gray" points="628,-217 569,-217 569,-168 634,-168 634,-211 628,-217"/>
<polyline fill="none" stroke="gray" points="628,-217 628,-211 "/>
<polyline fill="none" stroke="gray" points="634,-211 628,-211 "/>
<text text-anchor="start" x="579.5" y="-202.5" font-family="Times New Roman,serif" font-size="10.00">type:</text>
<text text-anchor="start" x="611.5" y="-202.5" font-family="Times New Roman,serif" font-size="10.00">Set</text>
<text text-anchor="start" x="579.5" y="-189.5" font-family="Times New Roman,serif" font-size="10.00">visited:</text>
<text text-anchor="start" x="611.5" y="-189.5" font-family="Times New Roman,serif" font-size="10.00">66</text>
<text text-anchor="start" x="579.5" y="-176.5" font-family="Times New Roman,serif" font-size="10.00">related:</text>
<text text-anchor="start" x="611.5" y="-176.5" font-family="Times New Roman,serif" font-size="10.00">12</text>
</g>
<!-- &#45;attrs5&#45;&gt;http://example.org/s9 -->
<g id="edge6" class="edge"><title>&#45;attrs5&#45;&gt;http://example.org/s9</title>
<path fill="none" stroke="gray" stroke-dasharray="5,2" d="M568.962,-192.5C565.839,-192.5 562.694,-192.5 559.635,-192.5"/>
</g>
<!-- http://example.org/s6&#45;&gt;http://example.org/forward6 -->
<g id="edge19" class="edge"><title>http://example.org/s6&#45;&gt;http://example.org/forward6</title>
<path fill="none" stroke="black" d="M374.189,-119.414C368.988,-116.159 363.18,-112.524 357.352,-108.877"/>
<polygon fill="black" stroke="black" points="359.201,-105.905 348.868,-103.567 355.488,-111.839 359.201,-105.905"/>
<text text-anchor="middle" x="360.94" y="-124.547" font-family="Times New Roman,serif" font-size="8.00">gen</text>
</g>
<!-- http://example.org/s6&#45;&gt;http://example.org/s5 -->
<g id="edge20" class="edge"><title>http://example.org/s6&#45;&gt;http://example.org/s5</title>
<path fill="none" stroke="black" d="M367.599,-128.217C344.458,-125.035 309.722,-119.643 280,-112.5 278.529,-112.146 277.031,-111.765 275.523,-111.365"/>
<polygon fill="black" stroke="black" points="276.151,-107.904 265.573,-108.507 274.218,-114.632 276.151,-107.904"/>
<text text-anchor="middle" x="358.366" y="-138.139" font-family="Times New Roman,serif" font-size="8.00">der</text>
</g>
<!-- &#45;attrs6 -->
<g id="node15" class="node"><title>&#45;attrs6</title>
<polygon fill="none" stroke="gray" points="490,-156 431,-156 431,-107 496,-107 496,-150 490,-156"/>
<polyline fill="none" stroke="gray" points="490,-156 490,-150 "/>
<polyline fill="none" stroke="gray" points="496,-150 490,-150 "/>
<text text-anchor="start" x="441.5" y="-141.5" font-family="Times New Roman,serif" font-size="10.00">type:</text>
<text text-anchor="start" x="473.5" y="-141.5" font-family="Times New Roman,serif" font-size="10.00">Set</text>
<text text-anchor="start" x="441.5" y="-128.5" font-family="Times New Roman,serif" font-size="10.00">visited:</text>
<text text-anchor="start" x="473.5" y="-128.5" font-family="Times New Roman,serif" font-size="10.00">45</text>
<text text-anchor="start" x="441.5" y="-115.5" font-family="Times New Roman,serif" font-size="10.00">related:</text>
<text text-anchor="start" x="473.5" y="-115.5" font-family="Times New Roman,serif" font-size="10.00">11</text>
</g>
<!-- &#45;attrs6&#45;&gt;http://example.org/s6 -->
<g id="edge7" class="edge"><title>&#45;attrs6&#45;&gt;http://example.org/s6</title>
<path fill="none" stroke="gray" stroke-dasharray="5,2" d="M430.962,-131.5C427.839,-131.5 424.694,-131.5 421.635,-131.5"/>
</g>
<!-- http://example.org/s8&#45;&gt;http://example.org/backward8 -->
<g id="edge22" class="edge"><title>http://example.org/s8&#45;&gt;http://example.org/backward8</title>
<path fill="none" stroke="black" d="M374.189,-250.586C368.988,-253.841 363.18,-257.476 357.352,-261.123"/>
<polygon fill="black" stroke="black" points="355.488,-258.161 348.868,-266.433 359.201,-264.095 355.488,-258.161"/>
<text text-anchor="middle" x="374.723" y="-263.676" font-family="Times New Roman,serif" font-size="8.00">gen</text>
</g>
<!-- http://example.org/s8&#45;&gt;http://example.org/s7 -->
<g id="edge23" class="edge"><title>http://example.org/s8&#45;&gt;http://example.org/s7</title>
<path fill="none" stroke="black" d="M367.456,-235.921C342.775,-233.478 305.49,-229.786 277.977,-227.062"/>
<polygon fill="black" stroke="black" points="278.253,-223.572 267.957,-226.07 277.563,-230.538 278.253,-223.572"/>
<text text-anchor="middle" x="358.713" y="-246.21" font-family="Times New Roman,serif" font-size="8.00">der</text>
</g>
<!-- &#45;attrs7 -->
<g id="node17" class="node"><title>&#45;attrs7</title>
<polygon fill="none" stroke="gray" points="490,-316 431,-316 431,-267 496,-267 496,-310 490,-316"/>
<polyline fill="none" stroke="gray" points="490,-316 490,-310 "/>
<polyline fill="none" stroke="gray" points="496,-310 490,-310 "/>
<text text-anchor="start" x="441.5" y="-301.5" font-family="Times New Roman,serif" font-size="10.00">type:</text>
<text text-anchor="start" x="473.5" y="-301.5" font-family="Times New Roman,serif" font-size="10.00">Set</text>
<text text-anchor="start" x="441.5" y="-288.5" font-family="Times New Roman,serif" font-size="10.00">visited:</text>
<text text-anchor="start" x="473.5" y="-288.5" font-family="Times New Roman,serif" font-size="10.00">25</text>
<text text-anchor="start" x="441.5" y="-275.5" font-family="Times New Roman,serif" font-size="10.00">related:</text>
<text text-anchor="start" x="473.5" y="-275.5" font-family="Times New Roman,serif" font-size="10.00">3</text>
</g>
<!-- &#45;attrs7&#45;&gt;http://example.org/s8 -->
<g id="edge8" class="edge"><title>&#45;attrs7&#45;&gt;http://example.org/s8</title>
<path fill="none" stroke="gray" stroke-dasharray="5,2" d="M431.354,-266.862C424.929,-261.78 418.389,-256.606 412.683,-252.093"/>
</g>
<!-- http://example.org/s5&#45;&gt;http://example.org/forward5 -->
<g id="edge25" class="edge"><title>http://example.org/s5&#45;&gt;http://example.org/forward5</title>
<path fill="none" stroke="black" d="M221.213,-112.86C214.768,-117.1 207.323,-121.998 199.978,-126.83"/>
<polygon fill="black" stroke="black" points="197.898,-124.009 191.468,-132.429 201.746,-129.857 197.898,-124.009"/>
<text text-anchor="middle" x="222.088" y="-125.934" font-family="Times New Roman,serif" font-size="8.00">gen</text>
</g>
<!-- http://example.org/s5&#45;&gt;http://example.org/s0 -->
<g id="edge26" class="edge"><title>http://example.org/s5&#45;&gt;http://example.org/s0</title>
<path fill="none" stroke="black" d="M214.033,-102.129C189.783,-104.45 153.066,-110.048 124,-123.5 120.334,-125.197 116.713,-127.366 113.278,-129.736"/>
<polygon fill="black" stroke="black" points="111.04,-127.042 105.206,-135.886 115.282,-132.61 111.04,-127.042"/>
<text text-anchor="middle" x="207.928" y="-113.93" font-family="Times New Roman,serif" font-size="8.00">der</text>
</g>
<!-- &#45;attrs8 -->
<g id="node19" class="node"><title>&#45;attrs8</title>
<polygon fill="none" stroke="gray" points="345.5,-49 286.5,-49 286.5,-0 351.5,-0 351.5,-43 345.5,-49"/>
<polyline fill="none" stroke="gray" points="345.5,-49 345.5,-43 "/>
<polyline fill="none" stroke="gray" points="351.5,-43 345.5,-43 "/>
<text text-anchor="start" x="297" y="-34.5" font-family="Times New Roman,serif" font-size="10.00">type:</text>
<text text-anchor="start" x="329" y="-34.5" font-family="Times New Roman,serif" font-size="10.00">Set</text>
<text text-anchor="start" x="297" y="-21.5" font-family="Times New Roman,serif" font-size="10.00">visited:</text>
<text text-anchor="start" x="329" y="-21.5" font-family="Times New Roman,serif" font-size="10.00">45</text>
<text text-anchor="start" x="297" y="-8.5" font-family="Times New Roman,serif" font-size="10.00">related:</text>
<text text-anchor="start" x="329" y="-8.5" font-family="Times New Roman,serif" font-size="10.00">11</text>
</g>
<!-- &#45;attrs8&#45;&gt;http://example.org/s5 -->
<g id="edge9" class="edge"><title>&#45;attrs8&#45;&gt;http://example.org/s5</title>
<path fill="none" stroke="gray" stroke-dasharray="5,2" d="M289.879,-49.0526C286.501,-52.1799 283.138,-55.3789 280,-58.5 271.494,-66.9593 262.465,-76.8945 255.343,-84.9777"/>
</g>
<!-- http://example.org/s7&#45;&gt;http://example.org/backward7 -->
<g id="edge28" class="edge"><title>http://example.org/s7&#45;&gt;http://example.org/backward7</title>
<path fill="none" stroke="black" d="M215.535,-229.616C214.472,-229.882 213.392,-230.152 212.301,-230.425"/>
<polygon fill="black" stroke="black" points="211.105,-227.116 202.252,-232.937 212.803,-233.907 211.105,-227.116"/>
<text text-anchor="middle" x="211.409" y="-242.138" font-family="Times New Roman,serif" font-size="8.00">gen</text>
</g>
<!-- http://example.org/s7&#45;&gt;http://example.org/s0 -->
<g id="edge29" class="edge"><title>http://example.org/s7&#45;&gt;http://example.org/s0</title>
<path fill="none" stroke="black" d="M215.956,-216.266C191.817,-208.484 154.006,-194.854 124,-177.5 120.672,-175.575 117.321,-173.346 114.088,-171.01"/>
<polygon fill="black" stroke="black" points="115.962,-168.036 105.902,-164.712 111.693,-173.584 115.962,-168.036"/>
<text text-anchor="middle" x="204.775" y="-224.365" font-family="Times New Roman,serif" font-size="8.00">der</text>
</g>
<!-- &#45;attrs9 -->
<g id="node21" class="node"><title>&#45;attrs9</title>
<polygon fill="none" stroke="gray" points="345.5,-210 286.5,-210 286.5,-161 351.5,-161 351.5,-204 345.5,-210"/>
<polyline fill="none" stroke="gray" points="345.5,-210 345.5,-204 "/>
<polyline fill="none" stroke="gray" points="351.5,-204 345.5,-204 "/>
<text text-anchor="start" x="297" y="-195.5" font-family="Times New Roman,serif" font-size="10.00">type:</text>
<text text-anchor="start" x="329" y="-195.5" font-family="Times New Roman,serif" font-size="10.00">Set</text>
<text text-anchor="start" x="297" y="-182.5" font-family="Times New Roman,serif" font-size="10.00">visited:</text>
<text text-anchor="start" x="329" y="-182.5" font-family="Times New Roman,serif" font-size="10.00">25</text>
<text text-anchor="start" x="297" y="-169.5" font-family="Times New Roman,serif" font-size="10.00">related:</text>
<text text-anchor="start" x="329" y="-169.5" font-family="Times New Roman,serif" font-size="10.00">3</text>
</g>
<!-- &#45;attrs9&#45;&gt;http://example.org/s7 -->
<g id="edge10" class="edge"><title>&#45;attrs9&#45;&gt;http://example.org/s7</title>
<path fill="none" stroke="gray" stroke-dasharray="5,2" d="M286.21,-201.395C278.4,-205.3 270.23,-209.385 263.069,-212.965"/>
</g>
<!-- http://example.org/s0&#45;&gt;http://example.org/start -->
<g id="edge30" class="edge"><title>http://example.org/s0&#45;&gt;http://example.org/start</title>
<path fill="none" stroke="black" d="M61.8577,-150.5C61.6998,-150.5 61.5417,-150.5 61.3836,-150.5"/>
<polygon fill="black" stroke="black" points="64.2405,-147 54.2405,-150.5 64.2404,-154 64.2405,-147"/>
<text text-anchor="middle" x="54.3577" y="-161.59" font-family="Times New Roman,serif" font-size="8.00">gen</text>
</g>
<!-- &#45;attrs10 -->
<g id="node23" class="node"><title>&#45;attrs10</title>
<polygon fill="none" stroke="gray" points="189.5,-76 130.5,-76 130.5,-27 195.5,-27 195.5,-70 189.5,-76"/>
<polyline fill="none" stroke="gray" points="189.5,-76 189.5,-70 "/>
<polyline fill="none" stroke="gray" points="195.5,-70 189.5,-70 "/>
<text text-anchor="start" x="141" y="-61.5" font-family="Times New Roman,serif" font-size="10.00">type:</text>
<text text-anchor="start" x="173" y="-61.5" font-family="Times New Roman,serif" font-size="10.00">Set</text>
<text text-anchor="start" x="141" y="-48.5" font-family="Times New Roman,serif" font-size="10.00">visited:</text>
<text text-anchor="start" x="173" y="-48.5" font-family="Times New Roman,serif" font-size="10.00">4</text>
<text text-anchor="start" x="141" y="-35.5" font-family="Times New Roman,serif" font-size="10.00">related:</text>
<text text-anchor="start" x="173" y="-35.5" font-family="Times New Roman,serif" font-size="10.00">2</text>
</g>
<!-- &#45;attrs10&#45;&gt;http://example.org/s0 -->
<g id="edge11" class="edge"><title>&#45;attrs10&#45;&gt;http://example.org/s0</title>
<path fill="none" stroke="gray" stroke-dasharray="5,2" d="M136.067,-76.2414C131.824,-80.8049 127.632,-85.6616 124,-90.5 113.793,-104.096 104.448,-121.07 98.1496,-133.491"/>
</g>
</g>
</svg>
