<?xml version="1.0" encoding="UTF-8" standalone="no"?>
<!DOCTYPE svg PUBLIC "-//W3C//DTD SVG 1.1//EN"
 "http://www.w3.org/Graphics/SVG/1.1/DTD/svg11.dtd">
<!-- Generated by graphviz version 2.38.0 (20140413.2041)
 -->
<!-- Title: G Pages: 1 -->
<svg width="1173pt" height="641pt"
 viewBox="0.00 0.00 1173.26 640.95" xmlns="http://www.w3.org/2000/svg" xmlns:xlink="http://www.w3.org/1999/xlink">
<g id="graph0" class="graph" transform="scale(1 1) rotate(0) translate(4 636.953)">
<title>G</title>
<polygon fill="white" stroke="none" points="-4,4 -4,-636.953 1169.26,-636.953 1169.26,4 -4,4"/>
<!-- s6 -->
<g id="node1" class="node"><title>s6</title>
<ellipse fill="none" stroke="black" cx="1101.62" cy="-304.477" rx="63.7795" ry="37.4533"/>
<text text-anchor="middle" x="1101.62" y="-315.777" font-family="Times New Roman,serif" font-size="14.00">s6</text>
<text text-anchor="middle" x="1101.62" y="-300.777" font-family="Times New Roman,serif" font-size="14.00"> visited: 1590</text>
<text text-anchor="middle" x="1101.62" y="-285.777" font-family="Times New Roman,serif" font-size="14.00"> selected: 20</text>
</g>
<!-- s4 -->
<g id="node2" class="node"><title>s4</title>
<ellipse fill="none" stroke="black" cx="907.342" cy="-344.477" rx="63.7795" ry="37.4533"/>
<text text-anchor="middle" x="907.342" y="-355.777" font-family="Times New Roman,serif" font-size="14.00">s4</text>
<text text-anchor="middle" x="907.342" y="-340.777" font-family="Times New Roman,serif" font-size="14.00"> visited: 1569</text>
<text text-anchor="middle" x="907.342" y="-325.777" font-family="Times New Roman,serif" font-size="14.00"> selected: 20</text>
</g>
<!-- s6&#45;&gt;s4 -->
<g id="edge1" class="edge"><title>s6&#45;&gt;s4</title>
<path fill="none" stroke="black" d="M1041.36,-316.804C1021.26,-320.986 998.62,-325.696 977.795,-330.028"/>
<polygon fill="black" stroke="black" points="976.814,-326.657 967.737,-332.121 978.24,-333.511 976.814,-326.657"/>
<text text-anchor="middle" x="1004.48" y="-331.277" font-family="Times New Roman,serif" font-size="14.00">union</text>
</g>
<!-- s5 -->
<g id="node3" class="node"><title>s5</title>
<ellipse fill="none" stroke="black" cx="907.342" cy="-251.477" rx="63.7795" ry="37.4533"/>
<text text-anchor="middle" x="907.342" y="-262.777" font-family="Times New Roman,serif" font-size="14.00">s5</text>
<text text-anchor="middle" x="907.342" y="-247.777" font-family="Times New Roman,serif" font-size="14.00"> visited: 1576</text>
<text text-anchor="middle" x="907.342" y="-232.777" font-family="Times New Roman,serif" font-size="14.00"> selected: 20</text>
</g>
<!-- s6&#45;&gt;s5 -->
<g id="edge2" class="edge"><title>s6&#45;&gt;s5</title>
<path fill="none" stroke="black" d="M1043.71,-288.79C1022.2,-282.861 997.526,-276.059 975.185,-269.901"/>
<polygon fill="black" stroke="black" points="976.009,-266.498 965.438,-267.215 974.149,-273.246 976.009,-266.498"/>
<text text-anchor="middle" x="1004.48" y="-285.277" font-family="Times New Roman,serif" font-size="14.00">union</text>
</g>
<!-- s3 -->
<g id="node4" class="node"><title>s3</title>
<ellipse fill="none" stroke="black" cx="681.063" cy="-300.477" rx="63.7795" ry="37.4533"/>
<text text-anchor="middle" x="681.063" y="-311.777" font-family="Times New Roman,serif" font-size="14.00">s3</text>
<text text-anchor="middle" x="681.063" y="-296.777" font-family="Times New Roman,serif" font-size="14.00"> visited: 1555</text>
<text text-anchor="middle" x="681.063" y="-281.777" font-family="Times New Roman,serif" font-size="14.00"> selected: 20</text>
</g>
<!-- s4&#45;&gt;s3 -->
<g id="edge3" class="edge"><title>s4&#45;&gt;s3</title>
<path fill="none" stroke="black" d="M846.828,-332.801C817.68,-327.083 782.397,-320.161 751.971,-314.192"/>
<polygon fill="black" stroke="black" points="752.342,-310.698 741.855,-312.207 750.994,-317.567 752.342,-310.698"/>
<text text-anchor="middle" x="794.203" y="-362.277" font-family="Times New Roman,serif" font-size="14.00">forward</text>
<text text-anchor="middle" x="794.203" y="-347.277" font-family="Times New Roman,serif" font-size="14.00"> visited: 14</text>
<text text-anchor="middle" x="794.203" y="-332.277" font-family="Times New Roman,serif" font-size="14.00"> selected: 0</text>
</g>
<!-- s5&#45;&gt;s3 -->
<g id="edge4" class="edge"><title>s5&#45;&gt;s3</title>
<path fill="none" stroke="black" d="M843.835,-255.318C818.393,-257.798 788.873,-261.856 762.703,-268.477 756.031,-270.164 749.173,-272.269 742.407,-274.588"/>
<polygon fill="black" stroke="black" points="740.819,-271.439 732.591,-278.115 743.186,-278.027 740.819,-271.439"/>
<text text-anchor="middle" x="794.203" y="-302.277" font-family="Times New Roman,serif" font-size="14.00">backward</text>
<text text-anchor="middle" x="794.203" y="-287.277" font-family="Times New Roman,serif" font-size="14.00"> visited: 21</text>
<text text-anchor="middle" x="794.203" y="-272.277" font-family="Times New Roman,serif" font-size="14.00"> selected: 0</text>
</g>
<!-- s1 -->
<g id="node5" class="node"><title>s1</title>
<ellipse fill="none" stroke="black" cx="486.784" cy="-360.477" rx="63.7795" ry="37.4533"/>
<text text-anchor="middle" x="486.784" y="-371.777" font-family="Times New Roman,serif" font-size="14.00">s1</text>
<text text-anchor="middle" x="486.784" y="-356.777" font-family="Times New Roman,serif" font-size="14.00"> visited: 1116</text>
<text text-anchor="middle" x="486.784" y="-341.777" font-family="Times New Roman,serif" font-size="14.00"> selected: 17</text>
</g>
<!-- s3&#45;&gt;s1 -->
<g id="edge5" class="edge"><title>s3&#45;&gt;s1</title>
<path fill="none" stroke="black" d="M624.448,-317.831C602.127,-324.796 576.238,-332.875 553.035,-340.115"/>
<polygon fill="black" stroke="black" points="551.777,-336.841 543.274,-343.161 553.863,-343.523 551.777,-336.841"/>
<text text-anchor="middle" x="583.923" y="-338.277" font-family="Times New Roman,serif" font-size="14.00">union</text>
</g>
<!-- s2 -->
<g id="node6" class="node"><title>s2</title>
<ellipse fill="none" stroke="black" cx="486.784" cy="-267.477" rx="63.7795" ry="37.4533"/>
<text text-anchor="middle" x="486.784" y="-278.777" font-family="Times New Roman,serif" font-size="14.00">s2</text>
<text text-anchor="middle" x="486.784" y="-263.777" font-family="Times New Roman,serif" font-size="14.00"> visited: 1374</text>
<text text-anchor="middle" x="486.784" y="-248.777" font-family="Times New Roman,serif" font-size="14.00"> selected: 20</text>
</g>
<!-- s3&#45;&gt;s2 -->
<g id="edge6" class="edge"><title>s3&#45;&gt;s2</title>
<path fill="none" stroke="black" d="M619.752,-290.126C600.249,-286.779 578.451,-283.037 558.278,-279.575"/>
<polygon fill="black" stroke="black" points="558.659,-276.09 548.211,-277.847 557.475,-282.989 558.659,-276.09"/>
<text text-anchor="middle" x="583.923" y="-290.277" font-family="Times New Roman,serif" font-size="14.00">union</text>
</g>
<!-- s0 -->
<g id="node7" class="node"><title>s0</title>
<ellipse fill="none" stroke="black" cx="259.333" cy="-316.477" rx="60.623" ry="37.4533"/>
<text text-anchor="middle" x="259.333" y="-327.777" font-family="Times New Roman,serif" font-size="14.00">s0</text>
<text text-anchor="middle" x="259.333" y="-312.777" font-family="Times New Roman,serif" font-size="14.00"> visited: 935</text>
<text text-anchor="middle" x="259.333" y="-297.777" font-family="Times New Roman,serif" font-size="14.00"> selected: 17</text>
</g>
<!-- s1&#45;&gt;s0 -->
<g id="edge7" class="edge"><title>s1&#45;&gt;s0</title>
<path fill="none" stroke="black" d="M426.254,-348.859C395.883,-342.931 358.827,-335.699 327.445,-329.575"/>
<polygon fill="black" stroke="black" points="327.956,-326.108 317.471,-327.628 326.615,-332.979 327.956,-326.108"/>
<text text-anchor="middle" x="371.644" y="-378.277" font-family="Times New Roman,serif" font-size="14.00">forward</text>
<text text-anchor="middle" x="371.644" y="-363.277" font-family="Times New Roman,serif" font-size="14.00"> visited: 181</text>
<text text-anchor="middle" x="371.644" y="-348.277" font-family="Times New Roman,serif" font-size="14.00"> selected: 0</text>
</g>
<!-- s2&#45;&gt;s0 -->
<g id="edge8" class="edge"><title>s2&#45;&gt;s0</title>
<path fill="none" stroke="black" d="M423.277,-270.185C396.709,-272.378 365.591,-276.336 338.144,-283.477 331.465,-285.214 324.614,-287.427 317.88,-289.882"/>
<polygon fill="black" stroke="black" points="316.211,-286.774 308.13,-293.625 318.72,-293.309 316.211,-286.774"/>
<text text-anchor="middle" x="371.644" y="-317.277" font-family="Times New Roman,serif" font-size="14.00">backward</text>
<text text-anchor="middle" x="371.644" y="-302.277" font-family="Times New Roman,serif" font-size="14.00"> visited: 439</text>
<text text-anchor="middle" x="371.644" y="-287.277" font-family="Times New Roman,serif" font-size="14.00"> selected: 3</text>
</g>
<!-- scopus -->
<g id="node8" class="node"><title>scopus</title>
<ellipse fill="none" stroke="black" cx="65.7609" cy="-595.477" rx="55.7232" ry="37.4533"/>
<text text-anchor="middle" x="65.7609" y="-606.777" font-family="Times New Roman,serif" font-size="14.00">scopus</text>
<text text-anchor="middle" x="65.7609" y="-591.777" font-family="Times New Roman,serif" font-size="14.00"> visited: 77</text>
<text text-anchor="middle" x="65.7609" y="-576.777" font-family="Times New Roman,serif" font-size="14.00"> selected: 7</text>
</g>
<!-- s0&#45;&gt;scopus -->
<g id="edge9" class="edge"><title>s0&#45;&gt;scopus</title>
<path fill="none" stroke="black" d="M244.388,-352.93C224.588,-401.407 184.738,-487.998 131.522,-548.477 126.727,-553.926 121.191,-559.109 115.417,-563.907"/>
<polygon fill="black" stroke="black" points="113.125,-561.257 107.443,-570.2 117.462,-566.752 113.125,-561.257"/>
<text text-anchor="middle" x="165.022" y="-529.277" font-family="Times New Roman,serif" font-size="14.00">union</text>
</g>
<!-- springer -->
<g id="node9" class="node"><title>springer</title>
<ellipse fill="none" stroke="black" cx="65.7609" cy="-502.477" rx="58.8803" ry="37.4533"/>
<text text-anchor="middle" x="65.7609" y="-513.777" font-family="Times New Roman,serif" font-size="14.00">springer</text>
<text text-anchor="middle" x="65.7609" y="-498.777" font-family="Times New Roman,serif" font-size="14.00"> visited: 124</text>
<text text-anchor="middle" x="65.7609" y="-483.777" font-family="Times New Roman,serif" font-size="14.00"> selected: 1</text>
</g>
<!-- s0&#45;&gt;springer -->
<g id="edge10" class="edge"><title>s0&#45;&gt;springer</title>
<path fill="none" stroke="black" d="M231.12,-349.985C206.551,-379.304 168.659,-422.275 131.522,-455.477 126.373,-460.08 120.781,-464.668 115.113,-469.074"/>
<polygon fill="black" stroke="black" points="112.651,-466.547 106.796,-475.377 116.88,-472.126 112.651,-466.547"/>
<text text-anchor="middle" x="165.022" y="-442.277" font-family="Times New Roman,serif" font-size="14.00">union</text>
</g>
<!-- acm -->
<g id="node10" class="node"><title>acm</title>
<ellipse fill="none" stroke="black" cx="65.7609" cy="-409.477" rx="58.8803" ry="37.4533"/>
<text text-anchor="middle" x="65.7609" y="-420.777" font-family="Times New Roman,serif" font-size="14.00">acm</text>
<text text-anchor="middle" x="65.7609" y="-405.777" font-family="Times New Roman,serif" font-size="14.00"> visited: 210</text>
<text text-anchor="middle" x="65.7609" y="-390.777" font-family="Times New Roman,serif" font-size="14.00"> selected: 5</text>
</g>
<!-- s0&#45;&gt;acm -->
<g id="edge11" class="edge"><title>s0&#45;&gt;acm</title>
<path fill="none" stroke="black" d="M210.978,-339.465C184.1,-352.513 150.318,-368.913 122.208,-382.56"/>
<polygon fill="black" stroke="black" points="120.378,-379.557 112.91,-387.073 123.435,-385.855 120.378,-379.557"/>
<text text-anchor="middle" x="165.022" y="-373.277" font-family="Times New Roman,serif" font-size="14.00">union</text>
</g>
<!-- sciencedirect -->
<g id="node11" class="node"><title>sciencedirect</title>
<ellipse fill="none" stroke="black" cx="65.7609" cy="-316.477" rx="62.8651" ry="37.4533"/>
<text text-anchor="middle" x="65.7609" y="-327.777" font-family="Times New Roman,serif" font-size="14.00">sciencedirect</text>
<text text-anchor="middle" x="65.7609" y="-312.777" font-family="Times New Roman,serif" font-size="14.00"> visited: 249</text>
<text text-anchor="middle" x="65.7609" y="-297.777" font-family="Times New Roman,serif" font-size="14.00"> selected: 6</text>
</g>
<!-- s0&#45;&gt;sciencedirect -->
<g id="edge12" class="edge"><title>s0&#45;&gt;sciencedirect</title>
<path fill="none" stroke="black" d="M198.506,-316.477C179.622,-316.477 158.556,-316.477 138.906,-316.477"/>
<polygon fill="black" stroke="black" points="138.778,-312.977 128.778,-316.477 138.778,-319.977 138.778,-312.977"/>
<text text-anchor="middle" x="165.022" y="-320.277" font-family="Times New Roman,serif" font-size="14.00">union</text>
</g>
<!-- wiley -->
<g id="node12" class="node"><title>wiley</title>
<ellipse fill="none" stroke="black" cx="65.7609" cy="-223.477" rx="58.8803" ry="37.4533"/>
<text text-anchor="middle" x="65.7609" y="-234.777" font-family="Times New Roman,serif" font-size="14.00">wiley</text>
<text text-anchor="middle" x="65.7609" y="-219.777" font-family="Times New Roman,serif" font-size="14.00"> visited: 295</text>
<text text-anchor="middle" x="65.7609" y="-204.777" font-family="Times New Roman,serif" font-size="14.00"> selected: 0</text>
</g>
<!-- s0&#45;&gt;wiley -->
<g id="edge13" class="edge"><title>s0&#45;&gt;wiley</title>
<path fill="none" stroke="black" d="M210.978,-293.488C184.1,-280.44 150.318,-264.04 122.208,-250.394"/>
<polygon fill="black" stroke="black" points="123.435,-247.099 112.91,-245.88 120.378,-253.396 123.435,-247.099"/>
<text text-anchor="middle" x="165.022" y="-282.277" font-family="Times New Roman,serif" font-size="14.00">union</text>
</g>
<!-- webofscience -->
<g id="node13" class="node"><title>webofscience</title>
<ellipse fill="none" stroke="black" cx="65.7609" cy="-130.477" rx="65.5227" ry="37.4533"/>
<text text-anchor="middle" x="65.7609" y="-141.777" font-family="Times New Roman,serif" font-size="14.00">webofscience</text>
<text text-anchor="middle" x="65.7609" y="-126.777" font-family="Times New Roman,serif" font-size="14.00"> visited: 3</text>
<text text-anchor="middle" x="65.7609" y="-111.777" font-family="Times New Roman,serif" font-size="14.00"> selected: 0</text>
</g>
<!-- s0&#45;&gt;webofscience -->
<g id="edge14" class="edge"><title>s0&#45;&gt;webofscience</title>
<path fill="none" stroke="black" d="M231.12,-282.968C206.551,-253.649 168.659,-210.679 131.522,-177.477 126.9,-173.345 121.922,-169.225 116.852,-165.239"/>
<polygon fill="black" stroke="black" points="118.913,-162.409 108.847,-159.103 114.654,-167.965 118.913,-162.409"/>
<text text-anchor="middle" x="165.022" y="-229.277" font-family="Times New Roman,serif" font-size="14.00">union</text>
</g>
<!-- elcompendex -->
<g id="node14" class="node"><title>elcompendex</title>
<ellipse fill="none" stroke="black" cx="65.7609" cy="-37.4767" rx="64.1938" ry="37.4533"/>
<text text-anchor="middle" x="65.7609" y="-48.7767" font-family="Times New Roman,serif" font-size="14.00">elcompendex</text>
<text text-anchor="middle" x="65.7609" y="-33.7767" font-family="Times New Roman,serif" font-size="14.00"> visited: 8</text>
<text text-anchor="middle" x="65.7609" y="-18.7767" font-family="Times New Roman,serif" font-size="14.00"> selected: 2</text>
</g>
<!-- s0&#45;&gt;elcompendex -->
<g id="edge15" class="edge"><title>s0&#45;&gt;elcompendex</title>
<path fill="none" stroke="black" d="M244.388,-280.023C224.588,-231.546 184.738,-144.955 131.522,-84.4767 127.427,-79.8226 122.791,-75.3629 117.928,-71.1712"/>
<polygon fill="black" stroke="black" points="120.104,-68.4294 110.145,-64.8156 115.677,-73.8515 120.104,-68.4294"/>
<text text-anchor="middle" x="165.022" y="-153.277" font-family="Times New Roman,serif" font-size="14.00">union</text>
</g>
</g>
</svg>
