<?xml version="1.0" encoding="UTF-8" standalone="no"?>
<!DOCTYPE svg PUBLIC "-//W3C//DTD SVG 1.1//EN"
 "http://www.w3.org/Graphics/SVG/1.1/DTD/svg11.dtd">
<!-- Generated by graphviz version 2.38.0 (20140413.2041)
 -->
<!-- Title: G Pages: 1 -->
<svg width="525pt" height="920pt"
 viewBox="0.00 0.00 524.72 919.95" xmlns="http://www.w3.org/2000/svg" xmlns:xlink="http://www.w3.org/1999/xlink">
<g id="graph0" class="graph" transform="scale(1 1) rotate(0) translate(4 915.953)">
<title>G</title>
<polygon fill="white" stroke="none" points="-4,4 -4,-915.953 520.72,-915.953 520.72,4 -4,4"/>
<!-- s0 -->
<g id="node1" class="node"><title>s0</title>
<ellipse fill="none" stroke="black" cx="455.909" cy="-455.477" rx="60.623" ry="37.4533"/>
<text text-anchor="middle" x="455.909" y="-466.777" font-family="Times New Roman,serif" font-size="14.00">s0</text>
<text text-anchor="middle" x="455.909" y="-451.777" font-family="Times New Roman,serif" font-size="14.00"> visited: 935</text>
<text text-anchor="middle" x="455.909" y="-436.777" font-family="Times New Roman,serif" font-size="14.00"> selected: 17</text>
</g>
<!-- scopus2016 -->
<g id="node2" class="node"><title>scopus2016</title>
<ellipse fill="none" stroke="black" cx="164.049" cy="-874.477" rx="59.2941" ry="37.4533"/>
<text text-anchor="middle" x="164.049" y="-885.777" font-family="Times New Roman,serif" font-size="14.00">scopus2016</text>
<text text-anchor="middle" x="164.049" y="-870.777" font-family="Times New Roman,serif" font-size="14.00"> visited: 68</text>
<text text-anchor="middle" x="164.049" y="-855.777" font-family="Times New Roman,serif" font-size="14.00"> selected: 7</text>
</g>
<!-- s0&#45;&gt;scopus2016 -->
<g id="edge1" class="edge"><title>s0&#45;&gt;scopus2016</title>
<path fill="none" stroke="black" d="M454.443,-493.072C451.275,-569.617 432.325,-743.407 328.098,-827.477 301.199,-849.173 264.717,-860.854 233.082,-867.143"/>
<polygon fill="black" stroke="black" points="232.199,-863.747 222.999,-869.001 233.468,-870.631 232.199,-863.747"/>
<text text-anchor="middle" x="361.598" y="-809.277" font-family="Times New Roman,serif" font-size="14.00">union</text>
</g>
<!-- springer2016 -->
<g id="node3" class="node"><title>springer2016</title>
<ellipse fill="none" stroke="black" cx="164.049" cy="-781.477" rx="62.8651" ry="37.4533"/>
<text text-anchor="middle" x="164.049" y="-792.777" font-family="Times New Roman,serif" font-size="14.00">springer2016</text>
<text text-anchor="middle" x="164.049" y="-777.777" font-family="Times New Roman,serif" font-size="14.00"> visited: 115</text>
<text text-anchor="middle" x="164.049" y="-762.777" font-family="Times New Roman,serif" font-size="14.00"> selected: 0</text>
</g>
<!-- s0&#45;&gt;springer2016 -->
<g id="edge2" class="edge"><title>s0&#45;&gt;springer2016</title>
<path fill="none" stroke="black" d="M448.96,-492.753C437.244,-553.314 405.27,-672.524 328.098,-734.477 302.082,-755.362 267.177,-766.966 236.338,-773.414"/>
<polygon fill="black" stroke="black" points="235.632,-769.986 226.485,-775.332 236.97,-776.857 235.632,-769.986"/>
<text text-anchor="middle" x="361.598" y="-721.277" font-family="Times New Roman,serif" font-size="14.00">union</text>
</g>
<!-- acm2016 -->
<g id="node4" class="node"><title>acm2016</title>
<ellipse fill="none" stroke="black" cx="164.049" cy="-688.477" rx="58.8803" ry="37.4533"/>
<text text-anchor="middle" x="164.049" y="-699.777" font-family="Times New Roman,serif" font-size="14.00">acm2016</text>
<text text-anchor="middle" x="164.049" y="-684.777" font-family="Times New Roman,serif" font-size="14.00"> visited: 210</text>
<text text-anchor="middle" x="164.049" y="-669.777" font-family="Times New Roman,serif" font-size="14.00"> selected: 5</text>
</g>
<!-- s0&#45;&gt;acm2016 -->
<g id="edge3" class="edge"><title>s0&#45;&gt;acm2016</title>
<path fill="none" stroke="black" d="M439.464,-491.903C419.729,-534.094 381.602,-602.75 328.098,-641.477 300.104,-661.739 263.53,-673.3 232.117,-679.881"/>
<polygon fill="black" stroke="black" points="231.253,-676.483 222.116,-681.847 232.604,-683.352 231.253,-676.483"/>
<text text-anchor="middle" x="361.598" y="-629.277" font-family="Times New Roman,serif" font-size="14.00">union</text>
</g>
<!-- sciencedirect2016 -->
<g id="node5" class="node"><title>sciencedirect2016</title>
<ellipse fill="none" stroke="black" cx="164.049" cy="-595.477" rx="82.0488" ry="37.4533"/>
<text text-anchor="middle" x="164.049" y="-606.777" font-family="Times New Roman,serif" font-size="14.00">sciencedirect2016</text>
<text text-anchor="middle" x="164.049" y="-591.777" font-family="Times New Roman,serif" font-size="14.00"> visited: 245</text>
<text text-anchor="middle" x="164.049" y="-576.777" font-family="Times New Roman,serif" font-size="14.00"> selected: 5</text>
</g>
<!-- s0&#45;&gt;sciencedirect2016 -->
<g id="edge4" class="edge"><title>s0&#45;&gt;sciencedirect2016</title>
<path fill="none" stroke="black" d="M420.472,-485.948C396.12,-506.135 361.912,-531.861 328.098,-548.477 303.363,-560.63 274.933,-570.178 248.811,-577.4"/>
<polygon fill="black" stroke="black" points="247.675,-574.081 238.925,-580.055 249.491,-580.842 247.675,-574.081"/>
<text text-anchor="middle" x="361.598" y="-541.277" font-family="Times New Roman,serif" font-size="14.00">union</text>
</g>
<!-- wiley2016 -->
<g id="node6" class="node"><title>wiley2016</title>
<ellipse fill="none" stroke="black" cx="164.049" cy="-502.477" rx="58.8803" ry="37.4533"/>
<text text-anchor="middle" x="164.049" y="-513.777" font-family="Times New Roman,serif" font-size="14.00">wiley2016</text>
<text text-anchor="middle" x="164.049" y="-498.777" font-family="Times New Roman,serif" font-size="14.00"> visited: 294</text>
<text text-anchor="middle" x="164.049" y="-483.777" font-family="Times New Roman,serif" font-size="14.00"> selected: 0</text>
</g>
<!-- s0&#45;&gt;wiley2016 -->
<g id="edge5" class="edge"><title>s0&#45;&gt;wiley2016</title>
<path fill="none" stroke="black" d="M396.948,-464.875C349.188,-472.619 281.432,-483.605 231.487,-491.704"/>
<polygon fill="black" stroke="black" points="230.74,-488.279 221.43,-493.335 231.861,-495.189 230.74,-488.279"/>
<text text-anchor="middle" x="361.598" y="-475.277" font-family="Times New Roman,serif" font-size="14.00">union</text>
</g>
<!-- webofscience2016 -->
<g id="node7" class="node"><title>webofscience2016</title>
<ellipse fill="none" stroke="black" cx="164.049" cy="-409.477" rx="84.7059" ry="37.4533"/>
<text text-anchor="middle" x="164.049" y="-420.777" font-family="Times New Roman,serif" font-size="14.00">webofscience2016</text>
<text text-anchor="middle" x="164.049" y="-405.777" font-family="Times New Roman,serif" font-size="14.00"> visited: 3</text>
<text text-anchor="middle" x="164.049" y="-390.777" font-family="Times New Roman,serif" font-size="14.00"> selected: 0</text>
</g>
<!-- s0&#45;&gt;webofscience2016 -->
<g id="edge6" class="edge"><title>s0&#45;&gt;webofscience2016</title>
<path fill="none" stroke="black" d="M396.948,-446.278C356.083,-439.793 300.579,-430.985 254.117,-423.612"/>
<polygon fill="black" stroke="black" points="254.471,-420.124 244.046,-422.013 253.373,-427.037 254.471,-420.124"/>
<text text-anchor="middle" x="361.598" y="-445.277" font-family="Times New Roman,serif" font-size="14.00">union</text>
</g>
<!-- elcompendex2016 -->
<g id="node8" class="node"><title>elcompendex2016</title>
<ellipse fill="none" stroke="black" cx="164.049" cy="-316.477" rx="83.3772" ry="37.4533"/>
<text text-anchor="middle" x="164.049" y="-327.777" font-family="Times New Roman,serif" font-size="14.00">elcompendex2016</text>
<text text-anchor="middle" x="164.049" y="-312.777" font-family="Times New Roman,serif" font-size="14.00"> visited: 1</text>
<text text-anchor="middle" x="164.049" y="-297.777" font-family="Times New Roman,serif" font-size="14.00"> selected: 0</text>
</g>
<!-- s0&#45;&gt;elcompendex2016 -->
<g id="edge7" class="edge"><title>s0&#45;&gt;elcompendex2016</title>
<path fill="none" stroke="black" d="M420.153,-425.135C395.795,-405.206 361.706,-379.883 328.098,-363.477 303.684,-351.559 275.701,-342.128 249.889,-334.939"/>
<polygon fill="black" stroke="black" points="250.681,-331.528 240.114,-332.294 248.852,-338.285 250.681,-331.528"/>
<text text-anchor="middle" x="361.598" y="-395.277" font-family="Times New Roman,serif" font-size="14.00">union</text>
</g>
<!-- scopus2016_duplicate_removed -->
<g id="node9" class="node"><title>scopus2016_duplicate_removed</title>
<ellipse fill="none" stroke="black" cx="164.049" cy="-223.477" rx="140.014" ry="37.4533"/>
<text text-anchor="middle" x="164.049" y="-234.777" font-family="Times New Roman,serif" font-size="14.00">scopus2016_duplicate_removed</text>
<text text-anchor="middle" x="164.049" y="-219.777" font-family="Times New Roman,serif" font-size="14.00"> visited: 9</text>
<text text-anchor="middle" x="164.049" y="-204.777" font-family="Times New Roman,serif" font-size="14.00"> selected: 0</text>
</g>
<!-- s0&#45;&gt;scopus2016_duplicate_removed -->
<g id="edge8" class="edge"><title>s0&#45;&gt;scopus2016_duplicate_removed</title>
<path fill="none" stroke="black" d="M439.413,-419.246C419.629,-377.281 381.454,-308.995 328.098,-270.477 315.949,-261.707 302.192,-254.567 287.946,-248.754"/>
<polygon fill="black" stroke="black" points="289.115,-245.454 278.525,-245.123 286.597,-251.986 289.115,-245.454"/>
<text text-anchor="middle" x="361.598" y="-321.277" font-family="Times New Roman,serif" font-size="14.00">union</text>
</g>
<!-- elcompendex2016_duplicate_removed -->
<g id="node10" class="node"><title>elcompendex2016_duplicate_removed</title>
<ellipse fill="none" stroke="black" cx="164.049" cy="-130.477" rx="164.098" ry="37.4533"/>
<text text-anchor="middle" x="164.049" y="-141.777" font-family="Times New Roman,serif" font-size="14.00">elcompendex2016_duplicate_removed</text>
<text text-anchor="middle" x="164.049" y="-126.777" font-family="Times New Roman,serif" font-size="14.00"> visited: 8</text>
<text text-anchor="middle" x="164.049" y="-111.777" font-family="Times New Roman,serif" font-size="14.00"> selected: 3</text>
</g>
<!-- s0&#45;&gt;elcompendex2016_duplicate_removed -->
<g id="edge9" class="edge"><title>s0&#45;&gt;elcompendex2016_duplicate_removed</title>
<path fill="none" stroke="black" d="M448.813,-417.854C436.946,-357.373 404.834,-239.08 328.098,-177.477 319.214,-170.345 309.293,-164.295 298.851,-159.163"/>
<polygon fill="black" stroke="black" points="300.102,-155.886 289.555,-154.886 297.176,-162.245 300.102,-155.886"/>
<text text-anchor="middle" x="361.598" y="-229.277" font-family="Times New Roman,serif" font-size="14.00">union</text>
</g>
<!-- sciencedirect2016_duplicate_removed -->
<g id="node11" class="node"><title>sciencedirect2016_duplicate_removed</title>
<ellipse fill="none" stroke="black" cx="164.049" cy="-37.4767" rx="162.769" ry="37.4533"/>
<text text-anchor="middle" x="164.049" y="-48.7767" font-family="Times New Roman,serif" font-size="14.00">sciencedirect2016_duplicate_removed</text>
<text text-anchor="middle" x="164.049" y="-33.7767" font-family="Times New Roman,serif" font-size="14.00"> visited: 4</text>
<text text-anchor="middle" x="164.049" y="-18.7767" font-family="Times New Roman,serif" font-size="14.00"> selected: 1</text>
</g>
<!-- s0&#45;&gt;sciencedirect2016_duplicate_removed -->
<g id="edge10" class="edge"><title>s0&#45;&gt;sciencedirect2016_duplicate_removed</title>
<path fill="none" stroke="black" d="M454.402,-417.986C451.157,-341.654 432.074,-168.344 328.098,-84.4767 319.141,-77.2526 309.123,-71.1389 298.574,-65.9648"/>
<polygon fill="black" stroke="black" points="299.73,-62.6442 289.181,-61.6554 296.811,-69.0066 299.73,-62.6442"/>
<text text-anchor="middle" x="361.598" y="-142.277" font-family="Times New Roman,serif" font-size="14.00">union</text>
</g>
</g>
</svg>
