<?xml version="1.0" encoding="UTF-8" standalone="no"?>
<!DOCTYPE svg PUBLIC "-//W3C//DTD SVG 1.1//EN"
 "http://www.w3.org/Graphics/SVG/1.1/DTD/svg11.dtd">
<!-- Generated by graphviz version 2.38.0 (20140413.2041)
 -->
<!-- Title: G Pages: 1 -->
<svg width="373pt" height="1089pt"
 viewBox="0.00 0.00 373.40 1088.59" xmlns="http://www.w3.org/2000/svg" xmlns:xlink="http://www.w3.org/1999/xlink">
<g id="graph0" class="graph" transform="scale(1 1) rotate(0) translate(4 1084.59)">
<title>G</title>
<polygon fill="white" stroke="none" points="-4,4 -4,-1084.59 369.399,-1084.59 369.399,4 -4,4"/>
<!-- s0 -->
<g id="node1" class="node"><title>s0</title>
<ellipse fill="none" stroke="black" cx="304.588" cy="-540.296" rx="60.623" ry="37.4533"/>
<text text-anchor="middle" x="304.588" y="-551.596" font-family="Times New Roman,serif" font-size="14.00">s0</text>
<text text-anchor="middle" x="304.588" y="-536.596" font-family="Times New Roman,serif" font-size="14.00"> visited: 935</text>
<text text-anchor="middle" x="304.588" y="-521.596" font-family="Times New Roman,serif" font-size="14.00"> selected: 17</text>
</g>
<!-- scopus2016 -->
<g id="node2" class="node"><title>scopus2016</title>
<ellipse fill="none" stroke="black" cx="88.3883" cy="-1011.3" rx="88.2768" ry="69.0935"/>
<text text-anchor="middle" x="88.3883" y="-1045.1" font-family="Times New Roman,serif" font-size="14.00">scopus2016</text>
<text text-anchor="middle" x="88.3883" y="-1030.1" font-family="Times New Roman,serif" font-size="14.00"> visited: 77</text>
<text text-anchor="middle" x="88.3883" y="-1015.1" font-family="Times New Roman,serif" font-size="14.00"> selected: 7</text>
<text text-anchor="middle" x="88.3883" y="-1000.1" font-family="Times New Roman,serif" font-size="14.00"> planilha: 68</text>
<text text-anchor="middle" x="88.3883" y="-985.096" font-family="Times New Roman,serif" font-size="14.00"> planilha selected: 7</text>
<text text-anchor="middle" x="88.3883" y="-970.096" font-family="Times New Roman,serif" font-size="14.00"> duplicados: 9</text>
</g>
<!-- s0&#45;&gt;scopus2016 -->
<g id="edge1" class="edge"><title>s0&#45;&gt;scopus2016</title>
<path fill="none" stroke="black" d="M298.142,-577.637C286.117,-650.749 252.163,-815.795 176.777,-932.296 171.636,-940.241 165.499,-947.894 158.895,-955.101"/>
<polygon fill="black" stroke="black" points="155.964,-953.1 151.569,-962.74 161.016,-957.945 155.964,-953.1"/>
<text text-anchor="middle" x="210.277" y="-897.096" font-family="Times New Roman,serif" font-size="14.00">union</text>
</g>
<!-- springer2016 -->
<g id="node3" class="node"><title>springer2016</title>
<ellipse fill="none" stroke="black" cx="88.3883" cy="-854.296" rx="88.2768" ry="69.0935"/>
<text text-anchor="middle" x="88.3883" y="-888.096" font-family="Times New Roman,serif" font-size="14.00">springer2016</text>
<text text-anchor="middle" x="88.3883" y="-873.096" font-family="Times New Roman,serif" font-size="14.00"> visited: 115</text>
<text text-anchor="middle" x="88.3883" y="-858.096" font-family="Times New Roman,serif" font-size="14.00"> selected: 0</text>
<text text-anchor="middle" x="88.3883" y="-843.096" font-family="Times New Roman,serif" font-size="14.00"> planilha: 115</text>
<text text-anchor="middle" x="88.3883" y="-828.096" font-family="Times New Roman,serif" font-size="14.00"> planilha selected: 0</text>
<text text-anchor="middle" x="88.3883" y="-813.096" font-family="Times New Roman,serif" font-size="14.00"> duplicados: 0</text>
</g>
<!-- s0&#45;&gt;springer2016 -->
<g id="edge2" class="edge"><title>s0&#45;&gt;springer2016</title>
<path fill="none" stroke="black" d="M288.577,-576.818C267.728,-625.09 226.858,-711.47 176.777,-775.296 171.028,-782.623 164.56,-789.842 157.811,-796.76"/>
<polygon fill="black" stroke="black" points="155.015,-794.605 150.397,-804.14 159.953,-799.566 155.015,-794.605"/>
<text text-anchor="middle" x="210.277" y="-749.096" font-family="Times New Roman,serif" font-size="14.00">union</text>
</g>
<!-- acm2016 -->
<g id="node4" class="node"><title>acm2016</title>
<ellipse fill="none" stroke="black" cx="88.3883" cy="-697.296" rx="88.2768" ry="69.0935"/>
<text text-anchor="middle" x="88.3883" y="-731.096" font-family="Times New Roman,serif" font-size="14.00">acm2016</text>
<text text-anchor="middle" x="88.3883" y="-716.096" font-family="Times New Roman,serif" font-size="14.00"> visited: 210</text>
<text text-anchor="middle" x="88.3883" y="-701.096" font-family="Times New Roman,serif" font-size="14.00"> selected: 5</text>
<text text-anchor="middle" x="88.3883" y="-686.096" font-family="Times New Roman,serif" font-size="14.00"> planilha: 210</text>
<text text-anchor="middle" x="88.3883" y="-671.096" font-family="Times New Roman,serif" font-size="14.00"> planilha selected: 5</text>
<text text-anchor="middle" x="88.3883" y="-656.096" font-family="Times New Roman,serif" font-size="14.00"> duplicados: 0</text>
</g>
<!-- s0&#45;&gt;acm2016 -->
<g id="edge3" class="edge"><title>s0&#45;&gt;acm2016</title>
<path fill="none" stroke="black" d="M264.798,-568.728C236.114,-589.752 196.21,-619 161.708,-644.289"/>
<polygon fill="black" stroke="black" points="159.519,-641.554 153.523,-650.289 163.657,-647.2 159.519,-641.554"/>
<text text-anchor="middle" x="210.277" y="-622.096" font-family="Times New Roman,serif" font-size="14.00">union</text>
</g>
<!-- sciencedirect2016 -->
<g id="node5" class="node"><title>sciencedirect2016</title>
<ellipse fill="none" stroke="black" cx="88.3883" cy="-540.296" rx="88.2768" ry="69.0935"/>
<text text-anchor="middle" x="88.3883" y="-574.096" font-family="Times New Roman,serif" font-size="14.00">sciencedirect2016</text>
<text text-anchor="middle" x="88.3883" y="-559.096" font-family="Times New Roman,serif" font-size="14.00"> visited: 249</text>
<text text-anchor="middle" x="88.3883" y="-544.096" font-family="Times New Roman,serif" font-size="14.00"> selected: 6</text>
<text text-anchor="middle" x="88.3883" y="-529.096" font-family="Times New Roman,serif" font-size="14.00"> planilha: 245</text>
<text text-anchor="middle" x="88.3883" y="-514.096" font-family="Times New Roman,serif" font-size="14.00"> planilha selected: 5</text>
<text text-anchor="middle" x="88.3883" y="-499.096" font-family="Times New Roman,serif" font-size="14.00"> duplicados: 4</text>
</g>
<!-- s0&#45;&gt;sciencedirect2016 -->
<g id="edge4" class="edge"><title>s0&#45;&gt;sciencedirect2016</title>
<path fill="none" stroke="black" d="M243.637,-540.296C226.036,-540.296 206.312,-540.296 187.004,-540.296"/>
<polygon fill="black" stroke="black" points="186.957,-536.797 176.957,-540.296 186.957,-543.797 186.957,-536.797"/>
<text text-anchor="middle" x="210.277" y="-544.096" font-family="Times New Roman,serif" font-size="14.00">union</text>
</g>
<!-- wiley2016 -->
<g id="node6" class="node"><title>wiley2016</title>
<ellipse fill="none" stroke="black" cx="88.3883" cy="-383.296" rx="88.2768" ry="69.0935"/>
<text text-anchor="middle" x="88.3883" y="-417.096" font-family="Times New Roman,serif" font-size="14.00">wiley2016</text>
<text text-anchor="middle" x="88.3883" y="-402.096" font-family="Times New Roman,serif" font-size="14.00"> visited: 294</text>
<text text-anchor="middle" x="88.3883" y="-387.096" font-family="Times New Roman,serif" font-size="14.00"> selected: 0</text>
<text text-anchor="middle" x="88.3883" y="-372.096" font-family="Times New Roman,serif" font-size="14.00"> planilha: 294</text>
<text text-anchor="middle" x="88.3883" y="-357.096" font-family="Times New Roman,serif" font-size="14.00"> planilha selected: 0</text>
<text text-anchor="middle" x="88.3883" y="-342.096" font-family="Times New Roman,serif" font-size="14.00"> duplicados: 0</text>
</g>
<!-- s0&#45;&gt;wiley2016 -->
<g id="edge5" class="edge"><title>s0&#45;&gt;wiley2016</title>
<path fill="none" stroke="black" d="M264.798,-511.865C236.114,-490.841 196.21,-461.592 161.708,-436.304"/>
<polygon fill="black" stroke="black" points="163.657,-433.393 153.523,-430.304 159.519,-439.039 163.657,-433.393"/>
<text text-anchor="middle" x="210.277" y="-484.096" font-family="Times New Roman,serif" font-size="14.00">union</text>
</g>
<!-- webofscience2016 -->
<g id="node7" class="node"><title>webofscience2016</title>
<ellipse fill="none" stroke="black" cx="88.3883" cy="-226.296" rx="88.2768" ry="69.0935"/>
<text text-anchor="middle" x="88.3883" y="-260.096" font-family="Times New Roman,serif" font-size="14.00">webofscience2016</text>
<text text-anchor="middle" x="88.3883" y="-245.096" font-family="Times New Roman,serif" font-size="14.00"> visited: 3</text>
<text text-anchor="middle" x="88.3883" y="-230.096" font-family="Times New Roman,serif" font-size="14.00"> selected: 0</text>
<text text-anchor="middle" x="88.3883" y="-215.096" font-family="Times New Roman,serif" font-size="14.00"> planilha: 3</text>
<text text-anchor="middle" x="88.3883" y="-200.096" font-family="Times New Roman,serif" font-size="14.00"> planilha selected: 0</text>
<text text-anchor="middle" x="88.3883" y="-185.096" font-family="Times New Roman,serif" font-size="14.00"> duplicados: 0</text>
</g>
<!-- s0&#45;&gt;webofscience2016 -->
<g id="edge6" class="edge"><title>s0&#45;&gt;webofscience2016</title>
<path fill="none" stroke="black" d="M288.577,-503.774C267.728,-455.503 226.858,-369.123 176.777,-305.296 171.028,-297.97 164.56,-290.751 157.811,-283.833"/>
<polygon fill="black" stroke="black" points="159.953,-281.027 150.397,-276.453 155.015,-285.988 159.953,-281.027"/>
<text text-anchor="middle" x="210.277" y="-381.096" font-family="Times New Roman,serif" font-size="14.00">union</text>
</g>
<!-- elcompendex2016 -->
<g id="node8" class="node"><title>elcompendex2016</title>
<ellipse fill="none" stroke="black" cx="88.3883" cy="-69.2965" rx="88.2768" ry="69.0935"/>
<text text-anchor="middle" x="88.3883" y="-103.096" font-family="Times New Roman,serif" font-size="14.00">elcompendex2016</text>
<text text-anchor="middle" x="88.3883" y="-88.0965" font-family="Times New Roman,serif" font-size="14.00"> visited: 9</text>
<text text-anchor="middle" x="88.3883" y="-73.0965" font-family="Times New Roman,serif" font-size="14.00"> selected: 3</text>
<text text-anchor="middle" x="88.3883" y="-58.0965" font-family="Times New Roman,serif" font-size="14.00"> planilha: 1</text>
<text text-anchor="middle" x="88.3883" y="-43.0965" font-family="Times New Roman,serif" font-size="14.00"> planilha selected: 0</text>
<text text-anchor="middle" x="88.3883" y="-28.0965" font-family="Times New Roman,serif" font-size="14.00"> duplicados: 8</text>
</g>
<!-- s0&#45;&gt;elcompendex2016 -->
<g id="edge7" class="edge"><title>s0&#45;&gt;elcompendex2016</title>
<path fill="none" stroke="black" d="M298.142,-502.956C286.117,-429.844 252.163,-264.798 176.777,-148.296 171.636,-140.352 165.499,-132.699 158.895,-125.492"/>
<polygon fill="black" stroke="black" points="161.016,-122.648 151.569,-117.853 155.964,-127.493 161.016,-122.648"/>
<text text-anchor="middle" x="210.277" y="-242.096" font-family="Times New Roman,serif" font-size="14.00">union</text>
</g>
</g>
</svg>
