<?xml version="1.0" encoding="UTF-8" standalone="no"?>
<!DOCTYPE svg PUBLIC "-//W3C//DTD SVG 1.1//EN"
 "http://www.w3.org/Graphics/SVG/1.1/DTD/svg11.dtd">
<!-- Generated by graphviz version 2.38.0 (20140413.2041)
 -->
<!-- Title: G Pages: 1 -->
<svg width="366pt" height="641pt"
 viewBox="0.00 0.00 366.33 640.95" xmlns="http://www.w3.org/2000/svg" xmlns:xlink="http://www.w3.org/1999/xlink">
<g id="graph0" class="graph" transform="scale(1 1) rotate(0) translate(4 636.953)">
<title>G</title>
<polygon fill="white" stroke="none" points="-4,4 -4,-636.953 362.328,-636.953 362.328,4 -4,4"/>
<!-- s0 -->
<g id="node1" class="node"><title>s0</title>
<ellipse fill="none" stroke="black" cx="297.517" cy="-316.477" rx="60.623" ry="37.4533"/>
<text text-anchor="middle" x="297.517" y="-327.777" font-family="Times New Roman,serif" font-size="14.00">s0</text>
<text text-anchor="middle" x="297.517" y="-312.777" font-family="Times New Roman,serif" font-size="14.00"> visited: 935</text>
<text text-anchor="middle" x="297.517" y="-297.777" font-family="Times New Roman,serif" font-size="14.00"> selected: 17</text>
</g>
<!-- scopus2016 -->
<g id="node2" class="node"><title>scopus2016</title>
<ellipse fill="none" stroke="black" cx="84.8528" cy="-595.477" rx="59.2941" ry="37.4533"/>
<text text-anchor="middle" x="84.8528" y="-606.777" font-family="Times New Roman,serif" font-size="14.00">scopus2016</text>
<text text-anchor="middle" x="84.8528" y="-591.777" font-family="Times New Roman,serif" font-size="14.00"> visited: 77</text>
<text text-anchor="middle" x="84.8528" y="-576.777" font-family="Times New Roman,serif" font-size="14.00"> selected: 7</text>
</g>
<!-- s0&#45;&gt;scopus2016 -->
<g id="edge1" class="edge"><title>s0&#45;&gt;scopus2016</title>
<path fill="none" stroke="black" d="M283.91,-353.04C265.376,-402.427 226.688,-490.885 169.706,-548.477 161.977,-556.288 152.677,-563.19 143.125,-569.134"/>
<polygon fill="black" stroke="black" points="141.159,-566.23 134.32,-574.323 144.712,-572.261 141.159,-566.23"/>
<text text-anchor="middle" x="203.206" y="-530.277" font-family="Times New Roman,serif" font-size="14.00">union</text>
</g>
<!-- springer2016 -->
<g id="node3" class="node"><title>springer2016</title>
<ellipse fill="none" stroke="black" cx="84.8528" cy="-502.477" rx="62.8651" ry="37.4533"/>
<text text-anchor="middle" x="84.8528" y="-513.777" font-family="Times New Roman,serif" font-size="14.00">springer2016</text>
<text text-anchor="middle" x="84.8528" y="-498.777" font-family="Times New Roman,serif" font-size="14.00"> visited: 124</text>
<text text-anchor="middle" x="84.8528" y="-483.777" font-family="Times New Roman,serif" font-size="14.00"> selected: 1</text>
</g>
<!-- s0&#45;&gt;springer2016 -->
<g id="edge2" class="edge"><title>s0&#45;&gt;springer2016</title>
<path fill="none" stroke="black" d="M270.928,-350.195C246.991,-380.249 209.103,-424.197 169.706,-455.477 161.485,-462.004 152.242,-468.161 142.975,-473.735"/>
<polygon fill="black" stroke="black" points="140.996,-470.838 134.116,-478.895 144.518,-476.887 140.996,-470.838"/>
<text text-anchor="middle" x="203.206" y="-442.277" font-family="Times New Roman,serif" font-size="14.00">union</text>
</g>
<!-- acm2016 -->
<g id="node4" class="node"><title>acm2016</title>
<ellipse fill="none" stroke="black" cx="84.8528" cy="-409.477" rx="58.8803" ry="37.4533"/>
<text text-anchor="middle" x="84.8528" y="-420.777" font-family="Times New Roman,serif" font-size="14.00">acm2016</text>
<text text-anchor="middle" x="84.8528" y="-405.777" font-family="Times New Roman,serif" font-size="14.00"> visited: 210</text>
<text text-anchor="middle" x="84.8528" y="-390.777" font-family="Times New Roman,serif" font-size="14.00"> selected: 5</text>
</g>
<!-- s0&#45;&gt;acm2016 -->
<g id="edge3" class="edge"><title>s0&#45;&gt;acm2016</title>
<path fill="none" stroke="black" d="M247.657,-338.046C216.46,-351.819 175.88,-369.733 143.164,-384.176"/>
<polygon fill="black" stroke="black" points="141.456,-381.104 133.722,-388.344 144.283,-387.508 141.456,-381.104"/>
<text text-anchor="middle" x="203.206" y="-366.277" font-family="Times New Roman,serif" font-size="14.00">union</text>
</g>
<!-- sciencedirect2016 -->
<g id="node5" class="node"><title>sciencedirect2016</title>
<ellipse fill="none" stroke="black" cx="84.8528" cy="-316.477" rx="82.0488" ry="37.4533"/>
<text text-anchor="middle" x="84.8528" y="-327.777" font-family="Times New Roman,serif" font-size="14.00">sciencedirect2016</text>
<text text-anchor="middle" x="84.8528" y="-312.777" font-family="Times New Roman,serif" font-size="14.00"> visited: 249</text>
<text text-anchor="middle" x="84.8528" y="-297.777" font-family="Times New Roman,serif" font-size="14.00"> selected: 6</text>
</g>
<!-- s0&#45;&gt;sciencedirect2016 -->
<g id="edge4" class="edge"><title>s0&#45;&gt;sciencedirect2016</title>
<path fill="none" stroke="black" d="M236.431,-316.477C218.016,-316.477 197.324,-316.477 177.311,-316.477"/>
<polygon fill="black" stroke="black" points="177.24,-312.977 167.24,-316.477 177.24,-319.977 177.24,-312.977"/>
<text text-anchor="middle" x="203.206" y="-320.277" font-family="Times New Roman,serif" font-size="14.00">union</text>
</g>
<!-- wiley2016 -->
<g id="node6" class="node"><title>wiley2016</title>
<ellipse fill="none" stroke="black" cx="84.8528" cy="-223.477" rx="58.8803" ry="37.4533"/>
<text text-anchor="middle" x="84.8528" y="-234.777" font-family="Times New Roman,serif" font-size="14.00">wiley2016</text>
<text text-anchor="middle" x="84.8528" y="-219.777" font-family="Times New Roman,serif" font-size="14.00"> visited: 295</text>
<text text-anchor="middle" x="84.8528" y="-204.777" font-family="Times New Roman,serif" font-size="14.00"> selected: 0</text>
</g>
<!-- s0&#45;&gt;wiley2016 -->
<g id="edge5" class="edge"><title>s0&#45;&gt;wiley2016</title>
<path fill="none" stroke="black" d="M247.657,-294.907C216.46,-281.135 175.88,-263.22 143.164,-248.777"/>
<polygon fill="black" stroke="black" points="144.283,-245.446 133.722,-244.609 141.456,-251.849 144.283,-245.446"/>
<text text-anchor="middle" x="203.206" y="-284.277" font-family="Times New Roman,serif" font-size="14.00">union</text>
</g>
<!-- webofscience2016 -->
<g id="node7" class="node"><title>webofscience2016</title>
<ellipse fill="none" stroke="black" cx="84.8528" cy="-130.477" rx="84.7059" ry="37.4533"/>
<text text-anchor="middle" x="84.8528" y="-141.777" font-family="Times New Roman,serif" font-size="14.00">webofscience2016</text>
<text text-anchor="middle" x="84.8528" y="-126.777" font-family="Times New Roman,serif" font-size="14.00"> visited: 3</text>
<text text-anchor="middle" x="84.8528" y="-111.777" font-family="Times New Roman,serif" font-size="14.00"> selected: 0</text>
</g>
<!-- s0&#45;&gt;webofscience2016 -->
<g id="edge6" class="edge"><title>s0&#45;&gt;webofscience2016</title>
<path fill="none" stroke="black" d="M270.928,-282.759C246.991,-252.704 209.103,-208.757 169.706,-177.477 163.64,-172.661 157.019,-168.047 150.241,-163.719"/>
<polygon fill="black" stroke="black" points="151.954,-160.663 141.604,-158.398 148.282,-166.623 151.954,-160.663"/>
<text text-anchor="middle" x="203.206" y="-223.277" font-family="Times New Roman,serif" font-size="14.00">union</text>
</g>
<!-- elcompendex2016 -->
<g id="node8" class="node"><title>elcompendex2016</title>
<ellipse fill="none" stroke="black" cx="84.8528" cy="-37.4767" rx="83.3772" ry="37.4533"/>
<text text-anchor="middle" x="84.8528" y="-48.7767" font-family="Times New Roman,serif" font-size="14.00">elcompendex2016</text>
<text text-anchor="middle" x="84.8528" y="-33.7767" font-family="Times New Roman,serif" font-size="14.00"> visited: 8</text>
<text text-anchor="middle" x="84.8528" y="-18.7767" font-family="Times New Roman,serif" font-size="14.00"> selected: 2</text>
</g>
<!-- s0&#45;&gt;elcompendex2016 -->
<g id="edge7" class="edge"><title>s0&#45;&gt;elcompendex2016</title>
<path fill="none" stroke="black" d="M283.91,-279.914C265.376,-230.527 226.688,-142.068 169.706,-84.4767 164.541,-79.2568 158.675,-74.4429 152.5,-70.0495"/>
<polygon fill="black" stroke="black" points="154.186,-66.9664 143.927,-64.3206 150.297,-72.7866 154.186,-66.9664"/>
<text text-anchor="middle" x="203.206" y="-151.277" font-family="Times New Roman,serif" font-size="14.00">union</text>
</g>
</g>
</svg>
