<?xml version="1.0" encoding="UTF-8" standalone="no"?>
<!DOCTYPE svg PUBLIC "-//W3C//DTD SVG 1.1//EN"
 "http://www.w3.org/Graphics/SVG/1.1/DTD/svg11.dtd">
<!-- Generated by graphviz version 2.38.0 (20140413.2041)
 -->
<!-- Title: G Pages: 1 -->
<svg width="1157pt" height="734pt"
 viewBox="0.00 0.00 1157.46 733.95" xmlns="http://www.w3.org/2000/svg" xmlns:xlink="http://www.w3.org/1999/xlink">
<g id="graph0" class="graph" transform="scale(1 1) rotate(0) translate(4 729.953)">
<title>G</title>
<polygon fill="white" stroke="none" points="-4,4 -4,-729.953 1153.46,-729.953 1153.46,4 -4,4"/>
<!-- s6 -->
<g id="node1" class="node"><title>s6</title>
<ellipse fill="none" stroke="black" cx="1088.65" cy="-350.477" rx="60.623" ry="37.4533"/>
<text text-anchor="middle" x="1088.65" y="-361.777" font-family="Times New Roman,serif" font-size="14.00">s6</text>
<text text-anchor="middle" x="1088.65" y="-346.777" font-family="Times New Roman,serif" font-size="14.00"> visited: 932</text>
<text text-anchor="middle" x="1088.65" y="-331.777" font-family="Times New Roman,serif" font-size="14.00"> selected: 14</text>
</g>
<!-- s4 -->
<g id="node2" class="node"><title>s4</title>
<ellipse fill="none" stroke="black" cx="900.029" cy="-390.477" rx="60.623" ry="37.4533"/>
<text text-anchor="middle" x="900.029" y="-401.777" font-family="Times New Roman,serif" font-size="14.00">s4</text>
<text text-anchor="middle" x="900.029" y="-386.777" font-family="Times New Roman,serif" font-size="14.00"> visited: 894</text>
<text text-anchor="middle" x="900.029" y="-371.777" font-family="Times New Roman,serif" font-size="14.00"> selected: 14</text>
</g>
<!-- s6&#45;&gt;s4 -->
<g id="edge1" class="edge"><title>s6&#45;&gt;s4</title>
<path fill="none" stroke="black" d="M1030.9,-362.641C1010.99,-366.907 988.45,-371.739 967.799,-376.165"/>
<polygon fill="black" stroke="black" points="966.877,-372.783 957.833,-378.301 968.345,-379.628 966.877,-372.783"/>
<text text-anchor="middle" x="994.34" y="-377.277" font-family="Times New Roman,serif" font-size="14.00">union</text>
</g>
<!-- s5 -->
<g id="node3" class="node"><title>s5</title>
<ellipse fill="none" stroke="black" cx="900.029" cy="-297.477" rx="60.623" ry="37.4533"/>
<text text-anchor="middle" x="900.029" y="-308.777" font-family="Times New Roman,serif" font-size="14.00">s5</text>
<text text-anchor="middle" x="900.029" y="-293.777" font-family="Times New Roman,serif" font-size="14.00"> visited: 811</text>
<text text-anchor="middle" x="900.029" y="-278.777" font-family="Times New Roman,serif" font-size="14.00"> selected: 14</text>
</g>
<!-- s6&#45;&gt;s5 -->
<g id="edge2" class="edge"><title>s6&#45;&gt;s5</title>
<path fill="none" stroke="black" d="M1033.17,-335.004C1011.9,-328.963 987.345,-321.99 965.221,-315.707"/>
<polygon fill="black" stroke="black" points="966.153,-312.333 955.577,-312.968 964.24,-319.067 966.153,-312.333"/>
<text text-anchor="middle" x="994.34" y="-331.277" font-family="Times New Roman,serif" font-size="14.00">union</text>
</g>
<!-- s3 -->
<g id="node4" class="node"><title>s3</title>
<ellipse fill="none" stroke="black" cx="675.406" cy="-346.477" rx="60.623" ry="37.4533"/>
<text text-anchor="middle" x="675.406" y="-357.777" font-family="Times New Roman,serif" font-size="14.00">s3</text>
<text text-anchor="middle" x="675.406" y="-342.777" font-family="Times New Roman,serif" font-size="14.00"> visited: 773</text>
<text text-anchor="middle" x="675.406" y="-327.777" font-family="Times New Roman,serif" font-size="14.00"> selected: 14</text>
</g>
<!-- s4&#45;&gt;s3 -->
<g id="edge3" class="edge"><title>s4&#45;&gt;s3</title>
<path fill="none" stroke="black" d="M841.987,-379.203C811.995,-373.275 775.044,-365.972 743.663,-359.77"/>
<polygon fill="black" stroke="black" points="744.175,-356.303 733.686,-357.798 742.818,-363.17 744.175,-356.303"/>
<text text-anchor="middle" x="787.717" y="-409.277" font-family="Times New Roman,serif" font-size="14.00">forward</text>
<text text-anchor="middle" x="787.717" y="-394.277" font-family="Times New Roman,serif" font-size="14.00"> visited: 121</text>
<text text-anchor="middle" x="787.717" y="-379.277" font-family="Times New Roman,serif" font-size="14.00"> selected: 0</text>
</g>
<!-- s5&#45;&gt;s3 -->
<g id="edge4" class="edge"><title>s5&#45;&gt;s3</title>
<path fill="none" stroke="black" d="M839.135,-300.171C812.77,-302.357 781.626,-306.315 754.217,-313.477 747.54,-315.221 740.69,-317.439 733.957,-319.896"/>
<polygon fill="black" stroke="black" points="732.287,-316.788 724.207,-323.642 734.797,-323.323 732.287,-316.788"/>
<text text-anchor="middle" x="787.717" y="-347.277" font-family="Times New Roman,serif" font-size="14.00">backward</text>
<text text-anchor="middle" x="787.717" y="-332.277" font-family="Times New Roman,serif" font-size="14.00"> visited: 38</text>
<text text-anchor="middle" x="787.717" y="-317.277" font-family="Times New Roman,serif" font-size="14.00"> selected: 0</text>
</g>
<!-- s1 -->
<g id="node5" class="node"><title>s1</title>
<ellipse fill="none" stroke="black" cx="486.784" cy="-406.477" rx="60.623" ry="37.4533"/>
<text text-anchor="middle" x="486.784" y="-417.777" font-family="Times New Roman,serif" font-size="14.00">s1</text>
<text text-anchor="middle" x="486.784" y="-402.777" font-family="Times New Roman,serif" font-size="14.00"> visited: 551</text>
<text text-anchor="middle" x="486.784" y="-387.777" font-family="Times New Roman,serif" font-size="14.00"> selected: 12</text>
</g>
<!-- s3&#45;&gt;s1 -->
<g id="edge5" class="edge"><title>s3&#45;&gt;s1</title>
<path fill="none" stroke="black" d="M621.177,-363.59C599.213,-370.652 573.59,-378.89 550.705,-386.247"/>
<polygon fill="black" stroke="black" points="549.532,-382.948 541.083,-389.341 551.675,-389.612 549.532,-382.948"/>
<text text-anchor="middle" x="581.095" y="-384.277" font-family="Times New Roman,serif" font-size="14.00">union</text>
</g>
<!-- s2 -->
<g id="node6" class="node"><title>s2</title>
<ellipse fill="none" stroke="black" cx="486.784" cy="-313.477" rx="60.623" ry="37.4533"/>
<text text-anchor="middle" x="486.784" y="-324.777" font-family="Times New Roman,serif" font-size="14.00">s2</text>
<text text-anchor="middle" x="486.784" y="-309.777" font-family="Times New Roman,serif" font-size="14.00"> visited: 703</text>
<text text-anchor="middle" x="486.784" y="-294.777" font-family="Times New Roman,serif" font-size="14.00"> selected: 14</text>
</g>
<!-- s3&#45;&gt;s2 -->
<g id="edge6" class="edge"><title>s3&#45;&gt;s2</title>
<path fill="none" stroke="black" d="M616.636,-336.261C597.313,-332.844 575.6,-329.005 555.583,-325.465"/>
<polygon fill="black" stroke="black" points="556.059,-321.995 545.603,-323.701 554.84,-328.888 556.059,-321.995"/>
<text text-anchor="middle" x="581.095" y="-336.277" font-family="Times New Roman,serif" font-size="14.00">union</text>
</g>
<!-- s0 -->
<g id="node7" class="node"><title>s0</title>
<ellipse fill="none" stroke="black" cx="262.161" cy="-362.477" rx="60.623" ry="37.4533"/>
<text text-anchor="middle" x="262.161" y="-373.777" font-family="Times New Roman,serif" font-size="14.00">s0</text>
<text text-anchor="middle" x="262.161" y="-358.777" font-family="Times New Roman,serif" font-size="14.00"> visited: 480</text>
<text text-anchor="middle" x="262.161" y="-343.777" font-family="Times New Roman,serif" font-size="14.00"> selected: 11</text>
</g>
<!-- s1&#45;&gt;s0 -->
<g id="edge7" class="edge"><title>s1&#45;&gt;s0</title>
<path fill="none" stroke="black" d="M428.742,-395.203C398.75,-389.275 361.799,-381.972 330.418,-375.77"/>
<polygon fill="black" stroke="black" points="330.93,-372.303 320.441,-373.798 329.573,-379.17 330.93,-372.303"/>
<text text-anchor="middle" x="374.473" y="-425.277" font-family="Times New Roman,serif" font-size="14.00">forward</text>
<text text-anchor="middle" x="374.473" y="-410.277" font-family="Times New Roman,serif" font-size="14.00"> visited: 71</text>
<text text-anchor="middle" x="374.473" y="-395.277" font-family="Times New Roman,serif" font-size="14.00"> selected: 1</text>
</g>
<!-- s2&#45;&gt;s0 -->
<g id="edge8" class="edge"><title>s2&#45;&gt;s0</title>
<path fill="none" stroke="black" d="M425.89,-316.171C399.525,-318.357 368.382,-322.315 340.973,-329.477 334.296,-331.221 327.446,-333.439 320.712,-335.896"/>
<polygon fill="black" stroke="black" points="319.042,-332.788 310.963,-339.642 321.553,-339.323 319.042,-332.788"/>
<text text-anchor="middle" x="374.473" y="-363.277" font-family="Times New Roman,serif" font-size="14.00">backward</text>
<text text-anchor="middle" x="374.473" y="-348.277" font-family="Times New Roman,serif" font-size="14.00"> visited: 223</text>
<text text-anchor="middle" x="374.473" y="-333.277" font-family="Times New Roman,serif" font-size="14.00"> selected: 3</text>
</g>
<!-- googlescholar -->
<g id="node8" class="node"><title>googlescholar</title>
<ellipse fill="none" stroke="black" cx="67.1751" cy="-688.477" rx="67.3507" ry="37.4533"/>
<text text-anchor="middle" x="67.1751" y="-699.777" font-family="Times New Roman,serif" font-size="14.00">googlescholar</text>
<text text-anchor="middle" x="67.1751" y="-684.777" font-family="Times New Roman,serif" font-size="14.00"> visited: 466</text>
<text text-anchor="middle" x="67.1751" y="-669.777" font-family="Times New Roman,serif" font-size="14.00"> selected: 11</text>
</g>
<!-- s0&#45;&gt;googlescholar -->
<g id="edge9" class="edge"><title>s0&#45;&gt;googlescholar</title>
<path fill="none" stroke="black" d="M251.637,-399.626C235.456,-456.889 198.008,-567.802 134.35,-641.477 130.455,-645.985 126.041,-650.286 121.386,-654.326"/>
<polygon fill="black" stroke="black" points="118.907,-651.832 113.374,-660.867 123.334,-657.254 118.907,-651.832"/>
<text text-anchor="middle" x="167.85" y="-618.277" font-family="Times New Roman,serif" font-size="14.00">union</text>
</g>
<!-- scopus -->
<g id="node9" class="node"><title>scopus</title>
<ellipse fill="none" stroke="black" cx="67.1751" cy="-595.477" rx="55.7232" ry="37.4533"/>
<text text-anchor="middle" x="67.1751" y="-606.777" font-family="Times New Roman,serif" font-size="14.00">scopus</text>
<text text-anchor="middle" x="67.1751" y="-591.777" font-family="Times New Roman,serif" font-size="14.00"> visited: 79</text>
<text text-anchor="middle" x="67.1751" y="-576.777" font-family="Times New Roman,serif" font-size="14.00"> selected: 3</text>
</g>
<!-- s0&#45;&gt;scopus -->
<g id="edge10" class="edge"><title>s0&#45;&gt;scopus</title>
<path fill="none" stroke="black" d="M242.008,-398.107C219.616,-437.705 179.784,-502.164 134.35,-548.477 129.126,-553.802 123.233,-558.934 117.171,-563.726"/>
<polygon fill="black" stroke="black" points="114.702,-561.206 108.846,-570.036 118.93,-566.785 114.702,-561.206"/>
<text text-anchor="middle" x="167.85" y="-530.277" font-family="Times New Roman,serif" font-size="14.00">union</text>
</g>
<!-- springer -->
<g id="node10" class="node"><title>springer</title>
<ellipse fill="none" stroke="black" cx="67.1751" cy="-502.477" rx="55.7232" ry="37.4533"/>
<text text-anchor="middle" x="67.1751" y="-513.777" font-family="Times New Roman,serif" font-size="14.00">springer</text>
<text text-anchor="middle" x="67.1751" y="-498.777" font-family="Times New Roman,serif" font-size="14.00"> visited: 65</text>
<text text-anchor="middle" x="67.1751" y="-483.777" font-family="Times New Roman,serif" font-size="14.00"> selected: 1</text>
</g>
<!-- s0&#45;&gt;springer -->
<g id="edge11" class="edge"><title>s0&#45;&gt;springer</title>
<path fill="none" stroke="black" d="M222.423,-391.122C197.369,-409.589 164.015,-434.066 134.35,-455.477 128.003,-460.058 121.295,-464.863 114.681,-469.581"/>
<polygon fill="black" stroke="black" points="112.505,-466.834 106.389,-475.485 116.565,-472.536 112.505,-466.834"/>
<text text-anchor="middle" x="167.85" y="-444.277" font-family="Times New Roman,serif" font-size="14.00">union</text>
</g>
<!-- acm -->
<g id="node11" class="node"><title>acm</title>
<ellipse fill="none" stroke="black" cx="67.1751" cy="-409.477" rx="55.7232" ry="37.4533"/>
<text text-anchor="middle" x="67.1751" y="-420.777" font-family="Times New Roman,serif" font-size="14.00">acm</text>
<text text-anchor="middle" x="67.1751" y="-405.777" font-family="Times New Roman,serif" font-size="14.00"> visited: 0</text>
<text text-anchor="middle" x="67.1751" y="-390.777" font-family="Times New Roman,serif" font-size="14.00"> selected: 0</text>
</g>
<!-- s0&#45;&gt;acm -->
<g id="edge12" class="edge"><title>s0&#45;&gt;acm</title>
<path fill="none" stroke="black" d="M205.342,-376.071C181.664,-381.837 153.988,-388.578 129.721,-394.488"/>
<polygon fill="black" stroke="black" points="128.792,-391.112 119.904,-396.879 130.448,-397.913 128.792,-391.112"/>
<text text-anchor="middle" x="167.85" y="-393.277" font-family="Times New Roman,serif" font-size="14.00">union</text>
</g>
<!-- sciencedirect -->
<g id="node12" class="node"><title>sciencedirect</title>
<ellipse fill="none" stroke="black" cx="67.1751" cy="-316.477" rx="62.8651" ry="37.4533"/>
<text text-anchor="middle" x="67.1751" y="-327.777" font-family="Times New Roman,serif" font-size="14.00">sciencedirect</text>
<text text-anchor="middle" x="67.1751" y="-312.777" font-family="Times New Roman,serif" font-size="14.00"> visited: 21</text>
<text text-anchor="middle" x="67.1751" y="-297.777" font-family="Times New Roman,serif" font-size="14.00"> selected: 0</text>
</g>
<!-- s0&#45;&gt;sciencedirect -->
<g id="edge13" class="edge"><title>s0&#45;&gt;sciencedirect</title>
<path fill="none" stroke="black" d="M205.083,-349.11C183.464,-343.957 158.543,-338.017 135.936,-332.628"/>
<polygon fill="black" stroke="black" points="136.61,-329.191 126.071,-330.277 134.987,-336 136.61,-329.191"/>
<text text-anchor="middle" x="167.85" y="-348.277" font-family="Times New Roman,serif" font-size="14.00">union</text>
</g>
<!-- wiley -->
<g id="node13" class="node"><title>wiley</title>
<ellipse fill="none" stroke="black" cx="67.1751" cy="-223.477" rx="55.7232" ry="37.4533"/>
<text text-anchor="middle" x="67.1751" y="-234.777" font-family="Times New Roman,serif" font-size="14.00">wiley</text>
<text text-anchor="middle" x="67.1751" y="-219.777" font-family="Times New Roman,serif" font-size="14.00"> visited: 15</text>
<text text-anchor="middle" x="67.1751" y="-204.777" font-family="Times New Roman,serif" font-size="14.00"> selected: 0</text>
</g>
<!-- s0&#45;&gt;wiley -->
<g id="edge14" class="edge"><title>s0&#45;&gt;wiley</title>
<path fill="none" stroke="black" d="M222.103,-333.985C197.067,-315.761 163.848,-291.651 134.35,-270.477 127.992,-265.912 121.277,-261.116 114.66,-256.403"/>
<polygon fill="black" stroke="black" points="116.542,-253.447 106.365,-250.502 112.484,-259.15 116.542,-253.447"/>
<text text-anchor="middle" x="167.85" y="-310.277" font-family="Times New Roman,serif" font-size="14.00">union</text>
</g>
<!-- webofscience -->
<g id="node14" class="node"><title>webofscience</title>
<ellipse fill="none" stroke="black" cx="67.1751" cy="-130.477" rx="65.5227" ry="37.4533"/>
<text text-anchor="middle" x="67.1751" y="-141.777" font-family="Times New Roman,serif" font-size="14.00">webofscience</text>
<text text-anchor="middle" x="67.1751" y="-126.777" font-family="Times New Roman,serif" font-size="14.00"> visited: 0</text>
<text text-anchor="middle" x="67.1751" y="-111.777" font-family="Times New Roman,serif" font-size="14.00"> selected: 0</text>
</g>
<!-- s0&#45;&gt;webofscience -->
<g id="edge15" class="edge"><title>s0&#45;&gt;webofscience</title>
<path fill="none" stroke="black" d="M241.967,-327.046C219.54,-287.668 179.675,-223.563 134.35,-177.477 129.941,-172.993 125.058,-168.645 120.001,-164.52"/>
<polygon fill="black" stroke="black" points="121.989,-161.632 111.953,-158.236 117.681,-167.149 121.989,-161.632"/>
<text text-anchor="middle" x="167.85" y="-238.277" font-family="Times New Roman,serif" font-size="14.00">union</text>
</g>
<!-- ieee -->
<g id="node15" class="node"><title>ieee</title>
<ellipse fill="none" stroke="black" cx="67.1751" cy="-37.4767" rx="55.7232" ry="37.4533"/>
<text text-anchor="middle" x="67.1751" y="-48.7767" font-family="Times New Roman,serif" font-size="14.00">ieee</text>
<text text-anchor="middle" x="67.1751" y="-33.7767" font-family="Times New Roman,serif" font-size="14.00"> visited: 0</text>
<text text-anchor="middle" x="67.1751" y="-18.7767" font-family="Times New Roman,serif" font-size="14.00"> selected: 0</text>
</g>
<!-- s0&#45;&gt;ieee -->
<g id="edge16" class="edge"><title>s0&#45;&gt;ieee</title>
<path fill="none" stroke="black" d="M251.553,-325.504C235.261,-268.504 197.666,-158.065 134.35,-84.4767 129.485,-78.8219 123.802,-73.4961 117.848,-68.6049"/>
<polygon fill="black" stroke="black" points="119.658,-65.5793 109.612,-62.2145 115.367,-71.1098 119.658,-65.5793"/>
<text text-anchor="middle" x="167.85" y="-157.277" font-family="Times New Roman,serif" font-size="14.00">union</text>
</g>
</g>
</svg>
