<?xml version="1.0" encoding="UTF-8" standalone="no"?>
<!DOCTYPE svg PUBLIC "-//W3C//DTD SVG 1.1//EN"
 "http://www.w3.org/Graphics/SVG/1.1/DTD/svg11.dtd">
<!-- Generated by graphviz version 2.38.0 (20140413.2041)
 -->
<!-- Title: G Pages: 1 -->
<svg width="996pt" height="192pt"
 viewBox="0.00 0.00 995.71 191.95" xmlns="http://www.w3.org/2000/svg" xmlns:xlink="http://www.w3.org/1999/xlink">
<g id="graph0" class="graph" transform="scale(1 1) rotate(0) translate(4 187.953)">
<title>G</title>
<polygon fill="white" stroke="none" points="-4,4 -4,-187.953 991.71,-187.953 991.71,4 -4,4"/>
<!-- s6 -->
<g id="node1" class="node"><title>s6</title>
<ellipse fill="none" stroke="black" cx="926.899" cy="-90.4767" rx="60.623" ry="37.4533"/>
<text text-anchor="middle" x="926.899" y="-101.777" font-family="Times New Roman,serif" font-size="14.00">s6</text>
<text text-anchor="middle" x="926.899" y="-86.7767" font-family="Times New Roman,serif" font-size="14.00"> visited: 442</text>
<text text-anchor="middle" x="926.899" y="-71.7767" font-family="Times New Roman,serif" font-size="14.00"> selected: 11</text>
</g>
<!-- s4 -->
<g id="node2" class="node"><title>s4</title>
<ellipse fill="none" stroke="black" cx="738.276" cy="-130.477" rx="60.623" ry="37.4533"/>
<text text-anchor="middle" x="738.276" y="-141.777" font-family="Times New Roman,serif" font-size="14.00">s4</text>
<text text-anchor="middle" x="738.276" y="-126.777" font-family="Times New Roman,serif" font-size="14.00"> visited: 343</text>
<text text-anchor="middle" x="738.276" y="-111.777" font-family="Times New Roman,serif" font-size="14.00"> selected: 11</text>
</g>
<!-- s6&#45;&gt;s4 -->
<g id="edge1" class="edge"><title>s6&#45;&gt;s4</title>
<path fill="none" stroke="black" d="M869.146,-102.641C849.24,-106.907 826.697,-111.739 806.047,-116.165"/>
<polygon fill="black" stroke="black" points="805.125,-112.783 796.081,-118.301 806.592,-119.628 805.125,-112.783"/>
<text text-anchor="middle" x="832.587" y="-116.277" font-family="Times New Roman,serif" font-size="14.00">union</text>
</g>
<!-- s5 -->
<g id="node3" class="node"><title>s5</title>
<ellipse fill="none" stroke="black" cx="738.276" cy="-37.4767" rx="60.623" ry="37.4533"/>
<text text-anchor="middle" x="738.276" y="-48.7767" font-family="Times New Roman,serif" font-size="14.00">s5</text>
<text text-anchor="middle" x="738.276" y="-33.7767" font-family="Times New Roman,serif" font-size="14.00"> visited: 306</text>
<text text-anchor="middle" x="738.276" y="-18.7767" font-family="Times New Roman,serif" font-size="14.00"> selected: 11</text>
</g>
<!-- s6&#45;&gt;s5 -->
<g id="edge2" class="edge"><title>s6&#45;&gt;s5</title>
<path fill="none" stroke="black" d="M871.418,-75.0044C850.144,-68.9627 825.593,-61.9902 803.469,-55.707"/>
<polygon fill="black" stroke="black" points="804.4,-52.3333 793.825,-52.9682 802.488,-59.067 804.4,-52.3333"/>
<text text-anchor="middle" x="832.587" y="-71.2767" font-family="Times New Roman,serif" font-size="14.00">union</text>
</g>
<!-- s3 -->
<g id="node4" class="node"><title>s3</title>
<ellipse fill="none" stroke="black" cx="513.654" cy="-86.4767" rx="60.623" ry="37.4533"/>
<text text-anchor="middle" x="513.654" y="-97.7767" font-family="Times New Roman,serif" font-size="14.00">s3</text>
<text text-anchor="middle" x="513.654" y="-82.7767" font-family="Times New Roman,serif" font-size="14.00"> visited: 204</text>
<text text-anchor="middle" x="513.654" y="-67.7767" font-family="Times New Roman,serif" font-size="14.00"> selected: 11</text>
</g>
<!-- s4&#45;&gt;s3 -->
<g id="edge3" class="edge"><title>s4&#45;&gt;s3</title>
<path fill="none" stroke="black" d="M680.235,-119.203C650.243,-113.275 613.292,-105.972 581.911,-99.7696"/>
<polygon fill="black" stroke="black" points="582.423,-96.3031 571.934,-97.7977 581.065,-103.17 582.423,-96.3031"/>
<text text-anchor="middle" x="625.965" y="-148.277" font-family="Times New Roman,serif" font-size="14.00">forward</text>
<text text-anchor="middle" x="625.965" y="-133.277" font-family="Times New Roman,serif" font-size="14.00"> visited: 139</text>
<text text-anchor="middle" x="625.965" y="-118.277" font-family="Times New Roman,serif" font-size="14.00"> selected: 0</text>
</g>
<!-- s5&#45;&gt;s3 -->
<g id="edge4" class="edge"><title>s5&#45;&gt;s3</title>
<path fill="none" stroke="black" d="M677.382,-40.1708C651.018,-42.3573 619.874,-46.315 592.465,-53.4767 585.788,-55.2213 578.938,-57.4387 572.204,-59.8963"/>
<polygon fill="black" stroke="black" points="570.535,-56.7882 562.455,-63.6417 573.045,-63.3226 570.535,-56.7882"/>
<text text-anchor="middle" x="625.965" y="-87.2767" font-family="Times New Roman,serif" font-size="14.00">backward</text>
<text text-anchor="middle" x="625.965" y="-72.2767" font-family="Times New Roman,serif" font-size="14.00"> visited: 102</text>
<text text-anchor="middle" x="625.965" y="-57.2767" font-family="Times New Roman,serif" font-size="14.00"> selected: 0</text>
</g>
<!-- s1 -->
<g id="node5" class="node"><title>s1</title>
<ellipse fill="none" stroke="black" cx="325.032" cy="-146.477" rx="55.7232" ry="37.4533"/>
<text text-anchor="middle" x="325.032" y="-157.777" font-family="Times New Roman,serif" font-size="14.00">s1</text>
<text text-anchor="middle" x="325.032" y="-142.777" font-family="Times New Roman,serif" font-size="14.00"> visited: 90</text>
<text text-anchor="middle" x="325.032" y="-127.777" font-family="Times New Roman,serif" font-size="14.00"> selected: 8</text>
</g>
<!-- s3&#45;&gt;s1 -->
<g id="edge5" class="edge"><title>s3&#45;&gt;s1</title>
<path fill="none" stroke="black" d="M459.425,-103.59C436.321,-111.018 409.169,-119.748 385.413,-127.385"/>
<polygon fill="black" stroke="black" points="384.256,-124.081 375.807,-130.474 386.399,-130.745 384.256,-124.081"/>
<text text-anchor="middle" x="419.343" y="-123.277" font-family="Times New Roman,serif" font-size="14.00">union</text>
</g>
<!-- s2 -->
<g id="node6" class="node"><title>s2</title>
<ellipse fill="none" stroke="black" cx="325.032" cy="-53.4767" rx="60.623" ry="37.4533"/>
<text text-anchor="middle" x="325.032" y="-64.7767" font-family="Times New Roman,serif" font-size="14.00">s2</text>
<text text-anchor="middle" x="325.032" y="-49.7767" font-family="Times New Roman,serif" font-size="14.00"> visited: 131</text>
<text text-anchor="middle" x="325.032" y="-34.7767" font-family="Times New Roman,serif" font-size="14.00"> selected: 10</text>
</g>
<!-- s3&#45;&gt;s2 -->
<g id="edge6" class="edge"><title>s3&#45;&gt;s2</title>
<path fill="none" stroke="black" d="M454.883,-76.2612C435.561,-72.8445 413.847,-69.0049 393.831,-65.4654"/>
<polygon fill="black" stroke="black" points="394.307,-61.9954 383.85,-63.7006 393.088,-68.8885 394.307,-61.9954"/>
<text text-anchor="middle" x="419.343" y="-76.2767" font-family="Times New Roman,serif" font-size="14.00">union</text>
</g>
<!-- googlescholar -->
<g id="node7" class="node"><title>googlescholar</title>
<ellipse fill="none" stroke="black" cx="80.6102" cy="-102.477" rx="80.7205" ry="37.4533"/>
<text text-anchor="middle" x="80.6102" y="-113.777" font-family="Times New Roman,serif" font-size="14.00">googlescholar: s0</text>
<text text-anchor="middle" x="80.6102" y="-98.7767" font-family="Times New Roman,serif" font-size="14.00"> visited: 14</text>
<text text-anchor="middle" x="80.6102" y="-83.7767" font-family="Times New Roman,serif" font-size="14.00"> selected: 4</text>
</g>
<!-- s1&#45;&gt;googlescholar -->
<g id="edge7" class="edge"><title>s1&#45;&gt;googlescholar:s0</title>
<path fill="none" stroke="black" d="M270.831,-136.821C240.132,-131.249 200.828,-124.115 166.004,-117.794"/>
<polygon fill="black" stroke="black" points="166.299,-114.291 155.835,-115.949 165.049,-121.178 166.299,-114.291"/>
<text text-anchor="middle" x="212.72" y="-165.277" font-family="Times New Roman,serif" font-size="14.00">forward</text>
<text text-anchor="middle" x="212.72" y="-150.277" font-family="Times New Roman,serif" font-size="14.00"> visited: 76</text>
<text text-anchor="middle" x="212.72" y="-135.277" font-family="Times New Roman,serif" font-size="14.00"> selected: 4</text>
</g>
<!-- s2&#45;&gt;googlescholar -->
<g id="edge8" class="edge"><title>s2&#45;&gt;googlescholar:s0</title>
<path fill="none" stroke="black" d="M264.431,-58.3936C238.12,-61.2026 206.938,-65.4067 179.22,-71.4767 171.441,-73.1803 163.396,-75.2367 155.416,-77.4703"/>
<polygon fill="black" stroke="black" points="154.371,-74.1292 145.738,-80.2709 156.316,-80.8534 154.371,-74.1292"/>
<text text-anchor="middle" x="212.72" y="-105.277" font-family="Times New Roman,serif" font-size="14.00">backward</text>
<text text-anchor="middle" x="212.72" y="-90.2767" font-family="Times New Roman,serif" font-size="14.00"> visited: 117</text>
<text text-anchor="middle" x="212.72" y="-75.2767" font-family="Times New Roman,serif" font-size="14.00"> selected: 6</text>
</g>
</g>
</svg>
