<?xml version="1.0" encoding="UTF-8" standalone="no"?>
<!DOCTYPE svg PUBLIC "-//W3C//DTD SVG 1.1//EN"
 "http://www.w3.org/Graphics/SVG/1.1/DTD/svg11.dtd">
<!-- Generated by graphviz version 2.38.0 (20140413.2041)
 -->
<!-- Title: G Pages: 1 -->
<svg width="1343pt" height="208pt"
 viewBox="0.00 0.00 1342.97 207.95" xmlns="http://www.w3.org/2000/svg" xmlns:xlink="http://www.w3.org/1999/xlink">
<g id="graph0" class="graph" transform="scale(1 1) rotate(0) translate(4 203.953)">
<title>G</title>
<polygon fill="white" stroke="none" points="-4,4 -4,-203.953 1338.97,-203.953 1338.97,4 -4,4"/>
<!-- s9 -->
<g id="node1" class="node"><title>s9</title>
<ellipse fill="none" stroke="black" cx="1274.16" cy="-90.4767" rx="60.623" ry="37.4533"/>
<text text-anchor="middle" x="1274.16" y="-101.777" font-family="Times New Roman,serif" font-size="14.00">s9</text>
<text text-anchor="middle" x="1274.16" y="-86.7767" font-family="Times New Roman,serif" font-size="14.00"> visited: 502</text>
<text text-anchor="middle" x="1274.16" y="-71.7767" font-family="Times New Roman,serif" font-size="14.00"> selected: 11</text>
</g>
<!-- s7 -->
<g id="node2" class="node"><title>s7</title>
<ellipse fill="none" stroke="black" cx="1085.54" cy="-130.477" rx="60.623" ry="37.4533"/>
<text text-anchor="middle" x="1085.54" y="-141.777" font-family="Times New Roman,serif" font-size="14.00">s7</text>
<text text-anchor="middle" x="1085.54" y="-126.777" font-family="Times New Roman,serif" font-size="14.00"> visited: 454</text>
<text text-anchor="middle" x="1085.54" y="-111.777" font-family="Times New Roman,serif" font-size="14.00"> selected: 11</text>
</g>
<!-- s9&#45;&gt;s7 -->
<g id="edge1" class="edge"><title>s9&#45;&gt;s7</title>
<path fill="none" stroke="black" d="M1216.41,-102.641C1196.5,-106.907 1173.96,-111.739 1153.31,-116.165"/>
<polygon fill="black" stroke="black" points="1152.39,-112.783 1143.34,-118.301 1153.85,-119.628 1152.39,-112.783"/>
<text text-anchor="middle" x="1179.85" y="-116.277" font-family="Times New Roman,serif" font-size="14.00">union</text>
</g>
<!-- s8 -->
<g id="node3" class="node"><title>s8</title>
<ellipse fill="none" stroke="black" cx="1085.54" cy="-37.4767" rx="60.623" ry="37.4533"/>
<text text-anchor="middle" x="1085.54" y="-48.7767" font-family="Times New Roman,serif" font-size="14.00">s8</text>
<text text-anchor="middle" x="1085.54" y="-33.7767" font-family="Times New Roman,serif" font-size="14.00"> visited: 498</text>
<text text-anchor="middle" x="1085.54" y="-18.7767" font-family="Times New Roman,serif" font-size="14.00"> selected: 11</text>
</g>
<!-- s9&#45;&gt;s8 -->
<g id="edge2" class="edge"><title>s9&#45;&gt;s8</title>
<path fill="none" stroke="black" d="M1218.68,-75.0044C1197.41,-68.9627 1172.85,-61.9902 1150.73,-55.707"/>
<polygon fill="black" stroke="black" points="1151.66,-52.3333 1141.09,-52.9682 1149.75,-59.067 1151.66,-52.3333"/>
<text text-anchor="middle" x="1179.85" y="-71.2767" font-family="Times New Roman,serif" font-size="14.00">union</text>
</g>
<!-- s6 -->
<g id="node4" class="node"><title>s6</title>
<ellipse fill="none" stroke="black" cx="864.916" cy="-86.4767" rx="60.623" ry="37.4533"/>
<text text-anchor="middle" x="864.916" y="-97.7767" font-family="Times New Roman,serif" font-size="14.00">s6</text>
<text text-anchor="middle" x="864.916" y="-82.7767" font-family="Times New Roman,serif" font-size="14.00"> visited: 450</text>
<text text-anchor="middle" x="864.916" y="-67.7767" font-family="Times New Roman,serif" font-size="14.00"> selected: 11</text>
</g>
<!-- s7&#45;&gt;s6 -->
<g id="edge3" class="edge"><title>s7&#45;&gt;s6</title>
<path fill="none" stroke="black" d="M1027.38,-118.974C998.512,-113.163 963.301,-106.076 933.136,-100.005"/>
<polygon fill="black" stroke="black" points="933.61,-96.5308 923.116,-97.9889 932.229,-103.393 933.61,-96.5308"/>
<text text-anchor="middle" x="975.227" y="-147.277" font-family="Times New Roman,serif" font-size="14.00">forward</text>
<text text-anchor="middle" x="975.227" y="-132.277" font-family="Times New Roman,serif" font-size="14.00"> visited: 4</text>
<text text-anchor="middle" x="975.227" y="-117.277" font-family="Times New Roman,serif" font-size="14.00"> selected: 0</text>
</g>
<!-- s8&#45;&gt;s6 -->
<g id="edge4" class="edge"><title>s8&#45;&gt;s6</title>
<path fill="none" stroke="black" d="M1024.95,-41.0869C999.62,-43.54 969.936,-47.6401 943.727,-54.4767 937.175,-56.1858 930.444,-58.3253 923.814,-60.6833"/>
<polygon fill="black" stroke="black" points="922.35,-57.4938 914.205,-64.2696 924.798,-64.0519 922.35,-57.4938"/>
<text text-anchor="middle" x="975.227" y="-88.2767" font-family="Times New Roman,serif" font-size="14.00">backward</text>
<text text-anchor="middle" x="975.227" y="-73.2767" font-family="Times New Roman,serif" font-size="14.00"> visited: 48</text>
<text text-anchor="middle" x="975.227" y="-58.2767" font-family="Times New Roman,serif" font-size="14.00"> selected: 0</text>
</g>
<!-- s4 -->
<g id="node5" class="node"><title>s4</title>
<ellipse fill="none" stroke="black" cx="676.294" cy="-146.477" rx="60.623" ry="37.4533"/>
<text text-anchor="middle" x="676.294" y="-157.777" font-family="Times New Roman,serif" font-size="14.00">s4</text>
<text text-anchor="middle" x="676.294" y="-142.777" font-family="Times New Roman,serif" font-size="14.00"> visited: 358</text>
<text text-anchor="middle" x="676.294" y="-127.777" font-family="Times New Roman,serif" font-size="14.00"> selected: 11</text>
</g>
<!-- s6&#45;&gt;s4 -->
<g id="edge5" class="edge"><title>s6&#45;&gt;s4</title>
<path fill="none" stroke="black" d="M810.687,-103.59C788.723,-110.652 763.1,-118.89 740.215,-126.247"/>
<polygon fill="black" stroke="black" points="739.042,-122.948 730.593,-129.341 741.184,-129.612 739.042,-122.948"/>
<text text-anchor="middle" x="770.605" y="-123.277" font-family="Times New Roman,serif" font-size="14.00">union</text>
</g>
<!-- s5 -->
<g id="node6" class="node"><title>s5</title>
<ellipse fill="none" stroke="black" cx="676.294" cy="-53.4767" rx="58.8803" ry="37.4533"/>
<text text-anchor="middle" x="676.294" y="-64.7767" font-family="Times New Roman,serif" font-size="14.00">s5</text>
<text text-anchor="middle" x="676.294" y="-49.7767" font-family="Times New Roman,serif" font-size="14.00"> visited: 268</text>
<text text-anchor="middle" x="676.294" y="-34.7767" font-family="Times New Roman,serif" font-size="14.00"> selected: 9</text>
</g>
<!-- s6&#45;&gt;s5 -->
<g id="edge6" class="edge"><title>s6&#45;&gt;s5</title>
<path fill="none" stroke="black" d="M806.145,-76.2612C786.182,-72.7312 763.668,-68.75 743.109,-65.1146"/>
<polygon fill="black" stroke="black" points="743.65,-61.6561 733.193,-63.3612 742.431,-68.5491 743.65,-61.6561"/>
<text text-anchor="middle" x="770.605" y="-76.2767" font-family="Times New Roman,serif" font-size="14.00">union</text>
</g>
<!-- s3 -->
<g id="node7" class="node"><title>s3</title>
<ellipse fill="none" stroke="black" cx="453.792" cy="-102.477" rx="58.8803" ry="37.4533"/>
<text text-anchor="middle" x="453.792" y="-113.777" font-family="Times New Roman,serif" font-size="14.00">s3</text>
<text text-anchor="middle" x="453.792" y="-98.7767" font-family="Times New Roman,serif" font-size="14.00"> visited: 173</text>
<text text-anchor="middle" x="453.792" y="-83.7767" font-family="Times New Roman,serif" font-size="14.00"> selected: 9</text>
</g>
<!-- s4&#45;&gt;s3 -->
<g id="edge7" class="edge"><title>s4&#45;&gt;s3</title>
<path fill="none" stroke="black" d="M618.222,-135.088C588.17,-129.092 551.185,-121.711 520.005,-115.489"/>
<polygon fill="black" stroke="black" points="520.593,-112.038 510.101,-113.513 519.223,-118.903 520.593,-112.038"/>
<text text-anchor="middle" x="563.982" y="-163.277" font-family="Times New Roman,serif" font-size="14.00">forward</text>
<text text-anchor="middle" x="563.982" y="-148.277" font-family="Times New Roman,serif" font-size="14.00"> visited: 185</text>
<text text-anchor="middle" x="563.982" y="-133.277" font-family="Times New Roman,serif" font-size="14.00"> selected: 2</text>
</g>
<!-- s5&#45;&gt;s3 -->
<g id="edge8" class="edge"><title>s5&#45;&gt;s3</title>
<path fill="none" stroke="black" d="M617.441,-55.2457C590.625,-57.1347 558.552,-60.9283 530.482,-68.4767 523.596,-70.3284 516.543,-72.7353 509.645,-75.4133"/>
<polygon fill="black" stroke="black" points="508.298,-72.183 500.366,-79.2066 510.946,-78.6626 508.298,-72.183"/>
<text text-anchor="middle" x="563.982" y="-102.277" font-family="Times New Roman,serif" font-size="14.00">backward</text>
<text text-anchor="middle" x="563.982" y="-87.2767" font-family="Times New Roman,serif" font-size="14.00"> visited: 95</text>
<text text-anchor="middle" x="563.982" y="-72.2767" font-family="Times New Roman,serif" font-size="14.00"> selected: 0</text>
</g>
<!-- s1 -->
<g id="node8" class="node"><title>s1</title>
<ellipse fill="none" stroke="black" cx="269.413" cy="-162.477" rx="55.7232" ry="37.4533"/>
<text text-anchor="middle" x="269.413" y="-173.777" font-family="Times New Roman,serif" font-size="14.00">s1</text>
<text text-anchor="middle" x="269.413" y="-158.777" font-family="Times New Roman,serif" font-size="14.00"> visited: 98</text>
<text text-anchor="middle" x="269.413" y="-143.777" font-family="Times New Roman,serif" font-size="14.00"> selected: 4</text>
</g>
<!-- s3&#45;&gt;s1 -->
<g id="edge9" class="edge"><title>s3&#45;&gt;s1</title>
<path fill="none" stroke="black" d="M401.018,-119.51C378.718,-126.846 352.524,-135.463 329.472,-143.047"/>
<polygon fill="black" stroke="black" points="328.21,-139.778 319.805,-146.227 330.398,-146.427 328.21,-139.778"/>
<text text-anchor="middle" x="361.603" y="-139.277" font-family="Times New Roman,serif" font-size="14.00">union</text>
</g>
<!-- s2 -->
<g id="node9" class="node"><title>s2</title>
<ellipse fill="none" stroke="black" cx="269.413" cy="-69.4767" rx="58.8803" ry="37.4533"/>
<text text-anchor="middle" x="269.413" y="-80.7767" font-family="Times New Roman,serif" font-size="14.00">s2</text>
<text text-anchor="middle" x="269.413" y="-65.7767" font-family="Times New Roman,serif" font-size="14.00"> visited: 154</text>
<text text-anchor="middle" x="269.413" y="-50.7767" font-family="Times New Roman,serif" font-size="14.00"> selected: 8</text>
</g>
<!-- s3&#45;&gt;s2 -->
<g id="edge10" class="edge"><title>s3&#45;&gt;s2</title>
<path fill="none" stroke="black" d="M397.082,-92.3963C377.814,-88.91 356.044,-84.9708 336.055,-81.354"/>
<polygon fill="black" stroke="black" points="336.56,-77.8887 326.097,-79.5521 335.314,-84.7768 336.56,-77.8887"/>
<text text-anchor="middle" x="361.603" y="-92.2767" font-family="Times New Roman,serif" font-size="14.00">union</text>
</g>
<!-- scopus -->
<g id="node10" class="node"><title>scopus</title>
<ellipse fill="none" stroke="black" cx="55.8614" cy="-118.477" rx="55.7232" ry="37.4533"/>
<text text-anchor="middle" x="55.8614" y="-129.777" font-family="Times New Roman,serif" font-size="14.00">scopus: s0</text>
<text text-anchor="middle" x="55.8614" y="-114.777" font-family="Times New Roman,serif" font-size="14.00"> visited: 79</text>
<text text-anchor="middle" x="55.8614" y="-99.7767" font-family="Times New Roman,serif" font-size="14.00"> selected: 3</text>
</g>
<!-- s1&#45;&gt;scopus -->
<g id="edge11" class="edge"><title>s1&#45;&gt;scopus:s0</title>
<path fill="none" stroke="black" d="M215.847,-151.544C186.713,-145.484 150.295,-137.91 119.669,-131.54"/>
<polygon fill="black" stroke="black" points="120.026,-128.039 109.523,-129.43 118.601,-134.893 120.026,-128.039"/>
<text text-anchor="middle" x="161.223" y="-179.277" font-family="Times New Roman,serif" font-size="14.00">forward</text>
<text text-anchor="middle" x="161.223" y="-164.277" font-family="Times New Roman,serif" font-size="14.00"> visited: 19</text>
<text text-anchor="middle" x="161.223" y="-149.277" font-family="Times New Roman,serif" font-size="14.00"> selected: 1</text>
</g>
<!-- s2&#45;&gt;scopus -->
<g id="edge12" class="edge"><title>s2&#45;&gt;scopus:s0</title>
<path fill="none" stroke="black" d="M210.594,-71.4803C185.395,-73.4362 155.733,-77.2175 129.723,-84.4767 123.128,-86.3171 116.386,-88.7004 109.795,-91.3509"/>
<polygon fill="black" stroke="black" points="108.116,-88.2614 100.281,-95.3934 110.854,-94.704 108.116,-88.2614"/>
<text text-anchor="middle" x="161.223" y="-118.277" font-family="Times New Roman,serif" font-size="14.00">backward</text>
<text text-anchor="middle" x="161.223" y="-103.277" font-family="Times New Roman,serif" font-size="14.00"> visited: 75</text>
<text text-anchor="middle" x="161.223" y="-88.2767" font-family="Times New Roman,serif" font-size="14.00"> selected: 5</text>
</g>
</g>
</svg>
