<?xml version="1.0" encoding="UTF-8" standalone="no"?>
<!DOCTYPE svg PUBLIC "-//W3C//DTD SVG 1.1//EN"
 "http://www.w3.org/Graphics/SVG/1.1/DTD/svg11.dtd">
<!-- Generated by graphviz version 2.38.0 (20140413.2041)
 -->
<!-- Title: G Pages: 1 -->
<svg width="737pt" height="183pt"
 viewBox="0.00 0.00 736.86 183.48" xmlns="http://www.w3.org/2000/svg" xmlns:xlink="http://www.w3.org/1999/xlink">
<g id="graph0" class="graph" transform="scale(1 1) rotate(0) translate(4 179.477)">
<title>G</title>
<polygon fill="white" stroke="none" points="-4,4 -4,-179.477 732.862,-179.477 732.862,4 -4,4"/>
<!-- s5 -->
<g id="node1" class="node"><title>s5</title>
<ellipse fill="none" stroke="black" cx="670.172" cy="-90.4767" rx="58.8803" ry="37.4533"/>
<text text-anchor="middle" x="670.172" y="-101.777" font-family="Times New Roman,serif" font-size="14.00">s5</text>
<text text-anchor="middle" x="670.172" y="-86.7767" font-family="Times New Roman,serif" font-size="14.00"> visited: 242</text>
<text text-anchor="middle" x="670.172" y="-71.7767" font-family="Times New Roman,serif" font-size="14.00"> selected: 9</text>
</g>
<!-- s2 -->
<g id="node2" class="node"><title>s2</title>
<ellipse fill="none" stroke="black" cx="485.792" cy="-130.477" rx="58.8803" ry="37.4533"/>
<text text-anchor="middle" x="485.792" y="-141.777" font-family="Times New Roman,serif" font-size="14.00">s2</text>
<text text-anchor="middle" x="485.792" y="-126.777" font-family="Times New Roman,serif" font-size="14.00"> visited: 105</text>
<text text-anchor="middle" x="485.792" y="-111.777" font-family="Times New Roman,serif" font-size="14.00"> selected: 4</text>
</g>
<!-- s5&#45;&gt;s2 -->
<g id="edge1" class="edge"><title>s5&#45;&gt;s2</title>
<path fill="none" stroke="black" d="M614.452,-102.478C594.615,-106.829 572.021,-111.784 551.411,-116.304"/>
<polygon fill="black" stroke="black" points="550.492,-112.923 541.474,-118.484 551.991,-119.76 550.492,-112.923"/>
<text text-anchor="middle" x="577.982" y="-116.277" font-family="Times New Roman,serif" font-size="14.00">union</text>
</g>
<!-- s4 -->
<g id="node3" class="node"><title>s4</title>
<ellipse fill="none" stroke="black" cx="485.792" cy="-37.4767" rx="58.8803" ry="37.4533"/>
<text text-anchor="middle" x="485.792" y="-48.7767" font-family="Times New Roman,serif" font-size="14.00">s4</text>
<text text-anchor="middle" x="485.792" y="-33.7767" font-family="Times New Roman,serif" font-size="14.00"> visited: 216</text>
<text text-anchor="middle" x="485.792" y="-18.7767" font-family="Times New Roman,serif" font-size="14.00"> selected: 8</text>
</g>
<!-- s5&#45;&gt;s4 -->
<g id="edge2" class="edge"><title>s5&#45;&gt;s4</title>
<path fill="none" stroke="black" d="M616.42,-75.1469C595.437,-69.0492 571.131,-61.9856 549.275,-55.6341"/>
<polygon fill="black" stroke="black" points="550.005,-52.2017 539.426,-52.772 548.052,-58.9236 550.005,-52.2017"/>
<text text-anchor="middle" x="577.982" y="-71.2767" font-family="Times New Roman,serif" font-size="14.00">union</text>
</g>
<!-- s1 -->
<g id="node4" class="node"><title>s1</title>
<ellipse fill="none" stroke="black" cx="269.413" cy="-130.477" rx="55.7232" ry="37.4533"/>
<text text-anchor="middle" x="269.413" y="-141.777" font-family="Times New Roman,serif" font-size="14.00">s1</text>
<text text-anchor="middle" x="269.413" y="-126.777" font-family="Times New Roman,serif" font-size="14.00"> visited: 98</text>
<text text-anchor="middle" x="269.413" y="-111.777" font-family="Times New Roman,serif" font-size="14.00"> selected: 4</text>
</g>
<!-- s2&#45;&gt;s1 -->
<g id="edge3" class="edge"><title>s2&#45;&gt;s1</title>
<path fill="none" stroke="black" d="M427.061,-130.477C398.772,-130.477 364.597,-130.477 335.396,-130.477"/>
<polygon fill="black" stroke="black" points="335.292,-126.977 325.292,-130.477 335.292,-133.977 335.292,-126.977"/>
<text text-anchor="middle" x="377.603" y="-164.277" font-family="Times New Roman,serif" font-size="14.00">forward</text>
<text text-anchor="middle" x="377.603" y="-149.277" font-family="Times New Roman,serif" font-size="14.00"> visited: 7</text>
<text text-anchor="middle" x="377.603" y="-134.277" font-family="Times New Roman,serif" font-size="14.00"> selected: 0</text>
</g>
<!-- s3 -->
<g id="node5" class="node"><title>s3</title>
<ellipse fill="none" stroke="black" cx="269.413" cy="-37.4767" rx="58.8803" ry="37.4533"/>
<text text-anchor="middle" x="269.413" y="-48.7767" font-family="Times New Roman,serif" font-size="14.00">s3</text>
<text text-anchor="middle" x="269.413" y="-33.7767" font-family="Times New Roman,serif" font-size="14.00"> visited: 154</text>
<text text-anchor="middle" x="269.413" y="-18.7767" font-family="Times New Roman,serif" font-size="14.00"> selected: 8</text>
</g>
<!-- s4&#45;&gt;s3 -->
<g id="edge4" class="edge"><title>s4&#45;&gt;s3</title>
<path fill="none" stroke="black" d="M427.061,-37.4767C399.779,-37.4767 367.023,-37.4767 338.533,-37.4767"/>
<polygon fill="black" stroke="black" points="338.248,-33.9768 328.248,-37.4767 338.248,-40.9768 338.248,-33.9768"/>
<text text-anchor="middle" x="377.603" y="-71.2767" font-family="Times New Roman,serif" font-size="14.00">backward</text>
<text text-anchor="middle" x="377.603" y="-56.2767" font-family="Times New Roman,serif" font-size="14.00"> visited: 62</text>
<text text-anchor="middle" x="377.603" y="-41.2767" font-family="Times New Roman,serif" font-size="14.00"> selected: 0</text>
</g>
<!-- scopus -->
<g id="node6" class="node"><title>scopus</title>
<ellipse fill="none" stroke="black" cx="55.8614" cy="-86.4767" rx="55.7232" ry="37.4533"/>
<text text-anchor="middle" x="55.8614" y="-97.7767" font-family="Times New Roman,serif" font-size="14.00">scopus: s0</text>
<text text-anchor="middle" x="55.8614" y="-82.7767" font-family="Times New Roman,serif" font-size="14.00"> visited: 79</text>
<text text-anchor="middle" x="55.8614" y="-67.7767" font-family="Times New Roman,serif" font-size="14.00"> selected: 3</text>
</g>
<!-- s1&#45;&gt;scopus -->
<g id="edge5" class="edge"><title>s1&#45;&gt;scopus:s0</title>
<path fill="none" stroke="black" d="M215.847,-119.544C186.713,-113.484 150.295,-105.91 119.669,-99.5398"/>
<polygon fill="black" stroke="black" points="120.026,-96.0393 109.523,-97.4296 118.601,-102.893 120.026,-96.0393"/>
<text text-anchor="middle" x="161.223" y="-147.277" font-family="Times New Roman,serif" font-size="14.00">forward</text>
<text text-anchor="middle" x="161.223" y="-132.277" font-family="Times New Roman,serif" font-size="14.00"> visited: 19</text>
<text text-anchor="middle" x="161.223" y="-117.277" font-family="Times New Roman,serif" font-size="14.00"> selected: 1</text>
</g>
<!-- s3&#45;&gt;scopus -->
<g id="edge6" class="edge"><title>s3&#45;&gt;scopus:s0</title>
<path fill="none" stroke="black" d="M210.629,-40.1233C185.435,-42.3018 155.768,-46.2665 129.723,-53.4767 123.249,-55.2689 116.62,-57.5621 110.125,-60.103"/>
<polygon fill="black" stroke="black" points="108.651,-56.9251 100.741,-63.9735 111.32,-63.3964 108.651,-56.9251"/>
<text text-anchor="middle" x="161.223" y="-87.2767" font-family="Times New Roman,serif" font-size="14.00">backward</text>
<text text-anchor="middle" x="161.223" y="-72.2767" font-family="Times New Roman,serif" font-size="14.00"> visited: 75</text>
<text text-anchor="middle" x="161.223" y="-57.2767" font-family="Times New Roman,serif" font-size="14.00"> selected: 5</text>
</g>
</g>
</svg>
