<?xml version="1.0" encoding="UTF-8" standalone="no"?>
<!DOCTYPE svg PUBLIC "-//W3C//DTD SVG 1.1//EN"
 "http://www.w3.org/Graphics/SVG/1.1/DTD/svg11.dtd">
<!-- Generated by graphviz version 2.38.0 (20140413.2041)
 -->
<!-- Title: G Pages: 1 -->
<svg width="331pt" height="734pt"
 viewBox="0.00 0.00 330.97 733.95" xmlns="http://www.w3.org/2000/svg" xmlns:xlink="http://www.w3.org/1999/xlink">
<g id="graph0" class="graph" transform="scale(1 1) rotate(0) translate(4 729.953)">
<title>G</title>
<polygon fill="white" stroke="none" points="-4,4 -4,-729.953 326.973,-729.953 326.973,4 -4,4"/>
<!-- s0 -->
<g id="node1" class="node"><title>s0</title>
<ellipse fill="none" stroke="black" cx="262.161" cy="-362.477" rx="60.623" ry="37.4533"/>
<text text-anchor="middle" x="262.161" y="-373.777" font-family="Times New Roman,serif" font-size="14.00">s0</text>
<text text-anchor="middle" x="262.161" y="-358.777" font-family="Times New Roman,serif" font-size="14.00"> visited: 480</text>
<text text-anchor="middle" x="262.161" y="-343.777" font-family="Times New Roman,serif" font-size="14.00"> selected: 11</text>
</g>
<!-- googlescholar -->
<g id="node2" class="node"><title>googlescholar</title>
<ellipse fill="none" stroke="black" cx="67.1751" cy="-688.477" rx="67.3507" ry="37.4533"/>
<text text-anchor="middle" x="67.1751" y="-699.777" font-family="Times New Roman,serif" font-size="14.00">googlescholar</text>
<text text-anchor="middle" x="67.1751" y="-684.777" font-family="Times New Roman,serif" font-size="14.00"> visited: 466</text>
<text text-anchor="middle" x="67.1751" y="-669.777" font-family="Times New Roman,serif" font-size="14.00"> selected: 11</text>
</g>
<!-- s0&#45;&gt;googlescholar -->
<g id="edge1" class="edge"><title>s0&#45;&gt;googlescholar</title>
<path fill="none" stroke="black" d="M251.599,-399.593C235.368,-456.814 197.854,-567.669 134.35,-641.477 130.464,-645.993 126.057,-650.3 121.406,-654.343"/>
<polygon fill="black" stroke="black" points="118.926,-651.849 113.399,-660.888 123.356,-657.269 118.926,-651.849"/>
<text text-anchor="middle" x="167.85" y="-618.277" font-family="Times New Roman,serif" font-size="14.00">union</text>
</g>
<!-- scopus -->
<g id="node3" class="node"><title>scopus</title>
<ellipse fill="none" stroke="black" cx="67.1751" cy="-595.477" rx="55.7232" ry="37.4533"/>
<text text-anchor="middle" x="67.1751" y="-606.777" font-family="Times New Roman,serif" font-size="14.00">scopus</text>
<text text-anchor="middle" x="67.1751" y="-591.777" font-family="Times New Roman,serif" font-size="14.00"> visited: 79</text>
<text text-anchor="middle" x="67.1751" y="-576.777" font-family="Times New Roman,serif" font-size="14.00"> selected: 3</text>
</g>
<!-- s0&#45;&gt;scopus -->
<g id="edge2" class="edge"><title>s0&#45;&gt;scopus</title>
<path fill="none" stroke="black" d="M242.008,-398.107C219.616,-437.705 179.784,-502.164 134.35,-548.477 129.126,-553.802 123.233,-558.934 117.171,-563.726"/>
<polygon fill="black" stroke="black" points="114.702,-561.206 108.846,-570.036 118.93,-566.785 114.702,-561.206"/>
<text text-anchor="middle" x="167.85" y="-529.277" font-family="Times New Roman,serif" font-size="14.00">union</text>
</g>
<!-- springer -->
<g id="node4" class="node"><title>springer</title>
<ellipse fill="none" stroke="black" cx="67.1751" cy="-502.477" rx="55.7232" ry="37.4533"/>
<text text-anchor="middle" x="67.1751" y="-513.777" font-family="Times New Roman,serif" font-size="14.00">springer</text>
<text text-anchor="middle" x="67.1751" y="-498.777" font-family="Times New Roman,serif" font-size="14.00"> visited: 65</text>
<text text-anchor="middle" x="67.1751" y="-483.777" font-family="Times New Roman,serif" font-size="14.00"> selected: 1</text>
</g>
<!-- s0&#45;&gt;springer -->
<g id="edge3" class="edge"><title>s0&#45;&gt;springer</title>
<path fill="none" stroke="black" d="M222.423,-391.122C197.369,-409.589 164.015,-434.066 134.35,-455.477 128.003,-460.058 121.295,-464.863 114.681,-469.581"/>
<polygon fill="black" stroke="black" points="112.505,-466.834 106.389,-475.485 116.565,-472.536 112.505,-466.834"/>
<text text-anchor="middle" x="167.85" y="-443.277" font-family="Times New Roman,serif" font-size="14.00">union</text>
</g>
<!-- acm -->
<g id="node5" class="node"><title>acm</title>
<ellipse fill="none" stroke="black" cx="67.1751" cy="-409.477" rx="55.7232" ry="37.4533"/>
<text text-anchor="middle" x="67.1751" y="-420.777" font-family="Times New Roman,serif" font-size="14.00">acm</text>
<text text-anchor="middle" x="67.1751" y="-405.777" font-family="Times New Roman,serif" font-size="14.00"> visited: 0</text>
<text text-anchor="middle" x="67.1751" y="-390.777" font-family="Times New Roman,serif" font-size="14.00"> selected: 0</text>
</g>
<!-- s0&#45;&gt;acm -->
<g id="edge4" class="edge"><title>s0&#45;&gt;acm</title>
<path fill="none" stroke="black" d="M205.342,-376.071C181.664,-381.837 153.988,-388.578 129.721,-394.488"/>
<polygon fill="black" stroke="black" points="128.792,-391.112 119.904,-396.879 130.448,-397.913 128.792,-391.112"/>
<text text-anchor="middle" x="167.85" y="-392.277" font-family="Times New Roman,serif" font-size="14.00">union</text>
</g>
<!-- sciencedirect -->
<g id="node6" class="node"><title>sciencedirect</title>
<ellipse fill="none" stroke="black" cx="67.1751" cy="-316.477" rx="62.8651" ry="37.4533"/>
<text text-anchor="middle" x="67.1751" y="-327.777" font-family="Times New Roman,serif" font-size="14.00">sciencedirect</text>
<text text-anchor="middle" x="67.1751" y="-312.777" font-family="Times New Roman,serif" font-size="14.00"> visited: 21</text>
<text text-anchor="middle" x="67.1751" y="-297.777" font-family="Times New Roman,serif" font-size="14.00"> selected: 0</text>
</g>
<!-- s0&#45;&gt;sciencedirect -->
<g id="edge5" class="edge"><title>s0&#45;&gt;sciencedirect</title>
<path fill="none" stroke="black" d="M205.083,-349.11C183.464,-343.957 158.543,-338.017 135.936,-332.628"/>
<polygon fill="black" stroke="black" points="136.61,-329.191 126.071,-330.277 134.987,-336 136.61,-329.191"/>
<text text-anchor="middle" x="167.85" y="-347.277" font-family="Times New Roman,serif" font-size="14.00">union</text>
</g>
<!-- wiley -->
<g id="node7" class="node"><title>wiley</title>
<ellipse fill="none" stroke="black" cx="67.1751" cy="-223.477" rx="55.7232" ry="37.4533"/>
<text text-anchor="middle" x="67.1751" y="-234.777" font-family="Times New Roman,serif" font-size="14.00">wiley</text>
<text text-anchor="middle" x="67.1751" y="-219.777" font-family="Times New Roman,serif" font-size="14.00"> visited: 15</text>
<text text-anchor="middle" x="67.1751" y="-204.777" font-family="Times New Roman,serif" font-size="14.00"> selected: 0</text>
</g>
<!-- s0&#45;&gt;wiley -->
<g id="edge6" class="edge"><title>s0&#45;&gt;wiley</title>
<path fill="none" stroke="black" d="M222.103,-333.985C197.067,-315.761 163.848,-291.651 134.35,-270.477 127.992,-265.912 121.277,-261.116 114.66,-256.403"/>
<polygon fill="black" stroke="black" points="116.542,-253.447 106.365,-250.502 112.484,-259.15 116.542,-253.447"/>
<text text-anchor="middle" x="167.85" y="-309.277" font-family="Times New Roman,serif" font-size="14.00">union</text>
</g>
<!-- webofscience -->
<g id="node8" class="node"><title>webofscience</title>
<ellipse fill="none" stroke="black" cx="67.1751" cy="-130.477" rx="65.5227" ry="37.4533"/>
<text text-anchor="middle" x="67.1751" y="-141.777" font-family="Times New Roman,serif" font-size="14.00">webofscience</text>
<text text-anchor="middle" x="67.1751" y="-126.777" font-family="Times New Roman,serif" font-size="14.00"> visited: 0</text>
<text text-anchor="middle" x="67.1751" y="-111.777" font-family="Times New Roman,serif" font-size="14.00"> selected: 0</text>
</g>
<!-- s0&#45;&gt;webofscience -->
<g id="edge7" class="edge"><title>s0&#45;&gt;webofscience</title>
<path fill="none" stroke="black" d="M241.967,-327.046C219.54,-287.668 179.675,-223.563 134.35,-177.477 129.941,-172.993 125.058,-168.645 120.001,-164.52"/>
<polygon fill="black" stroke="black" points="121.989,-161.632 111.953,-158.236 117.681,-167.149 121.989,-161.632"/>
<text text-anchor="middle" x="167.85" y="-238.277" font-family="Times New Roman,serif" font-size="14.00">union</text>
</g>
<!-- ieee -->
<g id="node9" class="node"><title>ieee</title>
<ellipse fill="none" stroke="black" cx="67.1751" cy="-37.4767" rx="55.7232" ry="37.4533"/>
<text text-anchor="middle" x="67.1751" y="-48.7767" font-family="Times New Roman,serif" font-size="14.00">ieee</text>
<text text-anchor="middle" x="67.1751" y="-33.7767" font-family="Times New Roman,serif" font-size="14.00"> visited: 0</text>
<text text-anchor="middle" x="67.1751" y="-18.7767" font-family="Times New Roman,serif" font-size="14.00"> selected: 0</text>
</g>
<!-- s0&#45;&gt;ieee -->
<g id="edge8" class="edge"><title>s0&#45;&gt;ieee</title>
<path fill="none" stroke="black" d="M251.553,-325.504C235.261,-268.504 197.666,-158.065 134.35,-84.4767 129.485,-78.8219 123.802,-73.4961 117.848,-68.6049"/>
<polygon fill="black" stroke="black" points="119.658,-65.5793 109.612,-62.2145 115.367,-71.1098 119.658,-65.5793"/>
<text text-anchor="middle" x="167.85" y="-157.277" font-family="Times New Roman,serif" font-size="14.00">union</text>
</g>
</g>
</svg>
