<?xml version="1.0" encoding="UTF-8" standalone="no"?>
<!DOCTYPE svg PUBLIC "-//W3C//DTD SVG 1.1//EN"
 "http://www.w3.org/Graphics/SVG/1.1/DTD/svg11.dtd">
<!-- Generated by graphviz version 2.38.0 (20140413.2041)
 -->
<!-- Title: G Pages: 1 -->
<svg width="998pt" height="90pt"
 viewBox="0.00 0.00 997.73 90.48" xmlns="http://www.w3.org/2000/svg" xmlns:xlink="http://www.w3.org/1999/xlink">
<g id="graph0" class="graph" transform="scale(1 1) rotate(0) translate(4 86.4767)">
<title>G</title>
<polygon fill="white" stroke="none" points="-4,4 -4,-86.4767 993.727,-86.4767 993.727,4 -4,4"/>
<!-- s4 -->
<g id="node1" class="node"><title>s4</title>
<ellipse fill="none" stroke="black" cx="928.916" cy="-37.4767" rx="60.623" ry="37.4533"/>
<text text-anchor="middle" x="928.916" y="-48.7767" font-family="Times New Roman,serif" font-size="14.00">s4</text>
<text text-anchor="middle" x="928.916" y="-33.7767" font-family="Times New Roman,serif" font-size="14.00"> visited: 424</text>
<text text-anchor="middle" x="928.916" y="-18.7767" font-family="Times New Roman,serif" font-size="14.00"> selected: 11</text>
</g>
<!-- s3 -->
<g id="node2" class="node"><title>s3</title>
<ellipse fill="none" stroke="black" cx="708.294" cy="-37.4767" rx="60.623" ry="37.4533"/>
<text text-anchor="middle" x="708.294" y="-48.7767" font-family="Times New Roman,serif" font-size="14.00">s3</text>
<text text-anchor="middle" x="708.294" y="-33.7767" font-family="Times New Roman,serif" font-size="14.00"> visited: 414</text>
<text text-anchor="middle" x="708.294" y="-18.7767" font-family="Times New Roman,serif" font-size="14.00"> selected: 11</text>
</g>
<!-- s4&#45;&gt;s3 -->
<g id="edge1" class="edge"><title>s4&#45;&gt;s3</title>
<path fill="none" stroke="black" d="M867.887,-37.4767C840.53,-37.4767 807.964,-37.4767 779.48,-37.4767"/>
<polygon fill="black" stroke="black" points="779.188,-33.9768 769.188,-37.4767 779.188,-40.9768 779.188,-33.9768"/>
<text text-anchor="middle" x="818.605" y="-71.2767" font-family="Times New Roman,serif" font-size="14.00">forward</text>
<text text-anchor="middle" x="818.605" y="-56.2767" font-family="Times New Roman,serif" font-size="14.00"> visited: 10</text>
<text text-anchor="middle" x="818.605" y="-41.2767" font-family="Times New Roman,serif" font-size="14.00"> selected: 0</text>
</g>
<!-- s2 -->
<g id="node3" class="node"><title>s2</title>
<ellipse fill="none" stroke="black" cx="485.792" cy="-37.4767" rx="58.8803" ry="37.4533"/>
<text text-anchor="middle" x="485.792" y="-48.7767" font-family="Times New Roman,serif" font-size="14.00">s2</text>
<text text-anchor="middle" x="485.792" y="-33.7767" font-family="Times New Roman,serif" font-size="14.00"> visited: 216</text>
<text text-anchor="middle" x="485.792" y="-18.7767" font-family="Times New Roman,serif" font-size="14.00"> selected: 8</text>
</g>
<!-- s3&#45;&gt;s2 -->
<g id="edge2" class="edge"><title>s3&#45;&gt;s2</title>
<path fill="none" stroke="black" d="M647.332,-37.4767C618.812,-37.4767 584.579,-37.4767 555.064,-37.4767"/>
<polygon fill="black" stroke="black" points="554.838,-33.9768 544.838,-37.4767 554.838,-40.9768 554.838,-33.9768"/>
<text text-anchor="middle" x="595.982" y="-71.2767" font-family="Times New Roman,serif" font-size="14.00">forward</text>
<text text-anchor="middle" x="595.982" y="-56.2767" font-family="Times New Roman,serif" font-size="14.00"> visited: 198</text>
<text text-anchor="middle" x="595.982" y="-41.2767" font-family="Times New Roman,serif" font-size="14.00"> selected: 3</text>
</g>
<!-- s1 -->
<g id="node4" class="node"><title>s1</title>
<ellipse fill="none" stroke="black" cx="269.413" cy="-37.4767" rx="58.8803" ry="37.4533"/>
<text text-anchor="middle" x="269.413" y="-48.7767" font-family="Times New Roman,serif" font-size="14.00">s1</text>
<text text-anchor="middle" x="269.413" y="-33.7767" font-family="Times New Roman,serif" font-size="14.00"> visited: 154</text>
<text text-anchor="middle" x="269.413" y="-18.7767" font-family="Times New Roman,serif" font-size="14.00"> selected: 8</text>
</g>
<!-- s2&#45;&gt;s1 -->
<g id="edge3" class="edge"><title>s2&#45;&gt;s1</title>
<path fill="none" stroke="black" d="M427.061,-37.4767C399.779,-37.4767 367.023,-37.4767 338.533,-37.4767"/>
<polygon fill="black" stroke="black" points="338.248,-33.9768 328.248,-37.4767 338.248,-40.9768 338.248,-33.9768"/>
<text text-anchor="middle" x="377.603" y="-71.2767" font-family="Times New Roman,serif" font-size="14.00">backward</text>
<text text-anchor="middle" x="377.603" y="-56.2767" font-family="Times New Roman,serif" font-size="14.00"> visited: 62</text>
<text text-anchor="middle" x="377.603" y="-41.2767" font-family="Times New Roman,serif" font-size="14.00"> selected: 0</text>
</g>
<!-- scopus -->
<g id="node5" class="node"><title>scopus</title>
<ellipse fill="none" stroke="black" cx="55.8614" cy="-37.4767" rx="55.7232" ry="37.4533"/>
<text text-anchor="middle" x="55.8614" y="-48.7767" font-family="Times New Roman,serif" font-size="14.00">scopus: s0</text>
<text text-anchor="middle" x="55.8614" y="-33.7767" font-family="Times New Roman,serif" font-size="14.00"> visited: 79</text>
<text text-anchor="middle" x="55.8614" y="-18.7767" font-family="Times New Roman,serif" font-size="14.00"> selected: 3</text>
</g>
<!-- s1&#45;&gt;scopus -->
<g id="edge4" class="edge"><title>s1&#45;&gt;scopus:s0</title>
<path fill="none" stroke="black" d="M210.605,-37.4767C183.257,-37.4767 150.482,-37.4767 122.232,-37.4767"/>
<polygon fill="black" stroke="black" points="122.047,-33.9768 112.047,-37.4767 122.047,-40.9768 122.047,-33.9768"/>
<text text-anchor="middle" x="161.223" y="-71.2767" font-family="Times New Roman,serif" font-size="14.00">backward</text>
<text text-anchor="middle" x="161.223" y="-56.2767" font-family="Times New Roman,serif" font-size="14.00"> visited: 75</text>
<text text-anchor="middle" x="161.223" y="-41.2767" font-family="Times New Roman,serif" font-size="14.00"> selected: 5</text>
</g>
</g>
</svg>
