<?xml version="1.0" encoding="UTF-8" standalone="no"?>
<!DOCTYPE svg PUBLIC "-//W3C//DTD SVG 1.1//EN"
 "http://www.w3.org/Graphics/SVG/1.1/DTD/svg11.dtd">
<!-- Generated by graphviz version 2.38.0 (20140413.2041)
 -->
<!-- Title: G Pages: 1 -->
<svg width="984pt" height="90pt"
 viewBox="0.00 0.00 983.58 90.48" xmlns="http://www.w3.org/2000/svg" xmlns:xlink="http://www.w3.org/1999/xlink">
<g id="graph0" class="graph" transform="scale(1 1) rotate(0) translate(4 86.4767)">
<title>G</title>
<polygon fill="white" stroke="none" points="-4,4 -4,-86.4767 979.585,-86.4767 979.585,4 -4,4"/>
<!-- s4 -->
<g id="node1" class="node"><title>s4</title>
<ellipse fill="none" stroke="black" cx="916.895" cy="-37.4767" rx="58.8803" ry="37.4533"/>
<text text-anchor="middle" x="916.895" y="-48.7767" font-family="Times New Roman,serif" font-size="14.00">s4</text>
<text text-anchor="middle" x="916.895" y="-33.7767" font-family="Times New Roman,serif" font-size="14.00"> visited: 275</text>
<text text-anchor="middle" x="916.895" y="-18.7767" font-family="Times New Roman,serif" font-size="14.00"> selected: 9</text>
</g>
<!-- s3 -->
<g id="node2" class="node"><title>s3</title>
<ellipse fill="none" stroke="black" cx="700.515" cy="-37.4767" rx="58.8803" ry="37.4533"/>
<text text-anchor="middle" x="700.515" y="-48.7767" font-family="Times New Roman,serif" font-size="14.00">s3</text>
<text text-anchor="middle" x="700.515" y="-33.7767" font-family="Times New Roman,serif" font-size="14.00"> visited: 215</text>
<text text-anchor="middle" x="700.515" y="-18.7767" font-family="Times New Roman,serif" font-size="14.00"> selected: 9</text>
</g>
<!-- s4&#45;&gt;s3 -->
<g id="edge1" class="edge"><title>s4&#45;&gt;s3</title>
<path fill="none" stroke="black" d="M858.163,-37.4767C830.882,-37.4767 798.126,-37.4767 769.636,-37.4767"/>
<polygon fill="black" stroke="black" points="769.35,-33.9768 759.35,-37.4767 769.35,-40.9768 769.35,-33.9768"/>
<text text-anchor="middle" x="808.705" y="-71.2767" font-family="Times New Roman,serif" font-size="14.00">backward</text>
<text text-anchor="middle" x="808.705" y="-56.2767" font-family="Times New Roman,serif" font-size="14.00"> visited: 60</text>
<text text-anchor="middle" x="808.705" y="-41.2767" font-family="Times New Roman,serif" font-size="14.00"> selected: 0</text>
</g>
<!-- s2 -->
<g id="node3" class="node"><title>s2</title>
<ellipse fill="none" stroke="black" cx="480.136" cy="-37.4767" rx="58.8803" ry="37.4533"/>
<text text-anchor="middle" x="480.136" y="-48.7767" font-family="Times New Roman,serif" font-size="14.00">s2</text>
<text text-anchor="middle" x="480.136" y="-33.7767" font-family="Times New Roman,serif" font-size="14.00"> visited: 105</text>
<text text-anchor="middle" x="480.136" y="-18.7767" font-family="Times New Roman,serif" font-size="14.00"> selected: 4</text>
</g>
<!-- s3&#45;&gt;s2 -->
<g id="edge2" class="edge"><title>s3&#45;&gt;s2</title>
<path fill="none" stroke="black" d="M641.567,-37.4767C613.196,-37.4767 578.855,-37.4767 549.237,-37.4767"/>
<polygon fill="black" stroke="black" points="548.976,-33.9768 538.976,-37.4767 548.976,-40.9768 548.976,-33.9768"/>
<text text-anchor="middle" x="590.325" y="-71.2767" font-family="Times New Roman,serif" font-size="14.00">backward</text>
<text text-anchor="middle" x="590.325" y="-56.2767" font-family="Times New Roman,serif" font-size="14.00"> visited: 110</text>
<text text-anchor="middle" x="590.325" y="-41.2767" font-family="Times New Roman,serif" font-size="14.00"> selected: 5</text>
</g>
<!-- s1 -->
<g id="node4" class="node"><title>s1</title>
<ellipse fill="none" stroke="black" cx="266.584" cy="-37.4767" rx="55.7232" ry="37.4533"/>
<text text-anchor="middle" x="266.584" y="-48.7767" font-family="Times New Roman,serif" font-size="14.00">s1</text>
<text text-anchor="middle" x="266.584" y="-33.7767" font-family="Times New Roman,serif" font-size="14.00"> visited: 98</text>
<text text-anchor="middle" x="266.584" y="-18.7767" font-family="Times New Roman,serif" font-size="14.00"> selected: 4</text>
</g>
<!-- s2&#45;&gt;s1 -->
<g id="edge3" class="edge"><title>s2&#45;&gt;s1</title>
<path fill="none" stroke="black" d="M421.328,-37.4767C393.98,-37.4767 361.205,-37.4767 332.955,-37.4767"/>
<polygon fill="black" stroke="black" points="332.77,-33.9768 322.77,-37.4767 332.77,-40.9768 332.77,-33.9768"/>
<text text-anchor="middle" x="371.946" y="-71.2767" font-family="Times New Roman,serif" font-size="14.00">forward</text>
<text text-anchor="middle" x="371.946" y="-56.2767" font-family="Times New Roman,serif" font-size="14.00"> visited: 7</text>
<text text-anchor="middle" x="371.946" y="-41.2767" font-family="Times New Roman,serif" font-size="14.00"> selected: 0</text>
</g>
<!-- s0 -->
<g id="node5" class="node"><title>s0</title>
<ellipse fill="none" stroke="black" cx="55.8614" cy="-37.4767" rx="55.7232" ry="37.4533"/>
<text text-anchor="middle" x="55.8614" y="-48.7767" font-family="Times New Roman,serif" font-size="14.00">s0</text>
<text text-anchor="middle" x="55.8614" y="-33.7767" font-family="Times New Roman,serif" font-size="14.00"> visited: 79</text>
<text text-anchor="middle" x="55.8614" y="-18.7767" font-family="Times New Roman,serif" font-size="14.00"> selected: 3</text>
</g>
<!-- s1&#45;&gt;s0 -->
<g id="edge4" class="edge"><title>s1&#45;&gt;s0</title>
<path fill="none" stroke="black" d="M210.472,-37.4767C183.365,-37.4767 150.506,-37.4767 122.146,-37.4767"/>
<polygon fill="black" stroke="black" points="121.921,-33.9768 111.921,-37.4767 121.921,-40.9768 121.921,-33.9768"/>
<text text-anchor="middle" x="161.223" y="-71.2767" font-family="Times New Roman,serif" font-size="14.00">forward</text>
<text text-anchor="middle" x="161.223" y="-56.2767" font-family="Times New Roman,serif" font-size="14.00"> visited: 19</text>
<text text-anchor="middle" x="161.223" y="-41.2767" font-family="Times New Roman,serif" font-size="14.00"> selected: 1</text>
</g>
</g>
</svg>
