<?xml version="1.0" encoding="UTF-8" standalone="no"?>
<!DOCTYPE svg PUBLIC "-//W3C//DTD SVG 1.1//EN"
 "http://www.w3.org/Graphics/SVG/1.1/DTD/svg11.dtd">
<!-- Generated by graphviz version 2.38.0 (20140413.2041)
 -->
<!-- Title: G Pages: 1 -->
<svg width="477pt" height="827pt"
 viewBox="0.00 0.00 476.64 826.95" xmlns="http://www.w3.org/2000/svg" xmlns:xlink="http://www.w3.org/1999/xlink">
<g id="graph0" class="graph" transform="scale(1 1) rotate(0) translate(4 822.953)">
<title>G</title>
<polygon fill="white" stroke="none" points="-4,4 -4,-822.953 472.637,-822.953 472.637,4 -4,4"/>
<!-- s0 -->
<g id="node1" class="node"><title>s0</title>
<ellipse fill="none" stroke="black" cx="407.825" cy="-409.477" rx="60.623" ry="37.4533"/>
<text text-anchor="middle" x="407.825" y="-420.777" font-family="Times New Roman,serif" font-size="14.00">s0</text>
<text text-anchor="middle" x="407.825" y="-405.777" font-family="Times New Roman,serif" font-size="14.00"> visited: 482</text>
<text text-anchor="middle" x="407.825" y="-390.777" font-family="Times New Roman,serif" font-size="14.00"> selected: 11</text>
</g>
<!-- gs2016 -->
<g id="node2" class="node"><title>gs2016</title>
<ellipse fill="none" stroke="black" cx="140.007" cy="-781.477" rx="60.623" ry="37.4533"/>
<text text-anchor="middle" x="140.007" y="-792.777" font-family="Times New Roman,serif" font-size="14.00">gs2016</text>
<text text-anchor="middle" x="140.007" y="-777.777" font-family="Times New Roman,serif" font-size="14.00"> visited: 467</text>
<text text-anchor="middle" x="140.007" y="-762.777" font-family="Times New Roman,serif" font-size="14.00"> selected: 11</text>
</g>
<!-- s0&#45;&gt;gs2016 -->
<g id="edge1" class="edge"><title>s0&#45;&gt;gs2016</title>
<path fill="none" stroke="black" d="M403.477,-446.873C395.296,-514.977 367.997,-659.134 280.014,-734.477 260.031,-751.589 233.549,-762.543 209.064,-769.523"/>
<polygon fill="black" stroke="black" points="207.839,-766.228 199.079,-772.188 209.643,-772.991 207.839,-766.228"/>
<text text-anchor="middle" x="313.514" y="-718.277" font-family="Times New Roman,serif" font-size="14.00">union</text>
</g>
<!-- scopus2016 -->
<g id="node3" class="node"><title>scopus2016</title>
<ellipse fill="none" stroke="black" cx="140.007" cy="-688.477" rx="59.2941" ry="37.4533"/>
<text text-anchor="middle" x="140.007" y="-699.777" font-family="Times New Roman,serif" font-size="14.00">scopus2016</text>
<text text-anchor="middle" x="140.007" y="-684.777" font-family="Times New Roman,serif" font-size="14.00"> visited: 2</text>
<text text-anchor="middle" x="140.007" y="-669.777" font-family="Times New Roman,serif" font-size="14.00"> selected: 1</text>
</g>
<!-- s0&#45;&gt;scopus2016 -->
<g id="edge2" class="edge"><title>s0&#45;&gt;scopus2016</title>
<path fill="none" stroke="black" d="M396.111,-446.335C379.458,-497.303 342.595,-588.946 280.014,-641.477 259.516,-658.683 232.432,-669.683 207.619,-676.672"/>
<polygon fill="black" stroke="black" points="206.652,-673.307 197.879,-679.248 208.442,-680.074 206.652,-673.307"/>
<text text-anchor="middle" x="313.514" y="-625.277" font-family="Times New Roman,serif" font-size="14.00">union</text>
</g>
<!-- springer2016 -->
<g id="node4" class="node"><title>springer2016</title>
<ellipse fill="none" stroke="black" cx="140.007" cy="-595.477" rx="62.8651" ry="37.4533"/>
<text text-anchor="middle" x="140.007" y="-606.777" font-family="Times New Roman,serif" font-size="14.00">springer2016</text>
<text text-anchor="middle" x="140.007" y="-591.777" font-family="Times New Roman,serif" font-size="14.00"> visited: 66</text>
<text text-anchor="middle" x="140.007" y="-576.777" font-family="Times New Roman,serif" font-size="14.00"> selected: 1</text>
</g>
<!-- s0&#45;&gt;springer2016 -->
<g id="edge3" class="edge"><title>s0&#45;&gt;springer2016</title>
<path fill="none" stroke="black" d="M383.201,-444.08C360.192,-475.38 322.541,-520.698 280.014,-548.477 258.644,-562.436 232.709,-572.668 209.055,-579.952"/>
<polygon fill="black" stroke="black" points="208.024,-576.607 199.425,-582.797 210.007,-583.32 208.024,-576.607"/>
<text text-anchor="middle" x="313.514" y="-536.277" font-family="Times New Roman,serif" font-size="14.00">union</text>
</g>
<!-- acm2016 -->
<g id="node5" class="node"><title>acm2016</title>
<ellipse fill="none" stroke="black" cx="140.007" cy="-502.477" rx="55.7232" ry="37.4533"/>
<text text-anchor="middle" x="140.007" y="-513.777" font-family="Times New Roman,serif" font-size="14.00">acm2016</text>
<text text-anchor="middle" x="140.007" y="-498.777" font-family="Times New Roman,serif" font-size="14.00"> visited: 0</text>
<text text-anchor="middle" x="140.007" y="-483.777" font-family="Times New Roman,serif" font-size="14.00"> selected: 0</text>
</g>
<!-- s0&#45;&gt;acm2016 -->
<g id="edge4" class="edge"><title>s0&#45;&gt;acm2016</title>
<path fill="none" stroke="black" d="M355.091,-428.534C332.135,-436.914 304.769,-446.803 280.014,-455.477 253.802,-464.661 224.703,-474.547 199.931,-482.872"/>
<polygon fill="black" stroke="black" points="198.679,-479.6 190.312,-486.099 200.906,-486.236 198.679,-479.6"/>
<text text-anchor="middle" x="313.514" y="-451.277" font-family="Times New Roman,serif" font-size="14.00">union</text>
</g>
<!-- sciencedirect2016 -->
<g id="node6" class="node"><title>sciencedirect2016</title>
<ellipse fill="none" stroke="black" cx="140.007" cy="-409.477" rx="82.0488" ry="37.4533"/>
<text text-anchor="middle" x="140.007" y="-420.777" font-family="Times New Roman,serif" font-size="14.00">sciencedirect2016</text>
<text text-anchor="middle" x="140.007" y="-405.777" font-family="Times New Roman,serif" font-size="14.00"> visited: 21</text>
<text text-anchor="middle" x="140.007" y="-390.777" font-family="Times New Roman,serif" font-size="14.00"> selected: 0</text>
</g>
<!-- s0&#45;&gt;sciencedirect2016 -->
<g id="edge5" class="edge"><title>s0&#45;&gt;sciencedirect2016</title>
<path fill="none" stroke="black" d="M346.839,-409.477C313.033,-409.477 270.111,-409.477 232.22,-409.477"/>
<polygon fill="black" stroke="black" points="232.193,-405.977 222.193,-409.477 232.193,-412.977 232.193,-405.977"/>
<text text-anchor="middle" x="313.514" y="-413.277" font-family="Times New Roman,serif" font-size="14.00">union</text>
</g>
<!-- wiley2016 -->
<g id="node7" class="node"><title>wiley2016</title>
<ellipse fill="none" stroke="black" cx="140.007" cy="-316.477" rx="55.7232" ry="37.4533"/>
<text text-anchor="middle" x="140.007" y="-327.777" font-family="Times New Roman,serif" font-size="14.00">wiley2016</text>
<text text-anchor="middle" x="140.007" y="-312.777" font-family="Times New Roman,serif" font-size="14.00"> visited: 15</text>
<text text-anchor="middle" x="140.007" y="-297.777" font-family="Times New Roman,serif" font-size="14.00"> selected: 0</text>
</g>
<!-- s0&#45;&gt;wiley2016 -->
<g id="edge6" class="edge"><title>s0&#45;&gt;wiley2016</title>
<path fill="none" stroke="black" d="M355.091,-390.42C332.135,-382.039 304.769,-372.15 280.014,-363.477 253.802,-354.292 224.703,-344.406 199.931,-336.082"/>
<polygon fill="black" stroke="black" points="200.906,-332.717 190.312,-332.854 198.679,-339.353 200.906,-332.717"/>
<text text-anchor="middle" x="313.514" y="-384.277" font-family="Times New Roman,serif" font-size="14.00">union</text>
</g>
<!-- webofscience2016 -->
<g id="node8" class="node"><title>webofscience2016</title>
<ellipse fill="none" stroke="black" cx="140.007" cy="-223.477" rx="84.7059" ry="37.4533"/>
<text text-anchor="middle" x="140.007" y="-234.777" font-family="Times New Roman,serif" font-size="14.00">webofscience2016</text>
<text text-anchor="middle" x="140.007" y="-219.777" font-family="Times New Roman,serif" font-size="14.00"> visited: 0</text>
<text text-anchor="middle" x="140.007" y="-204.777" font-family="Times New Roman,serif" font-size="14.00"> selected: 0</text>
</g>
<!-- s0&#45;&gt;webofscience2016 -->
<g id="edge7" class="edge"><title>s0&#45;&gt;webofscience2016</title>
<path fill="none" stroke="black" d="M383.201,-374.873C360.192,-343.573 322.541,-298.256 280.014,-270.477 263.32,-259.571 243.838,-250.941 224.835,-244.214"/>
<polygon fill="black" stroke="black" points="225.854,-240.864 215.26,-240.965 223.605,-247.492 225.854,-240.864"/>
<text text-anchor="middle" x="313.514" y="-314.277" font-family="Times New Roman,serif" font-size="14.00">union</text>
</g>
<!-- ieee2016 -->
<g id="node9" class="node"><title>ieee2016</title>
<ellipse fill="none" stroke="black" cx="140.007" cy="-130.477" rx="55.7232" ry="37.4533"/>
<text text-anchor="middle" x="140.007" y="-141.777" font-family="Times New Roman,serif" font-size="14.00">ieee2016</text>
<text text-anchor="middle" x="140.007" y="-126.777" font-family="Times New Roman,serif" font-size="14.00"> visited: 0</text>
<text text-anchor="middle" x="140.007" y="-111.777" font-family="Times New Roman,serif" font-size="14.00"> selected: 0</text>
</g>
<!-- s0&#45;&gt;ieee2016 -->
<g id="edge8" class="edge"><title>s0&#45;&gt;ieee2016</title>
<path fill="none" stroke="black" d="M396.111,-372.618C379.458,-321.65 342.595,-230.007 280.014,-177.477 258.56,-159.468 229.892,-148.258 204.164,-141.33"/>
<polygon fill="black" stroke="black" points="205.022,-137.937 194.469,-138.879 203.306,-144.723 205.022,-137.937"/>
<text text-anchor="middle" x="313.514" y="-235.277" font-family="Times New Roman,serif" font-size="14.00">union</text>
</g>
<!-- scopus2016_duplicate_removed -->
<g id="node10" class="node"><title>scopus2016_duplicate_removed</title>
<ellipse fill="none" stroke="black" cx="140.007" cy="-37.4767" rx="140.014" ry="37.4533"/>
<text text-anchor="middle" x="140.007" y="-48.7767" font-family="Times New Roman,serif" font-size="14.00">scopus2016_duplicate_removed</text>
<text text-anchor="middle" x="140.007" y="-33.7767" font-family="Times New Roman,serif" font-size="14.00"> visited: 77</text>
<text text-anchor="middle" x="140.007" y="-18.7767" font-family="Times New Roman,serif" font-size="14.00"> selected: 2</text>
</g>
<!-- s0&#45;&gt;scopus2016_duplicate_removed -->
<g id="edge9" class="edge"><title>s0&#45;&gt;scopus2016_duplicate_removed</title>
<path fill="none" stroke="black" d="M403.477,-372.08C395.296,-303.976 367.997,-159.819 280.014,-84.4767 272.169,-77.7587 263.322,-71.9897 253.988,-67.0377"/>
<polygon fill="black" stroke="black" points="255.42,-63.8412 244.906,-62.5359 252.311,-70.113 255.42,-63.8412"/>
<text text-anchor="middle" x="313.514" y="-145.277" font-family="Times New Roman,serif" font-size="14.00">union</text>
</g>
</g>
</svg>
