<?xml version="1.0" encoding="UTF-8" standalone="no"?>
<!DOCTYPE svg PUBLIC "-//W3C//DTD SVG 1.1//EN"
 "http://www.w3.org/Graphics/SVG/1.1/DTD/svg11.dtd">
<!-- Generated by graphviz version 2.38.0 (20140413.2041)
 -->
<!-- Title: G Pages: 1 -->
<svg width="369pt" height="734pt"
 viewBox="0.00 0.00 369.16 733.95" xmlns="http://www.w3.org/2000/svg" xmlns:xlink="http://www.w3.org/1999/xlink">
<g id="graph0" class="graph" transform="scale(1 1) rotate(0) translate(4 729.953)">
<title>G</title>
<polygon fill="white" stroke="none" points="-4,4 -4,-729.953 365.156,-729.953 365.156,4 -4,4"/>
<!-- s0 -->
<g id="node1" class="node"><title>s0</title>
<ellipse fill="none" stroke="black" cx="300.345" cy="-362.477" rx="60.623" ry="37.4533"/>
<text text-anchor="middle" x="300.345" y="-373.777" font-family="Times New Roman,serif" font-size="14.00">s0</text>
<text text-anchor="middle" x="300.345" y="-358.777" font-family="Times New Roman,serif" font-size="14.00"> visited: 480</text>
<text text-anchor="middle" x="300.345" y="-343.777" font-family="Times New Roman,serif" font-size="14.00"> selected: 11</text>
</g>
<!-- googlescholar2016 -->
<g id="node2" class="node"><title>googlescholar2016</title>
<ellipse fill="none" stroke="black" cx="86.267" cy="-688.477" rx="86.0347" ry="37.4533"/>
<text text-anchor="middle" x="86.267" y="-699.777" font-family="Times New Roman,serif" font-size="14.00">googlescholar2016</text>
<text text-anchor="middle" x="86.267" y="-684.777" font-family="Times New Roman,serif" font-size="14.00"> visited: 466</text>
<text text-anchor="middle" x="86.267" y="-669.777" font-family="Times New Roman,serif" font-size="14.00"> selected: 11</text>
</g>
<!-- s0&#45;&gt;googlescholar2016 -->
<g id="edge1" class="edge"><title>s0&#45;&gt;googlescholar2016</title>
<path fill="none" stroke="black" d="M291.059,-399.584C276.36,-457.791 240.649,-571.159 172.534,-641.477 167.44,-646.735 161.629,-651.56 155.49,-655.947"/>
<polygon fill="black" stroke="black" points="153.317,-653.189 146.95,-661.657 157.208,-659.008 153.317,-653.189"/>
<text text-anchor="middle" x="206.034" y="-620.277" font-family="Times New Roman,serif" font-size="14.00">union</text>
</g>
<!-- scopus2016 -->
<g id="node3" class="node"><title>scopus2016</title>
<ellipse fill="none" stroke="black" cx="86.267" cy="-595.477" rx="59.2941" ry="37.4533"/>
<text text-anchor="middle" x="86.267" y="-606.777" font-family="Times New Roman,serif" font-size="14.00">scopus2016</text>
<text text-anchor="middle" x="86.267" y="-591.777" font-family="Times New Roman,serif" font-size="14.00"> visited: 79</text>
<text text-anchor="middle" x="86.267" y="-576.777" font-family="Times New Roman,serif" font-size="14.00"> selected: 3</text>
</g>
<!-- s0&#45;&gt;scopus2016 -->
<g id="edge2" class="edge"><title>s0&#45;&gt;scopus2016</title>
<path fill="none" stroke="black" d="M281.528,-398.364C260.07,-438.788 220.816,-504.56 172.534,-548.477 164.12,-556.13 154.238,-563.007 144.242,-568.987"/>
<polygon fill="black" stroke="black" points="142.404,-566.006 135.461,-574.009 145.879,-572.083 142.404,-566.006"/>
<text text-anchor="middle" x="206.034" y="-530.277" font-family="Times New Roman,serif" font-size="14.00">union</text>
</g>
<!-- springer2016 -->
<g id="node4" class="node"><title>springer2016</title>
<ellipse fill="none" stroke="black" cx="86.267" cy="-502.477" rx="62.8651" ry="37.4533"/>
<text text-anchor="middle" x="86.267" y="-513.777" font-family="Times New Roman,serif" font-size="14.00">springer2016</text>
<text text-anchor="middle" x="86.267" y="-498.777" font-family="Times New Roman,serif" font-size="14.00"> visited: 65</text>
<text text-anchor="middle" x="86.267" y="-483.777" font-family="Times New Roman,serif" font-size="14.00"> selected: 1</text>
</g>
<!-- s0&#45;&gt;springer2016 -->
<g id="edge3" class="edge"><title>s0&#45;&gt;springer2016</title>
<path fill="none" stroke="black" d="M261.956,-391.872C237.165,-410.863 203.599,-435.641 172.534,-455.477 163.263,-461.397 153.195,-467.344 143.335,-472.923"/>
<polygon fill="black" stroke="black" points="141.391,-469.999 134.366,-477.93 144.804,-476.111 141.391,-469.999"/>
<text text-anchor="middle" x="206.034" y="-447.277" font-family="Times New Roman,serif" font-size="14.00">union</text>
</g>
<!-- acm2016 -->
<g id="node5" class="node"><title>acm2016</title>
<ellipse fill="none" stroke="black" cx="86.267" cy="-409.477" rx="55.7232" ry="37.4533"/>
<text text-anchor="middle" x="86.267" y="-420.777" font-family="Times New Roman,serif" font-size="14.00">acm2016</text>
<text text-anchor="middle" x="86.267" y="-405.777" font-family="Times New Roman,serif" font-size="14.00"> visited: 0</text>
<text text-anchor="middle" x="86.267" y="-390.777" font-family="Times New Roman,serif" font-size="14.00"> selected: 0</text>
</g>
<!-- s0&#45;&gt;acm2016 -->
<g id="edge4" class="edge"><title>s0&#45;&gt;acm2016</title>
<path fill="none" stroke="black" d="M242.791,-375.01C214.017,-381.387 178.978,-389.152 149.447,-395.697"/>
<polygon fill="black" stroke="black" points="148.666,-392.285 139.661,-397.865 150.181,-399.119 148.666,-392.285"/>
<text text-anchor="middle" x="206.034" y="-389.277" font-family="Times New Roman,serif" font-size="14.00">union</text>
</g>
<!-- sciencedirect2016 -->
<g id="node6" class="node"><title>sciencedirect2016</title>
<ellipse fill="none" stroke="black" cx="86.267" cy="-316.477" rx="82.0488" ry="37.4533"/>
<text text-anchor="middle" x="86.267" y="-327.777" font-family="Times New Roman,serif" font-size="14.00">sciencedirect2016</text>
<text text-anchor="middle" x="86.267" y="-312.777" font-family="Times New Roman,serif" font-size="14.00"> visited: 21</text>
<text text-anchor="middle" x="86.267" y="-297.777" font-family="Times New Roman,serif" font-size="14.00"> selected: 0</text>
</g>
<!-- s0&#45;&gt;sciencedirect2016 -->
<g id="edge5" class="edge"><title>s0&#45;&gt;sciencedirect2016</title>
<path fill="none" stroke="black" d="M242.791,-350.21C220.682,-345.415 194.874,-339.817 170.708,-334.575"/>
<polygon fill="black" stroke="black" points="171.342,-331.131 160.827,-332.432 169.858,-337.972 171.342,-331.131"/>
<text text-anchor="middle" x="206.034" y="-348.277" font-family="Times New Roman,serif" font-size="14.00">union</text>
</g>
<!-- wiley2016 -->
<g id="node7" class="node"><title>wiley2016</title>
<ellipse fill="none" stroke="black" cx="86.267" cy="-223.477" rx="55.7232" ry="37.4533"/>
<text text-anchor="middle" x="86.267" y="-234.777" font-family="Times New Roman,serif" font-size="14.00">wiley2016</text>
<text text-anchor="middle" x="86.267" y="-219.777" font-family="Times New Roman,serif" font-size="14.00"> visited: 15</text>
<text text-anchor="middle" x="86.267" y="-204.777" font-family="Times New Roman,serif" font-size="14.00"> selected: 0</text>
</g>
<!-- s0&#45;&gt;wiley2016 -->
<g id="edge6" class="edge"><title>s0&#45;&gt;wiley2016</title>
<path fill="none" stroke="black" d="M261.635,-333.228C236.854,-314.485 203.418,-290.086 172.534,-270.477 162.166,-263.894 150.815,-257.262 139.874,-251.139"/>
<polygon fill="black" stroke="black" points="141.255,-247.903 130.81,-246.127 137.868,-254.029 141.255,-247.903"/>
<text text-anchor="middle" x="206.034" y="-306.277" font-family="Times New Roman,serif" font-size="14.00">union</text>
</g>
<!-- webofscience2016 -->
<g id="node8" class="node"><title>webofscience2016</title>
<ellipse fill="none" stroke="black" cx="86.267" cy="-130.477" rx="84.7059" ry="37.4533"/>
<text text-anchor="middle" x="86.267" y="-141.777" font-family="Times New Roman,serif" font-size="14.00">webofscience2016</text>
<text text-anchor="middle" x="86.267" y="-126.777" font-family="Times New Roman,serif" font-size="14.00"> visited: 0</text>
<text text-anchor="middle" x="86.267" y="-111.777" font-family="Times New Roman,serif" font-size="14.00"> selected: 0</text>
</g>
<!-- s0&#45;&gt;webofscience2016 -->
<g id="edge7" class="edge"><title>s0&#45;&gt;webofscience2016</title>
<path fill="none" stroke="black" d="M281.484,-326.788C259.985,-286.586 220.694,-221.172 172.534,-177.477 166.813,-172.286 160.417,-167.45 153.769,-163.009"/>
<polygon fill="black" stroke="black" points="155.564,-160.002 145.246,-157.596 151.811,-165.912 155.564,-160.002"/>
<text text-anchor="middle" x="206.034" y="-231.277" font-family="Times New Roman,serif" font-size="14.00">union</text>
</g>
<!-- ieee2016 -->
<g id="node9" class="node"><title>ieee2016</title>
<ellipse fill="none" stroke="black" cx="86.267" cy="-37.4767" rx="55.7232" ry="37.4533"/>
<text text-anchor="middle" x="86.267" y="-48.7767" font-family="Times New Roman,serif" font-size="14.00">ieee2016</text>
<text text-anchor="middle" x="86.267" y="-33.7767" font-family="Times New Roman,serif" font-size="14.00"> visited: 0</text>
<text text-anchor="middle" x="86.267" y="-18.7767" font-family="Times New Roman,serif" font-size="14.00"> selected: 0</text>
</g>
<!-- s0&#45;&gt;ieee2016 -->
<g id="edge8" class="edge"><title>s0&#45;&gt;ieee2016</title>
<path fill="none" stroke="black" d="M290.89,-325.039C276.051,-266.915 240.262,-154.395 172.534,-84.4767 164.081,-75.7503 153.653,-68.2191 143.026,-61.8998"/>
<polygon fill="black" stroke="black" points="144.523,-58.7264 134.091,-56.8771 141.093,-64.8284 144.523,-58.7264"/>
<text text-anchor="middle" x="206.034" y="-148.277" font-family="Times New Roman,serif" font-size="14.00">union</text>
</g>
</g>
</svg>
