<?xml version="1.0" encoding="UTF-8" standalone="no"?>
<!DOCTYPE svg PUBLIC "-//W3C//DTD SVG 1.1//EN"
 "http://www.w3.org/Graphics/SVG/1.1/DTD/svg11.dtd">
<!-- Generated by graphviz version 2.38.0 (20140413.2041)
 -->
<!-- Title: G Pages: 1 -->
<svg width="328pt" height="641pt"
 viewBox="0.00 0.00 328.14 640.95" xmlns="http://www.w3.org/2000/svg" xmlns:xlink="http://www.w3.org/1999/xlink">
<g id="graph0" class="graph" transform="scale(1 1) rotate(0) translate(4 636.953)">
<title>G</title>
<polygon fill="white" stroke="none" points="-4,4 -4,-636.953 324.144,-636.953 324.144,4 -4,4"/>
<!-- s0 -->
<g id="node1" class="node"><title>s0</title>
<ellipse fill="none" stroke="black" cx="259.333" cy="-316.477" rx="60.623" ry="37.4533"/>
<text text-anchor="middle" x="259.333" y="-327.777" font-family="Times New Roman,serif" font-size="14.00">s0</text>
<text text-anchor="middle" x="259.333" y="-312.777" font-family="Times New Roman,serif" font-size="14.00"> visited: 497</text>
<text text-anchor="middle" x="259.333" y="-297.777" font-family="Times New Roman,serif" font-size="14.00"> selected: 22</text>
</g>
<!-- scopus -->
<g id="node2" class="node"><title>scopus</title>
<ellipse fill="none" stroke="black" cx="65.7609" cy="-595.477" rx="55.7232" ry="37.4533"/>
<text text-anchor="middle" x="65.7609" y="-606.777" font-family="Times New Roman,serif" font-size="14.00">scopus</text>
<text text-anchor="middle" x="65.7609" y="-591.777" font-family="Times New Roman,serif" font-size="14.00"> visited: 15</text>
<text text-anchor="middle" x="65.7609" y="-576.777" font-family="Times New Roman,serif" font-size="14.00"> selected: 7</text>
</g>
<!-- s0&#45;&gt;scopus -->
<g id="edge1" class="edge"><title>s0&#45;&gt;scopus</title>
<path fill="none" stroke="black" d="M244.388,-352.93C224.588,-401.407 184.738,-487.998 131.522,-548.477 126.727,-553.926 121.191,-559.109 115.417,-563.907"/>
<polygon fill="black" stroke="black" points="113.125,-561.257 107.443,-570.2 117.462,-566.752 113.125,-561.257"/>
<text text-anchor="middle" x="165.022" y="-529.277" font-family="Times New Roman,serif" font-size="14.00">union</text>
</g>
<!-- ieee -->
<g id="node3" class="node"><title>ieee</title>
<ellipse fill="none" stroke="black" cx="65.7609" cy="-502.477" rx="55.7232" ry="37.4533"/>
<text text-anchor="middle" x="65.7609" y="-513.777" font-family="Times New Roman,serif" font-size="14.00">ieee</text>
<text text-anchor="middle" x="65.7609" y="-498.777" font-family="Times New Roman,serif" font-size="14.00"> visited: 43</text>
<text text-anchor="middle" x="65.7609" y="-483.777" font-family="Times New Roman,serif" font-size="14.00"> selected: 6</text>
</g>
<!-- s0&#45;&gt;ieee -->
<g id="edge2" class="edge"><title>s0&#45;&gt;ieee</title>
<path fill="none" stroke="black" d="M231.12,-349.985C206.551,-379.304 168.659,-422.275 131.522,-455.477 126.039,-460.378 120.055,-465.262 114.011,-469.927"/>
<polygon fill="black" stroke="black" points="111.655,-467.32 105.773,-476.132 115.867,-472.911 111.655,-467.32"/>
<text text-anchor="middle" x="165.022" y="-441.277" font-family="Times New Roman,serif" font-size="14.00">union</text>
</g>
<!-- acm -->
<g id="node4" class="node"><title>acm</title>
<ellipse fill="none" stroke="black" cx="65.7609" cy="-409.477" rx="58.8803" ry="37.4533"/>
<text text-anchor="middle" x="65.7609" y="-420.777" font-family="Times New Roman,serif" font-size="14.00">acm</text>
<text text-anchor="middle" x="65.7609" y="-405.777" font-family="Times New Roman,serif" font-size="14.00"> visited: 100</text>
<text text-anchor="middle" x="65.7609" y="-390.777" font-family="Times New Roman,serif" font-size="14.00"> selected: 5</text>
</g>
<!-- s0&#45;&gt;acm -->
<g id="edge3" class="edge"><title>s0&#45;&gt;acm</title>
<path fill="none" stroke="black" d="M210.978,-339.465C184.1,-352.513 150.318,-368.913 122.208,-382.56"/>
<polygon fill="black" stroke="black" points="120.378,-379.557 112.91,-387.073 123.435,-385.855 120.378,-379.557"/>
<text text-anchor="middle" x="165.022" y="-372.277" font-family="Times New Roman,serif" font-size="14.00">union</text>
</g>
<!-- springer -->
<g id="node5" class="node"><title>springer</title>
<ellipse fill="none" stroke="black" cx="65.7609" cy="-316.477" rx="58.8803" ry="37.4533"/>
<text text-anchor="middle" x="65.7609" y="-327.777" font-family="Times New Roman,serif" font-size="14.00">springer</text>
<text text-anchor="middle" x="65.7609" y="-312.777" font-family="Times New Roman,serif" font-size="14.00"> visited: 141</text>
<text text-anchor="middle" x="65.7609" y="-297.777" font-family="Times New Roman,serif" font-size="14.00"> selected: 2</text>
</g>
<!-- s0&#45;&gt;springer -->
<g id="edge4" class="edge"><title>s0&#45;&gt;springer</title>
<path fill="none" stroke="black" d="M198.506,-316.477C178.222,-316.477 155.421,-316.477 134.561,-316.477"/>
<polygon fill="black" stroke="black" points="134.496,-312.977 124.496,-316.477 134.496,-319.977 134.496,-312.977"/>
<text text-anchor="middle" x="165.022" y="-320.277" font-family="Times New Roman,serif" font-size="14.00">union</text>
</g>
<!-- elcompendex -->
<g id="node6" class="node"><title>elcompendex</title>
<ellipse fill="none" stroke="black" cx="65.7609" cy="-223.477" rx="64.1938" ry="37.4533"/>
<text text-anchor="middle" x="65.7609" y="-234.777" font-family="Times New Roman,serif" font-size="14.00">elcompendex</text>
<text text-anchor="middle" x="65.7609" y="-219.777" font-family="Times New Roman,serif" font-size="14.00"> visited: 13</text>
<text text-anchor="middle" x="65.7609" y="-204.777" font-family="Times New Roman,serif" font-size="14.00"> selected: 5</text>
</g>
<!-- s0&#45;&gt;elcompendex -->
<g id="edge5" class="edge"><title>s0&#45;&gt;elcompendex</title>
<path fill="none" stroke="black" d="M210.978,-293.488C184.996,-280.875 152.563,-265.13 125.037,-251.767"/>
<polygon fill="black" stroke="black" points="126.431,-248.554 115.907,-247.335 123.374,-254.851 126.431,-248.554"/>
<text text-anchor="middle" x="165.022" y="-281.277" font-family="Times New Roman,serif" font-size="14.00">union</text>
</g>
<!-- webofscience -->
<g id="node7" class="node"><title>webofscience</title>
<ellipse fill="none" stroke="black" cx="65.7609" cy="-130.477" rx="65.5227" ry="37.4533"/>
<text text-anchor="middle" x="65.7609" y="-141.777" font-family="Times New Roman,serif" font-size="14.00">webofscience</text>
<text text-anchor="middle" x="65.7609" y="-126.777" font-family="Times New Roman,serif" font-size="14.00"> visited: 10</text>
<text text-anchor="middle" x="65.7609" y="-111.777" font-family="Times New Roman,serif" font-size="14.00"> selected: 5</text>
</g>
<!-- s0&#45;&gt;webofscience -->
<g id="edge6" class="edge"><title>s0&#45;&gt;webofscience</title>
<path fill="none" stroke="black" d="M231.12,-282.968C206.551,-253.649 168.659,-210.679 131.522,-177.477 126.9,-173.345 121.922,-169.225 116.852,-165.239"/>
<polygon fill="black" stroke="black" points="118.913,-162.409 108.847,-159.103 114.654,-167.965 118.913,-162.409"/>
<text text-anchor="middle" x="165.022" y="-229.277" font-family="Times New Roman,serif" font-size="14.00">union</text>
</g>
<!-- sciencedirect -->
<g id="node8" class="node"><title>sciencedirect</title>
<ellipse fill="none" stroke="black" cx="65.7609" cy="-37.4767" rx="62.8651" ry="37.4533"/>
<text text-anchor="middle" x="65.7609" y="-48.7767" font-family="Times New Roman,serif" font-size="14.00">sciencedirect</text>
<text text-anchor="middle" x="65.7609" y="-33.7767" font-family="Times New Roman,serif" font-size="14.00"> visited: 195</text>
<text text-anchor="middle" x="65.7609" y="-18.7767" font-family="Times New Roman,serif" font-size="14.00"> selected: 1</text>
</g>
<!-- s0&#45;&gt;sciencedirect -->
<g id="edge7" class="edge"><title>s0&#45;&gt;sciencedirect</title>
<path fill="none" stroke="black" d="M244.388,-280.023C224.588,-231.546 184.738,-144.955 131.522,-84.4767 127.366,-79.7541 122.655,-75.2317 117.714,-70.9865"/>
<polygon fill="black" stroke="black" points="119.774,-68.1503 109.808,-64.5545 115.356,-73.5804 119.774,-68.1503"/>
<text text-anchor="middle" x="165.022" y="-153.277" font-family="Times New Roman,serif" font-size="14.00">union</text>
</g>
</g>
</svg>
