<?xml version="1.0" encoding="UTF-8" standalone="no"?>
<!DOCTYPE svg PUBLIC "-//W3C//DTD SVG 1.1//EN"
 "http://www.w3.org/Graphics/SVG/1.1/DTD/svg11.dtd">
<!-- Generated by graphviz version 2.38.0 (20140413.2041)
 -->
<!-- Title: PROV Pages: 1 -->
<svg width="650pt" height="324pt"
 viewBox="0.00 0.00 650.00 324.00" xmlns="http://www.w3.org/2000/svg" xmlns:xlink="http://www.w3.org/1999/xlink">
<g id="graph0" class="graph" transform="scale(1 1) rotate(0) translate(4 320)">
<title>PROV</title>
<polygon fill="white" stroke="none" points="-4,4 -4,-320 646,-320 646,4 -4,4"/>
<!-- http://example.org/union11 -->
<g id="node1" class="node"><title>http://example.org/union11</title>
<g id="a_node1"><a xlink:href="http://example.org/union11" xlink:title="union11">
<polygon fill="#9fb1fc" stroke="#0000ff" points="501,-210.5 440,-210.5 440,-174.5 501,-174.5 501,-210.5"/>
<text text-anchor="middle" x="470.5" y="-188.8" font-family="Times New Roman,serif" font-size="14.00">union11</text>
</a>
</g>
</g>
<!-- http://example.org/s8 -->
<g id="node14" class="node"><title>http://example.org/s8</title>
<g id="a_node14"><a xlink:href="http://example.org/s8" xlink:title="s8">
<ellipse fill="#fffc87" stroke="#808080" cx="401.5" cy="-131.5" rx="27" ry="18"/>
<text text-anchor="middle" x="401.5" y="-127.8" font-family="Times New Roman,serif" font-size="14.00">s8</text>
</a>
</g>
</g>
<!-- http://example.org/union11&#45;&gt;http://example.org/s8 -->
<g id="edge12" class="edge"><title>http://example.org/union11&#45;&gt;http://example.org/s8</title>
<path fill="none" stroke="black" d="M449.107,-174.492C445.398,-171.183 441.573,-167.748 438,-164.5 433.978,-160.844 429.726,-156.932 425.615,-153.126"/>
<polygon fill="black" stroke="black" points="427.691,-150.277 417.983,-146.032 422.925,-155.404 427.691,-150.277"/>
<text text-anchor="middle" x="434.861" y="-177.287" font-family="Times New Roman,serif" font-size="8.00">use</text>
</g>
<!-- http://example.org/s10 -->
<g id="node16" class="node"><title>http://example.org/s10</title>
<g id="a_node16"><a xlink:href="http://example.org/s10" xlink:title="s10">
<ellipse fill="#fffc87" stroke="#808080" cx="401.5" cy="-238.5" rx="27" ry="18"/>
<text text-anchor="middle" x="401.5" y="-234.8" font-family="Times New Roman,serif" font-size="14.00">s10</text>
</a>
</g>
</g>
<!-- http://example.org/union11&#45;&gt;http://example.org/s10 -->
<g id="edge15" class="edge"><title>http://example.org/union11&#45;&gt;http://example.org/s10</title>
<path fill="none" stroke="black" d="M443.02,-210.68C438.562,-213.741 433.93,-216.921 429.461,-219.99"/>
<polygon fill="black" stroke="black" points="427.415,-217.149 421.152,-225.694 431.377,-222.919 427.415,-217.149"/>
<text text-anchor="middle" x="444.189" y="-223.735" font-family="Times New Roman,serif" font-size="8.00">use</text>
</g>
<!-- &#45;attrs0 -->
<g id="node2" class="node"><title>&#45;attrs0</title>
<polygon fill="none" stroke="gray" points="562,-156.5 511,-156.5 511,-120.5 568,-120.5 568,-150.5 562,-156.5"/>
<polyline fill="none" stroke="gray" points="562,-156.5 562,-150.5 "/>
<polyline fill="none" stroke="gray" points="568,-150.5 562,-150.5 "/>
<text text-anchor="start" x="521.5" y="-142.5" font-family="Times New Roman,serif" font-size="10.00">found:</text>
<text text-anchor="start" x="553.5" y="-142.5" font-family="Times New Roman,serif" font-size="10.00">0</text>
<text text-anchor="start" x="521.5" y="-129.5" font-family="Times New Roman,serif" font-size="10.00">related:</text>
<text text-anchor="start" x="553.5" y="-129.5" font-family="Times New Roman,serif" font-size="10.00">0</text>
</g>
<!-- &#45;attrs0&#45;&gt;http://example.org/union11 -->
<g id="edge1" class="edge"><title>&#45;attrs0&#45;&gt;http://example.org/union11</title>
<path fill="none" stroke="gray" stroke-dasharray="5,2" d="M515.817,-156.782C508.832,-162.412 501.143,-168.608 494.16,-174.237"/>
</g>
<!-- http://example.org/forward8 -->
<g id="node3" class="node"><title>http://example.org/forward8</title>
<g id="a_node3"><a xlink:href="http://example.org/forward8" xlink:title="forward8">
<polygon fill="#9fb1fc" stroke="#0000ff" points="356.5,-103.5 288.5,-103.5 288.5,-67.5 356.5,-67.5 356.5,-103.5"/>
<text text-anchor="middle" x="322.5" y="-81.8" font-family="Times New Roman,serif" font-size="14.00">forward8</text>
</a>
</g>
</g>
<!-- http://example.org/s7 -->
<g id="node18" class="node"><title>http://example.org/s7</title>
<g id="a_node18"><a xlink:href="http://example.org/s7" xlink:title="s7">
<ellipse fill="#fffc87" stroke="#808080" cx="241" cy="-100.5" rx="27" ry="18"/>
<text text-anchor="middle" x="241" y="-96.8" font-family="Times New Roman,serif" font-size="14.00">s7</text>
</a>
</g>
</g>
<!-- http://example.org/forward8&#45;&gt;http://example.org/s7 -->
<g id="edge18" class="edge"><title>http://example.org/forward8&#45;&gt;http://example.org/s7</title>
<path fill="none" stroke="black" d="M288.245,-91.7744C284.647,-92.4533 280.976,-93.146 277.355,-93.8293"/>
<polygon fill="black" stroke="black" points="276.557,-90.4179 267.38,-95.7114 277.855,-97.2965 276.557,-90.4179"/>
<text text-anchor="middle" x="283.284" y="-104.03" font-family="Times New Roman,serif" font-size="8.00">use</text>
</g>
<!-- &#45;attrs1 -->
<g id="node4" class="node"><title>&#45;attrs1</title>
<polygon fill="none" stroke="gray" points="424,-95.5 373,-95.5 373,-59.5 430,-59.5 430,-89.5 424,-95.5"/>
<polyline fill="none" stroke="gray" points="424,-95.5 424,-89.5 "/>
<polyline fill="none" stroke="gray" points="430,-89.5 424,-89.5 "/>
<text text-anchor="start" x="383.5" y="-81.5" font-family="Times New Roman,serif" font-size="10.00">found:</text>
<text text-anchor="start" x="415.5" y="-81.5" font-family="Times New Roman,serif" font-size="10.00">0</text>
<text text-anchor="start" x="383.5" y="-68.5" font-family="Times New Roman,serif" font-size="10.00">related:</text>
<text text-anchor="start" x="415.5" y="-68.5" font-family="Times New Roman,serif" font-size="10.00">0</text>
</g>
<!-- &#45;attrs1&#45;&gt;http://example.org/forward8 -->
<g id="edge2" class="edge"><title>&#45;attrs1&#45;&gt;http://example.org/forward8</title>
<path fill="none" stroke="gray" stroke-dasharray="5,2" d="M372.701,-80.3882C367.446,-80.9342 361.901,-81.5103 356.504,-82.071"/>
</g>
<!-- http://example.org/backward10 -->
<g id="node5" class="node"><title>http://example.org/backward10</title>
<g id="a_node5"><a xlink:href="http://example.org/backward10" xlink:title="backward10">
<polygon fill="#9fb1fc" stroke="#0000ff" points="365,-302.5 280,-302.5 280,-266.5 365,-266.5 365,-302.5"/>
<text text-anchor="middle" x="322.5" y="-280.8" font-family="Times New Roman,serif" font-size="14.00">backward10</text>
</a>
</g>
</g>
<!-- http://example.org/s9 -->
<g id="node20" class="node"><title>http://example.org/s9</title>
<g id="a_node20"><a xlink:href="http://example.org/s9" xlink:title="s9">
<ellipse fill="#fffc87" stroke="#808080" cx="241" cy="-223.5" rx="27" ry="18"/>
<text text-anchor="middle" x="241" y="-219.8" font-family="Times New Roman,serif" font-size="14.00">s9</text>
</a>
</g>
</g>
<!-- http://example.org/backward10&#45;&gt;http://example.org/s9 -->
<g id="edge21" class="edge"><title>http://example.org/backward10&#45;&gt;http://example.org/s9</title>
<path fill="none" stroke="black" d="M297.647,-266.198C288.167,-258.924 277.242,-250.541 267.596,-243.14"/>
<polygon fill="black" stroke="black" points="269.582,-240.252 259.517,-236.941 265.32,-245.805 269.582,-240.252"/>
<text text-anchor="middle" x="283.789" y="-270.039" font-family="Times New Roman,serif" font-size="8.00">use</text>
</g>
<!-- &#45;attrs2 -->
<g id="node6" class="node"><title>&#45;attrs2</title>
<polygon fill="none" stroke="gray" points="424,-310.5 373,-310.5 373,-274.5 430,-274.5 430,-304.5 424,-310.5"/>
<polyline fill="none" stroke="gray" points="424,-310.5 424,-304.5 "/>
<polyline fill="none" stroke="gray" points="430,-304.5 424,-304.5 "/>
<text text-anchor="start" x="383.5" y="-296.5" font-family="Times New Roman,serif" font-size="10.00">found:</text>
<text text-anchor="start" x="415.5" y="-296.5" font-family="Times New Roman,serif" font-size="10.00">0</text>
<text text-anchor="start" x="383.5" y="-283.5" font-family="Times New Roman,serif" font-size="10.00">related:</text>
<text text-anchor="start" x="415.5" y="-283.5" font-family="Times New Roman,serif" font-size="10.00">0</text>
</g>
<!-- &#45;attrs2&#45;&gt;http://example.org/backward10 -->
<g id="edge3" class="edge"><title>&#45;attrs2&#45;&gt;http://example.org/backward10</title>
<path fill="none" stroke="gray" stroke-dasharray="5,2" d="M372.701,-289.612C370.203,-289.352 367.639,-289.086 365.057,-288.818"/>
</g>
<!-- http://example.org/forward7 -->
<g id="node7" class="node"><title>http://example.org/forward7</title>
<g id="a_node7"><a xlink:href="http://example.org/forward7" xlink:title="forward7">
<polygon fill="#9fb1fc" stroke="#0000ff" points="197,-168.5 129,-168.5 129,-132.5 197,-132.5 197,-168.5"/>
<text text-anchor="middle" x="163" y="-146.8" font-family="Times New Roman,serif" font-size="14.00">forward7</text>
</a>
</g>
</g>
<!-- http://example.org/s0 -->
<g id="node22" class="node"><title>http://example.org/s0</title>
<g id="a_node22"><a xlink:href="http://example.org/s0" xlink:title="s0">
<ellipse fill="#fffc87" stroke="#808080" cx="89" cy="-150.5" rx="27" ry="18"/>
<text text-anchor="middle" x="89" y="-146.8" font-family="Times New Roman,serif" font-size="14.00">s0</text>
</a>
</g>
</g>
<!-- http://example.org/forward7&#45;&gt;http://example.org/s0 -->
<g id="edge24" class="edge"><title>http://example.org/forward7&#45;&gt;http://example.org/s0</title>
<path fill="none" stroke="black" d="M128.95,-150.5C128.146,-150.5 127.34,-150.5 126.534,-150.5"/>
<polygon fill="black" stroke="black" points="126.162,-147 116.162,-150.5 126.162,-154 126.162,-147"/>
<text text-anchor="middle" x="121.45" y="-161.59" font-family="Times New Roman,serif" font-size="8.00">use</text>
</g>
<!-- &#45;attrs3 -->
<g id="node8" class="node"><title>&#45;attrs3</title>
<polygon fill="none" stroke="gray" points="266,-172.5 210,-172.5 210,-136.5 272,-136.5 272,-166.5 266,-172.5"/>
<polyline fill="none" stroke="gray" points="266,-172.5 266,-166.5 "/>
<polyline fill="none" stroke="gray" points="272,-166.5 266,-166.5 "/>
<text text-anchor="start" x="220" y="-158.5" font-family="Times New Roman,serif" font-size="10.00">found:</text>
<text text-anchor="start" x="252" y="-158.5" font-family="Times New Roman,serif" font-size="10.00">70</text>
<text text-anchor="start" x="220" y="-145.5" font-family="Times New Roman,serif" font-size="10.00">related:</text>
<text text-anchor="start" x="252" y="-145.5" font-family="Times New Roman,serif" font-size="10.00">1</text>
</g>
<!-- &#45;attrs3&#45;&gt;http://example.org/forward7 -->
<g id="edge4" class="edge"><title>&#45;attrs3&#45;&gt;http://example.org/forward7</title>
<path fill="none" stroke="gray" stroke-dasharray="5,2" d="M209.963,-152.919C205.731,-152.696 201.361,-152.466 197.076,-152.241"/>
</g>
<!-- http://example.org/backward9 -->
<g id="node9" class="node"><title>http://example.org/backward9</title>
<g id="a_node9"><a xlink:href="http://example.org/backward9" xlink:title="backward9">
<polygon fill="#9fb1fc" stroke="#0000ff" points="202,-260.5 124,-260.5 124,-224.5 202,-224.5 202,-260.5"/>
<text text-anchor="middle" x="163" y="-238.8" font-family="Times New Roman,serif" font-size="14.00">backward9</text>
</a>
</g>
</g>
<!-- http://example.org/backward9&#45;&gt;http://example.org/s0 -->
<g id="edge27" class="edge"><title>http://example.org/backward9&#45;&gt;http://example.org/s0</title>
<path fill="none" stroke="black" d="M137.874,-224.42C132.974,-220.154 128.078,-215.409 124,-210.5 115.597,-200.385 108.146,-187.906 102.377,-176.953"/>
<polygon fill="black" stroke="black" points="105.394,-175.163 97.7588,-167.818 99.1473,-178.321 105.394,-175.163"/>
<text text-anchor="middle" x="123.66" y="-227.312" font-family="Times New Roman,serif" font-size="8.00">use</text>
</g>
<!-- &#45;attrs4 -->
<g id="node10" class="node"><title>&#45;attrs4</title>
<polygon fill="none" stroke="gray" points="266,-295.5 210,-295.5 210,-259.5 272,-259.5 272,-289.5 266,-295.5"/>
<polyline fill="none" stroke="gray" points="266,-295.5 266,-289.5 "/>
<polyline fill="none" stroke="gray" points="272,-289.5 266,-289.5 "/>
<text text-anchor="start" x="220" y="-281.5" font-family="Times New Roman,serif" font-size="10.00">found:</text>
<text text-anchor="start" x="252" y="-281.5" font-family="Times New Roman,serif" font-size="10.00">31</text>
<text text-anchor="start" x="220" y="-268.5" font-family="Times New Roman,serif" font-size="10.00">related:</text>
<text text-anchor="start" x="252" y="-268.5" font-family="Times New Roman,serif" font-size="10.00">1</text>
</g>
<!-- &#45;attrs4&#45;&gt;http://example.org/backward9 -->
<g id="edge5" class="edge"><title>&#45;attrs4&#45;&gt;http://example.org/backward9</title>
<path fill="none" stroke="gray" stroke-dasharray="5,2" d="M209.963,-263.667C207.39,-262.482 204.767,-261.274 202.143,-260.066"/>
</g>
<!-- http://example.org/start -->
<g id="node11" class="node"><title>http://example.org/start</title>
<g id="a_node11"><a xlink:href="http://example.org/start" xlink:title="start">
<polygon fill="#9fb1fc" stroke="#0000ff" points="54,-168.5 0,-168.5 0,-132.5 54,-132.5 54,-168.5"/>
<text text-anchor="middle" x="27" y="-146.8" font-family="Times New Roman,serif" font-size="14.00">start</text>
</a>
</g>
</g>
<!-- http://example.org/s11 -->
<g id="node12" class="node"><title>http://example.org/s11</title>
<g id="a_node12"><a xlink:href="http://example.org/s11" xlink:title="s11">
<ellipse fill="#fffc87" stroke="#808080" cx="539.5" cy="-192.5" rx="27" ry="18"/>
<text text-anchor="middle" x="539.5" y="-188.8" font-family="Times New Roman,serif" font-size="14.00">s11</text>
</a>
</g>
</g>
<!-- http://example.org/s11&#45;&gt;http://example.org/union11 -->
<g id="edge13" class="edge"><title>http://example.org/s11&#45;&gt;http://example.org/union11</title>
<path fill="none" stroke="black" d="M514.311,-185.987C513.393,-185.939 512.465,-185.899 511.529,-185.865"/>
<polygon fill="black" stroke="black" points="511.402,-182.364 501.375,-185.785 511.347,-189.364 511.402,-182.364"/>
<text text-anchor="middle" x="506.155" y="-196.676" font-family="Times New Roman,serif" font-size="8.00">gen</text>
</g>
<!-- http://example.org/s11&#45;&gt;http://example.org/union11 -->
<g id="edge16" class="edge"><title>http://example.org/s11&#45;&gt;http://example.org/union11</title>
<path fill="none" stroke="black" d="M514.311,-199.013C513.393,-199.061 512.465,-199.101 511.529,-199.135"/>
<polygon fill="black" stroke="black" points="511.347,-195.636 501.375,-199.215 511.402,-202.636 511.347,-195.636"/>
<text text-anchor="middle" x="507.488" y="-210.471" font-family="Times New Roman,serif" font-size="8.00">gen</text>
</g>
<!-- http://example.org/s11&#45;&gt;http://example.org/s8 -->
<g id="edge14" class="edge"><title>http://example.org/s11&#45;&gt;http://example.org/s8</title>
<path fill="none" stroke="black" d="M521.29,-179.147C517.285,-175.188 513.474,-170.546 511,-165.5 504.302,-151.838 514.37,-107.611 503,-97.5 481.412,-78.3029 464.808,-86.7333 438,-97.5 436.997,-97.9029 431.224,-103.315 424.616,-109.707"/>
<polygon fill="black" stroke="black" points="422.02,-107.351 417.303,-116.838 426.907,-112.363 422.02,-107.351"/>
<text text-anchor="middle" x="506.779" y="-181.048" font-family="Times New Roman,serif" font-size="8.00">der</text>
</g>
<!-- http://example.org/s11&#45;&gt;http://example.org/s10 -->
<g id="edge17" class="edge"><title>http://example.org/s11&#45;&gt;http://example.org/s10</title>
<path fill="none" stroke="black" d="M522.9,-206.853C517.039,-211.545 510.075,-216.353 503,-219.5 482.784,-228.493 458.437,-233.233 438.771,-235.729"/>
<polygon fill="black" stroke="black" points="438.217,-232.269 428.673,-236.87 439.002,-239.225 438.217,-232.269"/>
<text text-anchor="middle" x="525.041" y="-219.8" font-family="Times New Roman,serif" font-size="8.00">der</text>
</g>
<!-- &#45;attrs5 -->
<g id="node13" class="node"><title>&#45;attrs5</title>
<polygon fill="none" stroke="gray" points="636,-217 576,-217 576,-168 642,-168 642,-211 636,-217"/>
<polyline fill="none" stroke="gray" points="636,-217 636,-211 "/>
<polyline fill="none" stroke="gray" points="642,-211 636,-211 "/>
<text text-anchor="start" x="586" y="-202.5" font-family="Times New Roman,serif" font-size="10.00">type:</text>
<text text-anchor="start" x="618" y="-202.5" font-family="Times New Roman,serif" font-size="10.00">Set</text>
<text text-anchor="start" x="586" y="-189.5" font-family="Times New Roman,serif" font-size="10.00">visited:</text>
<text text-anchor="start" x="618" y="-189.5" font-family="Times New Roman,serif" font-size="10.00">100</text>
<text text-anchor="start" x="586" y="-176.5" font-family="Times New Roman,serif" font-size="10.00">related:</text>
<text text-anchor="start" x="618" y="-176.5" font-family="Times New Roman,serif" font-size="10.00">4</text>
</g>
<!-- &#45;attrs5&#45;&gt;http://example.org/s11 -->
<g id="edge6" class="edge"><title>&#45;attrs5&#45;&gt;http://example.org/s11</title>
<path fill="none" stroke="gray" stroke-dasharray="5,2" d="M575.832,-192.5C572.708,-192.5 569.566,-192.5 566.513,-192.5"/>
</g>
<!-- http://example.org/s8&#45;&gt;http://example.org/forward8 -->
<g id="edge19" class="edge"><title>http://example.org/s8&#45;&gt;http://example.org/forward8</title>
<path fill="none" stroke="black" d="M380.671,-119.654C375.034,-116.286 368.692,-112.498 362.339,-108.702"/>
<polygon fill="black" stroke="black" points="364.112,-105.685 353.732,-103.561 360.522,-111.694 364.112,-105.685"/>
<text text-anchor="middle" x="367.57" y="-125.059" font-family="Times New Roman,serif" font-size="8.00">gen</text>
</g>
<!-- http://example.org/s8&#45;&gt;http://example.org/s7 -->
<g id="edge20" class="edge"><title>http://example.org/s8&#45;&gt;http://example.org/s7</title>
<path fill="none" stroke="black" d="M374.426,-128.532C349.871,-125.468 312.16,-120.069 280,-112.5 278.527,-112.153 277.028,-111.778 275.519,-111.382"/>
<polygon fill="black" stroke="black" points="276.141,-107.92 265.565,-108.542 274.221,-114.652 276.141,-107.92"/>
<text text-anchor="middle" x="365.34" y="-138.567" font-family="Times New Roman,serif" font-size="8.00">der</text>
</g>
<!-- &#45;attrs6 -->
<g id="node15" class="node"><title>&#45;attrs6</title>
<polygon fill="none" stroke="gray" points="497,-156 438,-156 438,-107 503,-107 503,-150 497,-156"/>
<polyline fill="none" stroke="gray" points="497,-156 497,-150 "/>
<polyline fill="none" stroke="gray" points="503,-150 497,-150 "/>
<text text-anchor="start" x="448.5" y="-141.5" font-family="Times New Roman,serif" font-size="10.00">type:</text>
<text text-anchor="start" x="480.5" y="-141.5" font-family="Times New Roman,serif" font-size="10.00">Set</text>
<text text-anchor="start" x="448.5" y="-128.5" font-family="Times New Roman,serif" font-size="10.00">visited:</text>
<text text-anchor="start" x="480.5" y="-128.5" font-family="Times New Roman,serif" font-size="10.00">74</text>
<text text-anchor="start" x="448.5" y="-115.5" font-family="Times New Roman,serif" font-size="10.00">related:</text>
<text text-anchor="start" x="480.5" y="-115.5" font-family="Times New Roman,serif" font-size="10.00">3</text>
</g>
<!-- &#45;attrs6&#45;&gt;http://example.org/s8 -->
<g id="edge7" class="edge"><title>&#45;attrs6&#45;&gt;http://example.org/s8</title>
<path fill="none" stroke="gray" stroke-dasharray="5,2" d="M437.962,-131.5C434.839,-131.5 431.694,-131.5 428.635,-131.5"/>
</g>
<!-- http://example.org/s10&#45;&gt;http://example.org/backward10 -->
<g id="edge22" class="edge"><title>http://example.org/s10&#45;&gt;http://example.org/backward10</title>
<path fill="none" stroke="black" d="M380.671,-250.346C375.034,-253.714 368.692,-257.502 362.339,-261.298"/>
<polygon fill="black" stroke="black" points="360.522,-258.306 353.732,-266.439 364.112,-264.315 360.522,-258.306"/>
<text text-anchor="middle" x="380.894" y="-263.444" font-family="Times New Roman,serif" font-size="8.00">gen</text>
</g>
<!-- http://example.org/s10&#45;&gt;http://example.org/s9 -->
<g id="edge23" class="edge"><title>http://example.org/s10&#45;&gt;http://example.org/s9</title>
<path fill="none" stroke="black" d="M374.681,-236.057C348.431,-233.572 307.541,-229.703 278.091,-226.916"/>
<polygon fill="black" stroke="black" points="278.093,-223.4 267.807,-225.942 277.433,-230.369 278.093,-223.4"/>
<text text-anchor="middle" x="365.991" y="-246.383" font-family="Times New Roman,serif" font-size="8.00">der</text>
</g>
<!-- &#45;attrs7 -->
<g id="node17" class="node"><title>&#45;attrs7</title>
<polygon fill="none" stroke="gray" points="497,-316 438,-316 438,-267 503,-267 503,-310 497,-316"/>
<polyline fill="none" stroke="gray" points="497,-316 497,-310 "/>
<polyline fill="none" stroke="gray" points="503,-310 497,-310 "/>
<text text-anchor="start" x="448.5" y="-301.5" font-family="Times New Roman,serif" font-size="10.00">type:</text>
<text text-anchor="start" x="480.5" y="-301.5" font-family="Times New Roman,serif" font-size="10.00">Set</text>
<text text-anchor="start" x="448.5" y="-288.5" font-family="Times New Roman,serif" font-size="10.00">visited:</text>
<text text-anchor="start" x="480.5" y="-288.5" font-family="Times New Roman,serif" font-size="10.00">35</text>
<text text-anchor="start" x="448.5" y="-275.5" font-family="Times New Roman,serif" font-size="10.00">related:</text>
<text text-anchor="start" x="480.5" y="-275.5" font-family="Times New Roman,serif" font-size="10.00">3</text>
</g>
<!-- &#45;attrs7&#45;&gt;http://example.org/s10 -->
<g id="edge8" class="edge"><title>&#45;attrs7&#45;&gt;http://example.org/s10</title>
<path fill="none" stroke="gray" stroke-dasharray="5,2" d="M438.354,-266.862C431.929,-261.78 425.389,-256.606 419.683,-252.093"/>
</g>
<!-- http://example.org/s7&#45;&gt;http://example.org/forward7 -->
<g id="edge25" class="edge"><title>http://example.org/s7&#45;&gt;http://example.org/forward7</title>
<path fill="none" stroke="black" d="M221.213,-112.86C214.768,-117.1 207.323,-121.998 199.978,-126.83"/>
<polygon fill="black" stroke="black" points="197.898,-124.009 191.468,-132.429 201.746,-129.857 197.898,-124.009"/>
<text text-anchor="middle" x="222.088" y="-125.934" font-family="Times New Roman,serif" font-size="8.00">gen</text>
</g>
<!-- http://example.org/s7&#45;&gt;http://example.org/s0 -->
<g id="edge26" class="edge"><title>http://example.org/s7&#45;&gt;http://example.org/s0</title>
<path fill="none" stroke="black" d="M214.033,-102.129C189.783,-104.45 153.066,-110.048 124,-123.5 120.334,-125.197 116.713,-127.366 113.278,-129.736"/>
<polygon fill="black" stroke="black" points="111.04,-127.042 105.206,-135.886 115.282,-132.61 111.04,-127.042"/>
<text text-anchor="middle" x="207.928" y="-113.93" font-family="Times New Roman,serif" font-size="8.00">der</text>
</g>
<!-- &#45;attrs8 -->
<g id="node19" class="node"><title>&#45;attrs8</title>
<polygon fill="none" stroke="gray" points="349,-49 290,-49 290,-0 355,-0 355,-43 349,-49"/>
<polyline fill="none" stroke="gray" points="349,-49 349,-43 "/>
<polyline fill="none" stroke="gray" points="355,-43 349,-43 "/>
<text text-anchor="start" x="300.5" y="-34.5" font-family="Times New Roman,serif" font-size="10.00">type:</text>
<text text-anchor="start" x="332.5" y="-34.5" font-family="Times New Roman,serif" font-size="10.00">Set</text>
<text text-anchor="start" x="300.5" y="-21.5" font-family="Times New Roman,serif" font-size="10.00">visited:</text>
<text text-anchor="start" x="332.5" y="-21.5" font-family="Times New Roman,serif" font-size="10.00">74</text>
<text text-anchor="start" x="300.5" y="-8.5" font-family="Times New Roman,serif" font-size="10.00">related:</text>
<text text-anchor="start" x="332.5" y="-8.5" font-family="Times New Roman,serif" font-size="10.00">3</text>
</g>
<!-- &#45;attrs8&#45;&gt;http://example.org/s7 -->
<g id="edge9" class="edge"><title>&#45;attrs8&#45;&gt;http://example.org/s7</title>
<path fill="none" stroke="gray" stroke-dasharray="5,2" d="M290.242,-49.2568C286.721,-52.2951 283.238,-55.4172 280,-58.5 271.312,-66.7722 262.274,-76.6987 255.194,-84.824"/>
</g>
<!-- http://example.org/s9&#45;&gt;http://example.org/backward9 -->
<g id="edge28" class="edge"><title>http://example.org/s9&#45;&gt;http://example.org/backward9</title>
<path fill="none" stroke="black" d="M215.535,-229.616C214.472,-229.882 213.392,-230.152 212.301,-230.425"/>
<polygon fill="black" stroke="black" points="211.105,-227.116 202.252,-232.937 212.803,-233.907 211.105,-227.116"/>
<text text-anchor="middle" x="211.409" y="-242.138" font-family="Times New Roman,serif" font-size="8.00">gen</text>
</g>
<!-- http://example.org/s9&#45;&gt;http://example.org/s0 -->
<g id="edge29" class="edge"><title>http://example.org/s9&#45;&gt;http://example.org/s0</title>
<path fill="none" stroke="black" d="M215.956,-216.266C191.817,-208.484 154.006,-194.854 124,-177.5 120.672,-175.575 117.321,-173.346 114.088,-171.01"/>
<polygon fill="black" stroke="black" points="115.962,-168.036 105.902,-164.712 111.693,-173.584 115.962,-168.036"/>
<text text-anchor="middle" x="204.775" y="-224.365" font-family="Times New Roman,serif" font-size="8.00">der</text>
</g>
<!-- &#45;attrs9 -->
<g id="node21" class="node"><title>&#45;attrs9</title>
<polygon fill="none" stroke="gray" points="349,-210 290,-210 290,-161 355,-161 355,-204 349,-210"/>
<polyline fill="none" stroke="gray" points="349,-210 349,-204 "/>
<polyline fill="none" stroke="gray" points="355,-204 349,-204 "/>
<text text-anchor="start" x="300.5" y="-195.5" font-family="Times New Roman,serif" font-size="10.00">type:</text>
<text text-anchor="start" x="332.5" y="-195.5" font-family="Times New Roman,serif" font-size="10.00">Set</text>
<text text-anchor="start" x="300.5" y="-182.5" font-family="Times New Roman,serif" font-size="10.00">visited:</text>
<text text-anchor="start" x="332.5" y="-182.5" font-family="Times New Roman,serif" font-size="10.00">35</text>
<text text-anchor="start" x="300.5" y="-169.5" font-family="Times New Roman,serif" font-size="10.00">related:</text>
<text text-anchor="start" x="332.5" y="-169.5" font-family="Times New Roman,serif" font-size="10.00">3</text>
</g>
<!-- &#45;attrs9&#45;&gt;http://example.org/s9 -->
<g id="edge10" class="edge"><title>&#45;attrs9&#45;&gt;http://example.org/s9</title>
<path fill="none" stroke="gray" stroke-dasharray="5,2" d="M289.622,-200.737C280.81,-204.949 271.46,-209.419 263.399,-213.271"/>
</g>
<!-- http://example.org/s0&#45;&gt;http://example.org/start -->
<g id="edge30" class="edge"><title>http://example.org/s0&#45;&gt;http://example.org/start</title>
<path fill="none" stroke="black" d="M61.8577,-150.5C61.6998,-150.5 61.5417,-150.5 61.3836,-150.5"/>
<polygon fill="black" stroke="black" points="64.2405,-147 54.2405,-150.5 64.2404,-154 64.2405,-147"/>
<text text-anchor="middle" x="54.3577" y="-161.59" font-family="Times New Roman,serif" font-size="8.00">gen</text>
</g>
<!-- &#45;attrs10 -->
<g id="node23" class="node"><title>&#45;attrs10</title>
<polygon fill="none" stroke="gray" points="189.5,-76 130.5,-76 130.5,-27 195.5,-27 195.5,-70 189.5,-76"/>
<polyline fill="none" stroke="gray" points="189.5,-76 189.5,-70 "/>
<polyline fill="none" stroke="gray" points="195.5,-70 189.5,-70 "/>
<text text-anchor="start" x="141" y="-61.5" font-family="Times New Roman,serif" font-size="10.00">type:</text>
<text text-anchor="start" x="173" y="-61.5" font-family="Times New Roman,serif" font-size="10.00">Set</text>
<text text-anchor="start" x="141" y="-48.5" font-family="Times New Roman,serif" font-size="10.00">visited:</text>
<text text-anchor="start" x="173" y="-48.5" font-family="Times New Roman,serif" font-size="10.00">4</text>
<text text-anchor="start" x="141" y="-35.5" font-family="Times New Roman,serif" font-size="10.00">related:</text>
<text text-anchor="start" x="173" y="-35.5" font-family="Times New Roman,serif" font-size="10.00">2</text>
</g>
<!-- &#45;attrs10&#45;&gt;http://example.org/s0 -->
<g id="edge11" class="edge"><title>&#45;attrs10&#45;&gt;http://example.org/s0</title>
<path fill="none" stroke="gray" stroke-dasharray="5,2" d="M136.067,-76.2414C131.824,-80.8049 127.632,-85.6616 124,-90.5 113.793,-104.096 104.448,-121.07 98.1496,-133.491"/>
</g>
</g>
</svg>
